<svg width="80" height="80" viewBox="0 0 80 80" fill="none" xmlns="http://www.w3.org/2000/svg">
<circle cx="40" cy="40" r="37" fill="white" stroke="#13B7B3" stroke-width="6"/>
<path fill-rule="evenodd" clip-rule="evenodd" d="M23 22.5974L23.0143 40.0303C23.0143 54.4221 40.0029 63 40.0029 63C40.0029 63 56.9971 54.901 56.9971 39.9841L57 22.5974C57 22.5974 49.3911 17 40.0029 17C30.6089 17 23 22.5974 23 22.5974ZM54.358 40.6449C54.358 52.0244 40.8683 59.9243 39.9486 60.3715V60.4148L39.9057 60.3946L39.8629 60.4148V60.3715C38.9432 59.9243 25.4535 52.0244 25.4535 40.6449L25.442 24.3026C25.442 24.3026 31.8913 19.7583 39.8629 19.7208H39.9057L39.9486 19.7179C47.9202 19.7554 54.3695 24.3026 54.3695 24.3026L54.358 40.6449ZM51.1934 41.1065C51.1934 51.0174 40.7083 56.8659 39.9914 57.2554V57.29C39.9914 57.29 39.9629 57.2785 39.96 57.2727L39.9257 57.29V57.2525C39.2088 56.863 28.7266 51.0146 28.7266 41.1036L28.7152 26.8821C28.7152 26.8821 33.7307 22.9292 39.9257 22.8946H39.9914C46.1894 22.9292 51.1991 26.8821 51.1991 26.8821L51.1934 41.1065Z" fill="#13B7B3"/>
</svg>
