<svg width="32" height="32" viewBox="0 0 32 32" fill="none" xmlns="http://www.w3.org/2000/svg">
<path d="M30.5761 29.9022H1.59783V0.923913C1.59783 0.74518 1.52682 0.573768 1.40044 0.447385C1.27406 0.321001 1.10265 0.25 0.923913 0.25C0.74518 0.25 0.573768 0.321001 0.447385 0.447385C0.321001 0.573768 0.25 0.74518 0.25 0.923913V30.5761C0.25 30.7548 0.321001 30.9262 0.447385 31.0526C0.573768 31.179 0.74518 31.25 0.923913 31.25H30.5761C30.7548 31.25 30.9262 31.179 31.0526 31.0526C31.179 30.9262 31.25 30.7548 31.25 30.5761C31.25 30.3974 31.179 30.2259 31.0526 30.0996C30.9262 29.9732 30.7548 29.9022 30.5761 29.9022Z" fill="white" stroke="white" stroke-width="0.5"/>
<path d="M4.96749 28.5541H10.3588C10.5375 28.5541 10.7089 28.4831 10.8353 28.3567C10.9617 28.2303 11.0327 28.0589 11.0327 27.8802V14.4019C11.0327 14.2232 10.9617 14.0518 10.8353 13.9254C10.7089 13.799 10.5375 13.728 10.3588 13.728H4.96749C4.78876 13.728 4.61735 13.799 4.49096 13.9254C4.36458 14.0518 4.29358 14.2232 4.29358 14.4019V27.8802C4.29358 28.0589 4.36458 28.2303 4.49096 28.3567C4.61735 28.4831 4.78876 28.5541 4.96749 28.5541ZM5.64141 15.0759H9.68488V27.2063H5.64141V15.0759Z" fill="white" stroke="white" stroke-width="0.5"/>
<path d="M13.0543 28.5545H18.4456C18.6243 28.5545 18.7957 28.4835 18.9221 28.3571C19.0485 28.2307 19.1195 28.0593 19.1195 27.8806V7.66317C19.1195 7.48444 19.0485 7.31303 18.9221 7.18664C18.7957 7.06026 18.6243 6.98926 18.4456 6.98926H13.0543C12.8756 6.98926 12.7041 7.06026 12.5778 7.18664C12.4514 7.31303 12.3804 7.48444 12.3804 7.66317V27.8806C12.3804 28.0593 12.4514 28.2307 12.5778 28.3571C12.7041 28.4835 12.8756 28.5545 13.0543 28.5545ZM13.7282 8.33708H17.7717V27.2066H13.7282V8.33708Z" fill="white" stroke="white" stroke-width="0.5"/>
<path d="M21.1413 28.5545H26.5326C26.7114 28.5545 26.8828 28.4835 27.0092 28.3571C27.1355 28.2307 27.2065 28.0593 27.2065 27.8805V11.7066C27.2065 11.5279 27.1355 11.3565 27.0092 11.2301C26.8828 11.1037 26.7114 11.0327 26.5326 11.0327H21.1413C20.9626 11.0327 20.7912 11.1037 20.6648 11.2301C20.5384 11.3565 20.4674 11.5279 20.4674 11.7066V27.8805C20.4674 28.0593 20.5384 28.2307 20.6648 28.3571C20.7912 28.4835 20.9626 28.5545 21.1413 28.5545ZM21.8152 12.3805H25.8587V27.2066H21.8152V12.3805Z" fill="white" stroke="white" stroke-width="0.5"/>
</svg>
