<svg width="75" height="71" viewBox="0 0 75 71" fill="none" xmlns="http://www.w3.org/2000/svg">
<path d="M0 6.0156C0 2.6953 2.6953 0 6.0156 0C9.3359 0 12.0312 2.6953 12.0312 6.0156C12.0312 9.3359 9.3359 12.0312 6.0156 12.0312C2.6953 12.0312 0 9.3359 0 6.0156Z" fill="black"/>
<path d="M27.188 39.0156C25.9771 39.0156 25.0005 38.0391 25.0005 36.8281V33.3906C25.0005 32.1797 25.977 31.2031 27.188 31.2031H72.813C74.0239 31.2031 75.0005 32.1797 75.0005 33.3906V36.8281C75.0005 38.039 74.0239 39.0156 72.813 39.0156H27.188Z" fill="black"/>
<path d="M27.188 60.2979C25.9771 60.2979 25.0005 61.2744 25.0005 62.4854V65.9229C25.0005 67.1338 25.977 68.1104 27.188 68.1104H72.813C74.0239 68.1104 75.0005 67.1338 75.0005 65.9229V62.4854C75.0005 61.2745 74.0239 60.2979 72.813 60.2979H27.188Z" fill="black"/>
<path d="M6.01609 29.0938C2.69579 29.0938 0.000488281 31.789 0.000488281 35.1093C0.000488281 38.4296 2.69579 41.125 6.01609 41.125C9.33639 41.125 12.0317 38.4296 12.0317 35.1093C12.0317 31.789 9.33639 29.0938 6.01609 29.0938Z" fill="black"/>
<path d="M0 64.2031C0 60.8828 2.6953 58.1875 6.0156 58.1875C9.3359 58.1875 12.0312 60.8828 12.0312 64.2031C12.0312 67.5234 9.3359 70.2187 6.0156 70.2187C2.6953 70.2187 0 67.5234 0 64.2031Z" fill="black"/>
<path d="M27.188 9.9209C25.9771 9.9209 25.0005 8.94434 25.0005 7.7334V4.2959C25.0005 3.085 25.977 2.1084 27.188 2.1084H72.813C74.0239 2.1084 75.0005 3.08496 75.0005 4.2959V7.7334C75.0005 8.9443 74.0239 9.9209 72.813 9.9209H27.188Z" fill="black"/>
</svg>
