<svg width="34" height="34" viewBox="0 0 34 34" fill="none" xmlns="http://www.w3.org/2000/svg">
<path d="M18.1848 21.774L11.0342 23.0611L12.226 15.8151L25.8837 2.20505C26.1053 1.98164 26.3689 1.80432 26.6594 1.68331C26.9498 1.5623 27.2614 1.5 27.576 1.5C27.8907 1.5 28.2022 1.5623 28.4927 1.68331C28.7831 1.80432 29.0468 1.98164 29.2683 2.20505L31.7949 4.73161C32.0183 4.9532 32.1956 5.21682 32.3166 5.50728C32.4376 5.79773 32.4999 6.10928 32.4999 6.42393C32.4999 6.73859 32.4376 7.05013 32.3166 7.34059C32.1956 7.63105 32.0183 7.89467 31.7949 8.11625L18.1848 21.774Z" stroke="white" stroke-width="3" stroke-linecap="round" stroke-linejoin="round"/>
<path d="M28.9108 22.966V30.1166C28.9108 30.7488 28.6597 31.355 28.2127 31.8021C27.7657 32.2491 27.1594 32.5002 26.5273 32.5002H3.88355C3.25139 32.5002 2.64513 32.2491 2.19813 31.8021C1.75112 31.355 1.5 30.7488 1.5 30.1166V7.47291C1.5 6.84075 1.75112 6.23448 2.19813 5.78748C2.64513 5.34048 3.25139 5.08936 3.88355 5.08936H11.0342" stroke="white" stroke-width="3" stroke-linecap="round" stroke-linejoin="round"/>
</svg>
