<svg width="80" height="80" viewBox="0 0 80 80" fill="none" xmlns="http://www.w3.org/2000/svg">
<circle cx="40" cy="40" r="37" fill="white" stroke="#13B7B3" stroke-width="6"/>
<path d="M41.4366 28.1435L42.5144 31.4447C43.5347 30.5805 44.7189 29.9296 45.9967 29.5304C47.4225 29.0681 48.6815 28.8081 49.8197 28.6588L48.7806 25.4732C47.4847 25.6591 46.2073 25.9556 44.9624 26.3593C43.7008 26.7667 42.5111 27.3688 41.4366 28.1435ZM43.6768 35.0179L44.7546 38.3191C45.7749 37.455 46.9591 36.804 48.2368 36.4048C49.6626 35.9425 50.9216 35.6825 52.0598 35.5332L51.0207 32.3476C49.7249 32.5335 48.4475 32.83 47.2025 33.2337C45.9403 33.6397 44.7504 34.2418 43.6768 35.0179ZM45.9194 41.8899L46.9971 45.1911C48.0174 44.327 49.2016 43.676 50.4794 43.2769C51.9052 42.8145 53.1642 42.5545 54.3024 42.4052L53.2633 39.2196C51.9674 39.4056 50.69 39.702 49.4451 40.1057C48.1829 40.5117 46.9929 41.1139 45.9194 41.8899ZM28.8537 47.1198L29.8928 50.3054C31.0444 49.6847 32.2514 49.1721 33.4983 48.774C34.7676 48.3496 36.1095 48.1834 37.4445 48.2852L36.3667 44.984C35.0414 44.9859 33.7245 45.1947 32.464 45.6028C31.219 46.004 30.011 46.5115 28.8537 47.1198ZM24.3709 33.3734L25.4101 36.5589C26.5622 35.9393 27.7691 35.4267 29.0156 35.0275C30.2849 34.6032 31.6268 34.437 32.9618 34.5388L31.8864 31.2352C30.5602 31.2381 29.2425 31.4477 27.9813 31.8564C26.7363 32.2576 25.5283 32.7651 24.3709 33.3734ZM26.6111 40.2478L27.6502 43.4334C28.8018 42.8127 30.0089 42.3 31.2557 41.902C32.5251 41.4776 33.867 41.3114 35.2019 41.4132L34.1266 38.1096C32.8012 38.1115 31.4843 38.3203 30.2238 38.7284C28.978 39.1304 27.7692 39.6387 26.6111 40.2478ZM42.57 19.0274C39.3951 20.0381 36.7457 22.2508 35.1923 25.1891C32.203 23.7223 28.7549 23.4845 25.5913 24.5269C19.4943 26.5013 16 30.8523 16 30.8523L25.8958 61.16C26.2003 62.0918 27.4569 62.3085 28.0175 61.5043C29.2234 59.7731 31.5457 57.5121 35.8882 56.1059C40.0399 54.7623 43.063 56.2359 44.7207 57.4976C45.378 57.9985 46.3205 57.6421 46.5622 56.8523C47.1711 54.861 48.754 51.9403 52.8694 50.6088C57.2167 49.2002 60.4308 49.6721 62.4293 50.368C63.3596 50.6906 64.2417 49.7853 63.9396 48.8534L54.0607 18.5289C54.0607 18.5289 48.667 17.0553 42.57 19.0274ZM42.2969 52.3665C39.8162 51.6225 37.1654 51.6595 34.7065 52.4724C31.6834 53.45 29.5665 54.7575 28.1843 55.8531L20.3425 31.8179C21.2077 30.9559 23.211 29.3089 26.7754 28.1555C30.132 27.0696 32.8845 27.999 34.6993 29.0657L42.2969 52.3665ZM58.9567 45.8918C57.1902 45.8147 54.7059 45.9977 51.6828 46.9777C49.214 47.7593 47.0476 49.2814 45.4795 51.3359L37.8819 28.0351C38.718 26.1089 40.3951 23.7444 43.7541 22.6584C47.3161 21.505 49.9091 21.664 51.1174 21.8542L58.9567 45.8918Z" fill="#13B7B3"/>
</svg>
