<svg width="182" height="30" viewBox="0 0 182 30" fill="none" xmlns="http://www.w3.org/2000/svg">
<path d="M32.2502 0.25H0.250244V29.25H32.2502V0.25Z" stroke="white" stroke-width="0.5"/>
<path fill-rule="evenodd" clip-rule="evenodd" d="M29.2465 3.87659H3.24739C1.59742 3.87659 0.25 5.09768 0.25 6.59266V18.3765C0.25 19.8763 1.59741 21.0926 3.24739 21.0926H29.2465C30.9014 21.0926 32.2499 19.8763 32.2499 18.3765V6.59266C32.2499 5.09768 30.9014 3.87659 29.2465 3.87659ZM30.2477 18.3765C30.2477 18.8758 29.7988 19.2839 29.2465 19.2839H3.24739C2.69611 19.2839 2.25216 18.8758 2.25216 18.3765V6.59266C2.25216 6.09785 2.69611 5.69104 3.24739 5.69104H29.2465C29.7988 5.69104 30.2477 6.09785 30.2477 6.59266V18.3765ZM30.7452 22.9074H20.2483C20.2483 23.407 19.7997 23.8148 19.2474 23.8148H13.2466C12.6953 23.8148 12.2517 23.407 12.2517 22.9074H1.74875C0.923584 22.9074 0.25006 23.5133 0.25006 24.2656C0.25006 25.0176 0.923584 25.6235 1.74875 25.6235H30.7451C31.5749 25.6235 32.2499 25.0176 32.2499 24.2656C32.2499 23.5133 31.5749 22.9074 30.7451 22.9074H30.7452Z" fill="white" stroke="white" stroke-width="0.5"/>
<path fill-rule="evenodd" clip-rule="evenodd" d="M5.23943 8.42084H28.3065V10.1018H5.23943V8.42084Z" fill="white" stroke="white" stroke-width="0.5"/>
<path fill-rule="evenodd" clip-rule="evenodd" d="M5.23943 11.9363H28.3065V13.6173H5.23943V11.9363Z" fill="white" stroke="white" stroke-width="0.5"/>
<path fill-rule="evenodd" clip-rule="evenodd" d="M5.23943 15.452H28.3065V17.1329H5.23943V15.452Z" fill="white" stroke="white" stroke-width="0.5"/>
<path d="M54.2305 7.01172H58.1211C60.6289 7.01172 62.4922 7.32422 63.7109 7.94922C64.9297 8.56641 65.9336 9.57422 66.7227 10.9727C67.5117 12.3711 67.9062 14.0039 67.9062 15.8711C67.9062 17.1992 67.6836 18.4219 67.2383 19.5391C66.8008 20.6484 66.1914 21.5703 65.4102 22.3047C64.6367 23.0391 63.7969 23.5469 62.8906 23.8281C61.9844 24.1094 60.4141 24.25 58.1797 24.25H54.2305V7.01172ZM57.5 10.1758V21.0391H59.0234C60.5234 21.0391 61.6094 20.8672 62.2812 20.5234C62.9609 20.1797 63.5156 19.6016 63.9453 18.7891C64.375 17.9766 64.5898 16.9766 64.5898 15.7891C64.5898 13.9609 64.0781 12.543 63.0547 11.5352C62.1328 10.6289 60.6523 10.1758 58.6133 10.1758H57.5ZM80.0938 11.5H83.2812V24.25H80.0938V22.9023C79.4688 23.4961 78.8398 23.9258 78.207 24.1914C77.582 24.4492 76.9023 24.5781 76.168 24.5781C74.5195 24.5781 73.0938 23.9414 71.8906 22.668C70.6875 21.3867 70.0859 19.7969 70.0859 17.8984C70.0859 15.9297 70.668 14.3164 71.832 13.0586C72.9961 11.8008 74.4102 11.1719 76.0742 11.1719C76.8398 11.1719 77.5586 11.3164 78.2305 11.6055C78.9023 11.8945 79.5234 12.3281 80.0938 12.9062V11.5ZM76.7305 14.125C75.7383 14.125 74.9141 14.4766 74.2578 15.1797C73.6016 15.875 73.2734 16.7695 73.2734 17.8633C73.2734 18.9648 73.6055 19.8711 74.2695 20.582C74.9414 21.293 75.7656 21.6484 76.7422 21.6484C77.75 21.6484 78.5859 21.3008 79.25 20.6055C79.9141 19.9023 80.2461 18.9844 80.2461 17.8516C80.2461 16.7422 79.9141 15.8438 79.25 15.1562C78.5859 14.4688 77.7461 14.125 76.7305 14.125ZM94.3203 13.2812L92.3398 15.2617C91.5352 14.4648 90.8047 14.0664 90.1484 14.0664C89.7891 14.0664 89.5078 14.1445 89.3047 14.3008C89.1016 14.4492 89 14.6367 89 14.8633C89 15.0352 89.0625 15.1953 89.1875 15.3438C89.3203 15.4844 89.6406 15.6797 90.1484 15.9297L91.3203 16.5156C92.5547 17.125 93.4023 17.7461 93.8633 18.3789C94.3242 19.0117 94.5547 19.7539 94.5547 20.6055C94.5547 21.7383 94.1367 22.6836 93.3008 23.4414C92.4727 24.1992 91.3594 24.5781 89.9609 24.5781C88.1016 24.5781 86.6172 23.8516 85.5078 22.3984L87.4766 20.2539C87.8516 20.6914 88.2891 21.0469 88.7891 21.3203C89.2969 21.5859 89.7461 21.7188 90.1367 21.7188C90.5586 21.7188 90.8984 21.6172 91.1562 21.4141C91.4141 21.2109 91.543 20.9766 91.543 20.7109C91.543 20.2188 91.0781 19.7383 90.1484 19.2695L89.0703 18.7305C87.0078 17.6914 85.9766 16.3906 85.9766 14.8281C85.9766 13.8203 86.3633 12.9609 87.1367 12.25C87.918 11.5312 88.9141 11.1719 90.125 11.1719C90.9531 11.1719 91.7305 11.3555 92.457 11.7227C93.1914 12.082 93.8125 12.6016 94.3203 13.2812ZM97.0977 6.57812H100.273V12.7891C100.898 12.25 101.527 11.8477 102.16 11.582C102.793 11.3086 103.434 11.1719 104.082 11.1719C105.348 11.1719 106.414 11.6094 107.281 12.4844C108.023 13.2422 108.395 14.3555 108.395 15.8242V24.25H105.242V18.6602C105.242 17.1836 105.172 16.1836 105.031 15.6602C104.891 15.1367 104.648 14.7461 104.305 14.4883C103.969 14.2305 103.551 14.1016 103.051 14.1016C102.402 14.1016 101.844 14.3164 101.375 14.7461C100.914 15.1758 100.594 15.7617 100.414 16.5039C100.32 16.8867 100.273 17.7617 100.273 19.1289V24.25H97.0977V6.57812ZM114.676 6.57812V12.9062C115.254 12.3281 115.879 11.8945 116.551 11.6055C117.223 11.3164 117.941 11.1719 118.707 11.1719C120.371 11.1719 121.785 11.8008 122.949 13.0586C124.113 14.3164 124.695 15.9297 124.695 17.8984C124.695 19.7969 124.094 21.3867 122.891 22.668C121.688 23.9414 120.262 24.5781 118.613 24.5781C117.879 24.5781 117.195 24.4492 116.562 24.1914C115.93 23.9258 115.301 23.4961 114.676 22.9023V24.25H111.5V6.57812H114.676ZM118.039 14.125C117.031 14.125 116.195 14.4688 115.531 15.1562C114.867 15.8438 114.535 16.7422 114.535 17.8516C114.535 18.9844 114.867 19.9023 115.531 20.6055C116.195 21.3008 117.031 21.6484 118.039 21.6484C119.016 21.6484 119.836 21.293 120.5 20.582C121.172 19.8711 121.508 18.9648 121.508 17.8633C121.508 16.7695 121.18 15.875 120.523 15.1797C119.867 14.4766 119.039 14.125 118.039 14.125ZM133.332 11.1719C134.535 11.1719 135.664 11.4727 136.719 12.0742C137.781 12.6758 138.609 13.4922 139.203 14.5234C139.797 15.5547 140.094 16.668 140.094 17.8633C140.094 19.0664 139.793 20.1914 139.191 21.2383C138.598 22.2852 137.785 23.1055 136.754 23.6992C135.723 24.2852 134.586 24.5781 133.344 24.5781C131.516 24.5781 129.953 23.9297 128.656 22.6328C127.367 21.3281 126.723 19.7461 126.723 17.8867C126.723 15.8945 127.453 14.2344 128.914 12.9062C130.195 11.75 131.668 11.1719 133.332 11.1719ZM133.379 14.1836C132.387 14.1836 131.559 14.5312 130.895 15.2266C130.238 15.9141 129.91 16.7969 129.91 17.875C129.91 18.9844 130.234 19.8828 130.883 20.5703C131.539 21.2578 132.367 21.6016 133.367 21.6016C134.367 21.6016 135.199 21.2539 135.863 20.5586C136.527 19.8633 136.859 18.9688 136.859 17.875C136.859 16.7812 136.531 15.8945 135.875 15.2148C135.227 14.5273 134.395 14.1836 133.379 14.1836ZM152.141 11.5H155.328V24.25H152.141V22.9023C151.516 23.4961 150.887 23.9258 150.254 24.1914C149.629 24.4492 148.949 24.5781 148.215 24.5781C146.566 24.5781 145.141 23.9414 143.938 22.668C142.734 21.3867 142.133 19.7969 142.133 17.8984C142.133 15.9297 142.715 14.3164 143.879 13.0586C145.043 11.8008 146.457 11.1719 148.121 11.1719C148.887 11.1719 149.605 11.3164 150.277 11.6055C150.949 11.8945 151.57 12.3281 152.141 12.9062V11.5ZM148.777 14.125C147.785 14.125 146.961 14.4766 146.305 15.1797C145.648 15.875 145.32 16.7695 145.32 17.8633C145.32 18.9648 145.652 19.8711 146.316 20.582C146.988 21.293 147.812 21.6484 148.789 21.6484C149.797 21.6484 150.633 21.3008 151.297 20.6055C151.961 19.9023 152.293 18.9844 152.293 17.8516C152.293 16.7422 151.961 15.8438 151.297 15.1562C150.633 14.4688 149.793 14.125 148.777 14.125ZM157.812 11.5H160.555V13.1055C160.852 12.4727 161.246 11.9922 161.738 11.6641C162.23 11.3359 162.77 11.1719 163.355 11.1719C163.77 11.1719 164.203 11.2812 164.656 11.5L163.66 14.2539C163.285 14.0664 162.977 13.9727 162.734 13.9727C162.242 13.9727 161.824 14.2773 161.48 14.8867C161.145 15.4961 160.977 16.6914 160.977 18.4727L160.988 19.0938V24.25H157.812V11.5ZM175.672 6.57812H178.859V24.25H175.672V22.9023C175.047 23.4961 174.418 23.9258 173.785 24.1914C173.16 24.4492 172.48 24.5781 171.746 24.5781C170.098 24.5781 168.672 23.9414 167.469 22.668C166.266 21.3867 165.664 19.7969 165.664 17.8984C165.664 15.9297 166.246 14.3164 167.41 13.0586C168.574 11.8008 169.988 11.1719 171.652 11.1719C172.418 11.1719 173.137 11.3164 173.809 11.6055C174.48 11.8945 175.102 12.3281 175.672 12.9062V6.57812ZM172.309 14.125C171.316 14.125 170.492 14.4766 169.836 15.1797C169.18 15.875 168.852 16.7695 168.852 17.8633C168.852 18.9648 169.184 19.8711 169.848 20.582C170.52 21.293 171.344 21.6484 172.32 21.6484C173.328 21.6484 174.164 21.3008 174.828 20.6055C175.492 19.9023 175.824 18.9844 175.824 17.8516C175.824 16.7422 175.492 15.8438 174.828 15.1562C174.164 14.4688 173.324 14.125 172.309 14.125Z" fill="white"/>
</svg>
