<svg width="33" height="29" viewBox="0 0 33 29" fill="none" xmlns="http://www.w3.org/2000/svg">
<path fill-rule="evenodd" clip-rule="evenodd" d="M29.0902 4H3.90348C2.30507 4 0.999756 5.17916 0.999756 6.62279V18.002C0.999756 19.4502 2.30507 20.6247 3.90348 20.6247H29.0902C30.6934 20.6247 31.9998 19.4502 31.9998 18.002V6.62279C31.9998 5.17915 30.6934 4 29.0902 4ZM30.0602 18.002C30.0602 18.4841 29.6253 18.8782 29.0902 18.8782H3.90348C3.36943 18.8782 2.93936 18.4841 2.93936 18.002V6.62279C2.93936 6.14498 3.36943 5.75214 3.90348 5.75214H29.0902C29.6253 5.75214 30.0602 6.14498 30.0602 6.62279V18.002ZM30.5421 22.3772H20.3731C20.3731 22.8597 19.9386 23.2534 19.4035 23.2534H13.5902C13.0561 23.2534 12.6264 22.8597 12.6264 22.3772H2.45168C1.65229 22.3772 0.999814 22.9623 0.999814 23.6888C0.999814 24.4149 1.65229 25 2.45168 25H30.542C31.3459 25 31.9997 24.4149 31.9997 23.6888C31.9997 22.9623 31.3459 22.3772 30.542 22.3772H30.5421Z" fill="white" stroke="white" stroke-width="0.5"/>
<path fill-rule="evenodd" clip-rule="evenodd" d="M4.98914 8.1709H28.0562V9.85182H4.98914V8.1709Z" fill="white" stroke="white" stroke-width="0.5"/>
<path fill-rule="evenodd" clip-rule="evenodd" d="M4.98914 11.6865H28.0562V13.3675H4.98914V11.6865Z" fill="white" stroke="white" stroke-width="0.5"/>
<path fill-rule="evenodd" clip-rule="evenodd" d="M4.98914 15.2021H28.0562V16.8831H4.98914V15.2021Z" fill="white" stroke="white" stroke-width="0.5"/>
</svg>
