<svg width="227" height="39" viewBox="0 0 227 39" fill="none" xmlns="http://www.w3.org/2000/svg">
<path d="M11.7293 3.8125H17.7709C17.9312 3.8125 18.0848 3.74994 18.1981 3.63859C18.3114 3.52724 18.3751 3.37622 18.3751 3.21875C18.3751 3.06128 18.3114 2.91026 18.1981 2.79891C18.0848 2.68756 17.9312 2.625 17.7709 2.625H11.7293C11.569 2.625 11.4154 2.68756 11.302 2.79891C11.1887 2.91026 11.1251 3.06128 11.1251 3.21875C11.1251 3.37622 11.1887 3.52724 11.302 3.63859C11.4154 3.74994 11.569 3.8125 11.7293 3.8125Z" fill="white" stroke="white" stroke-width="0.5"/>
<path d="M26.2292 2.625H21.1652L20.1238 0.578166C20.0736 0.479543 19.9964 0.396604 19.901 0.338643C19.8055 0.280681 19.6955 0.249987 19.5833 0.25H9.91667C9.80446 0.249987 9.69447 0.280681 9.59902 0.338643C9.50357 0.396604 9.42643 0.479543 9.37624 0.578166L8.33484 2.625H3.27083C2.46995 2.62593 1.70214 2.939 1.13582 3.49555C0.569512 4.0521 0.250943 4.80667 0.25 5.59375V35.2812C0.250943 36.0683 0.569512 36.8229 1.13582 37.3794C1.70214 37.936 2.46995 38.2491 3.27083 38.25H26.2292C27.0301 38.2491 27.7979 37.936 28.3642 37.3794C28.9305 36.8229 29.2491 36.0683 29.25 35.2812V5.59375C29.2491 4.80667 28.9305 4.0521 28.3642 3.49555C27.7979 2.939 27.0301 2.62593 26.2292 2.625ZM8.70833 3.8125C8.82054 3.81251 8.93053 3.78182 9.02598 3.72386C9.12143 3.6659 9.19857 3.58296 9.24876 3.48433L10.2902 1.4375H19.2098L20.2512 3.48433C20.3014 3.58296 20.3786 3.6659 20.474 3.72386C20.5695 3.78182 20.6795 3.81251 20.7917 3.8125H23.2083V5H6.29167V3.8125H8.70833ZM5.6875 6.1875H23.8125C23.9727 6.1875 24.1264 6.12494 24.2397 6.01359C24.353 5.90225 24.4167 5.75122 24.4167 5.59375V3.8125H25.625V34.6875H3.875V3.8125H5.08333V5.59375C5.08333 5.75122 5.14699 5.90225 5.26029 6.01359C5.37359 6.12494 5.52727 6.1875 5.6875 6.1875ZM28.0417 35.2812C28.0411 35.7535 27.85 36.2063 27.5102 36.5402C27.1704 36.8741 26.7097 37.062 26.2292 37.0625H3.27083C2.79029 37.062 2.32958 36.8741 1.98979 36.5402C1.64999 36.2063 1.45886 35.7535 1.45833 35.2812V5.59375C1.45948 5.22658 1.57624 4.86877 1.7926 4.56943C2.00895 4.27009 2.31428 4.04391 2.66667 3.92193V35.2812C2.66667 35.4387 2.73032 35.5897 2.84362 35.7011C2.95693 35.8124 3.1106 35.875 3.27083 35.875H26.2292C26.3894 35.875 26.5431 35.8124 26.6564 35.7011C26.7697 35.5897 26.8333 35.4387 26.8333 35.2812V3.92193C27.1857 4.04391 27.4911 4.27009 27.7074 4.56943C27.9238 4.86877 28.0405 5.22658 28.0417 5.59375V35.2812Z" fill="white" stroke="white" stroke-width="0.5"/>
<path d="M8.1041 18.6562H5.68743C5.5272 18.6562 5.37353 18.7188 5.26022 18.8302C5.14692 18.9415 5.08327 19.0925 5.08327 19.25V21.625C5.08327 21.7825 5.14692 21.9335 5.26022 22.0448C5.37353 22.1562 5.5272 22.2188 5.68743 22.2188H8.1041C8.26434 22.2188 8.41801 22.1562 8.53131 22.0448C8.64461 21.9335 8.70827 21.7825 8.70827 21.625V19.25C8.70827 19.0925 8.64461 18.9415 8.53131 18.8302C8.41801 18.7188 8.26434 18.6562 8.1041 18.6562ZM7.49993 21.0312H6.2916V19.8438H7.49993V21.0312Z" fill="white" stroke="white" stroke-width="0.5"/>
<path d="M8.1041 23.4062H5.68743C5.5272 23.4062 5.37353 23.4688 5.26022 23.5802C5.14692 23.6915 5.08327 23.8425 5.08327 24V26.375C5.08327 26.5325 5.14692 26.6835 5.26022 26.7948C5.37353 26.9062 5.5272 26.9688 5.68743 26.9688H8.1041C8.26434 26.9688 8.41801 26.9062 8.53131 26.7948C8.64461 26.6835 8.70827 26.5325 8.70827 26.375V24C8.70827 23.8425 8.64461 23.6915 8.53131 23.5802C8.41801 23.4688 8.26434 23.4062 8.1041 23.4062ZM7.49993 25.7812H6.2916V24.5938H7.49993V25.7812Z" fill="white" stroke="white" stroke-width="0.5"/>
<path d="M8.1041 28.1562H5.68743C5.5272 28.1562 5.37353 28.2188 5.26022 28.3302C5.14692 28.4415 5.08327 28.5925 5.08327 28.75V31.125C5.08327 31.2825 5.14692 31.4335 5.26022 31.5448C5.37353 31.6562 5.5272 31.7188 5.68743 31.7188H8.1041C8.26434 31.7188 8.41801 31.6562 8.53131 31.5448C8.64461 31.4335 8.70827 31.2825 8.70827 31.125V28.75C8.70827 28.5925 8.64461 28.4415 8.53131 28.3302C8.41801 28.2188 8.26434 28.1562 8.1041 28.1562ZM7.49993 30.5312H6.2916V29.3438H7.49993V30.5312Z" fill="white" stroke="white" stroke-width="0.5"/>
<path d="M8.1041 13.9062H5.68743C5.5272 13.9062 5.37353 13.9688 5.26022 14.0802C5.14692 14.1915 5.08327 14.3425 5.08327 14.5V16.875C5.08327 17.0325 5.14692 17.1835 5.26022 17.2948C5.37353 17.4062 5.5272 17.4688 5.68743 17.4688H8.1041C8.26434 17.4688 8.41801 17.4062 8.53131 17.2948C8.64461 17.1835 8.70827 17.0325 8.70827 16.875V14.5C8.70827 14.3425 8.64461 14.1915 8.53131 14.0802C8.41801 13.9688 8.26434 13.9062 8.1041 13.9062ZM7.49993 16.2812H6.2916V15.0938H7.49993V16.2812Z" fill="white" stroke="white" stroke-width="0.5"/>
<path d="M5.08327 12.125C5.08327 12.2825 5.14692 12.4335 5.26022 12.5448C5.37353 12.6562 5.5272 12.7188 5.68743 12.7188H8.1041C8.26434 12.7188 8.41801 12.6562 8.53131 12.5448C8.64461 12.4335 8.70827 12.2825 8.70827 12.125V9.75C8.70827 9.59253 8.64461 9.44151 8.53131 9.33016C8.41801 9.21881 8.26434 9.15625 8.1041 9.15625H5.68743C5.5272 9.15625 5.37353 9.21881 5.26022 9.33016C5.14692 9.44151 5.08327 9.59253 5.08327 9.75V12.125ZM6.2916 10.3438H7.49993V11.5312H6.2916V10.3438Z" fill="white" stroke="white" stroke-width="0.5"/>
<path d="M10.5209 10.3438H23.8126C23.9728 10.3438 24.1265 10.2812 24.2398 10.1698C24.3531 10.0585 24.4168 9.90747 24.4168 9.75C24.4168 9.59253 24.3531 9.44151 24.2398 9.33016C24.1265 9.21881 23.9728 9.15625 23.8126 9.15625H10.5209C10.3607 9.15625 10.207 9.21881 10.0937 9.33016C9.98043 9.44151 9.91678 9.59253 9.91678 9.75C9.91678 9.90747 9.98043 10.0585 10.0937 10.1698C10.207 10.2812 10.3607 10.3438 10.5209 10.3438Z" fill="white" stroke="white" stroke-width="0.5"/>
<path d="M10.5209 12.7188H17.1668C17.327 12.7188 17.4807 12.6562 17.594 12.5448C17.7073 12.4335 17.7709 12.2825 17.7709 12.125C17.7709 11.9675 17.7073 11.8165 17.594 11.7052C17.4807 11.5938 17.327 11.5312 17.1668 11.5312H10.5209C10.3607 11.5312 10.207 11.5938 10.0937 11.7052C9.98043 11.8165 9.91678 11.9675 9.91678 12.125C9.91678 12.2825 9.98043 12.4335 10.0937 12.5448C10.207 12.6562 10.3607 12.7188 10.5209 12.7188Z" fill="white" stroke="white" stroke-width="0.5"/>
<path d="M10.5209 15.0938H23.8126C23.9728 15.0938 24.1265 15.0312 24.2398 14.9198C24.3531 14.8085 24.4168 14.6575 24.4168 14.5C24.4168 14.3425 24.3531 14.1915 24.2398 14.0802C24.1265 13.9688 23.9728 13.9062 23.8126 13.9062H10.5209C10.3607 13.9062 10.207 13.9688 10.0937 14.0802C9.98043 14.1915 9.91678 14.3425 9.91678 14.5C9.91678 14.6575 9.98043 14.8085 10.0937 14.9198C10.207 15.0312 10.3607 15.0938 10.5209 15.0938Z" fill="white" stroke="white" stroke-width="0.5"/>
<path d="M10.5209 17.4688H17.1668C17.327 17.4688 17.4807 17.4062 17.594 17.2948C17.7073 17.1835 17.7709 17.0325 17.7709 16.875C17.7709 16.7175 17.7073 16.5665 17.594 16.4552C17.4807 16.3438 17.327 16.2812 17.1668 16.2812H10.5209C10.3607 16.2812 10.207 16.3438 10.0937 16.4552C9.98043 16.5665 9.91678 16.7175 9.91678 16.875C9.91678 17.0325 9.98043 17.1835 10.0937 17.2948C10.207 17.4062 10.3607 17.4688 10.5209 17.4688Z" fill="white" stroke="white" stroke-width="0.5"/>
<path d="M10.5209 19.8438H23.8126C23.9728 19.8438 24.1265 19.7812 24.2398 19.6698C24.3531 19.5585 24.4168 19.4075 24.4168 19.25C24.4168 19.0925 24.3531 18.9415 24.2398 18.8302C24.1265 18.7188 23.9728 18.6562 23.8126 18.6562H10.5209C10.3607 18.6562 10.207 18.7188 10.0937 18.8302C9.98043 18.9415 9.91678 19.0925 9.91678 19.25C9.91678 19.4075 9.98043 19.5585 10.0937 19.6698C10.207 19.7812 10.3607 19.8438 10.5209 19.8438Z" fill="white" stroke="white" stroke-width="0.5"/>
<path d="M10.5209 22.2188H17.1668C17.327 22.2188 17.4807 22.1562 17.594 22.0448C17.7073 21.9335 17.7709 21.7825 17.7709 21.625C17.7709 21.4675 17.7073 21.3165 17.594 21.2052C17.4807 21.0938 17.327 21.0312 17.1668 21.0312H10.5209C10.3607 21.0312 10.207 21.0938 10.0937 21.2052C9.98043 21.3165 9.91678 21.4675 9.91678 21.625C9.91678 21.7825 9.98043 21.9335 10.0937 22.0448C10.207 22.1562 10.3607 22.2188 10.5209 22.2188Z" fill="white" stroke="white" stroke-width="0.5"/>
<path d="M10.5209 24.5938H23.8126C23.9728 24.5938 24.1265 24.5312 24.2398 24.4198C24.3531 24.3085 24.4168 24.1575 24.4168 24C24.4168 23.8425 24.3531 23.6915 24.2398 23.5802C24.1265 23.4688 23.9728 23.4062 23.8126 23.4062H10.5209C10.3607 23.4062 10.207 23.4688 10.0937 23.5802C9.98043 23.6915 9.91678 23.8425 9.91678 24C9.91678 24.1575 9.98043 24.3085 10.0937 24.4198C10.207 24.5312 10.3607 24.5938 10.5209 24.5938Z" fill="white" stroke="white" stroke-width="0.5"/>
<path d="M10.5209 26.9688H17.1668C17.327 26.9688 17.4807 26.9062 17.594 26.7948C17.7073 26.6835 17.7709 26.5325 17.7709 26.375C17.7709 26.2175 17.7073 26.0665 17.594 25.9552C17.4807 25.8438 17.327 25.7812 17.1668 25.7812H10.5209C10.3607 25.7812 10.207 25.8438 10.0937 25.9552C9.98043 26.0665 9.91678 26.2175 9.91678 26.375C9.91678 26.5325 9.98043 26.6835 10.0937 26.7948C10.207 26.9062 10.3607 26.9688 10.5209 26.9688Z" fill="white" stroke="white" stroke-width="0.5"/>
<path d="M10.5209 29.3438H23.8126C23.9728 29.3438 24.1265 29.2812 24.2398 29.1698C24.3531 29.0585 24.4168 28.9075 24.4168 28.75C24.4168 28.5925 24.3531 28.4415 24.2398 28.3302C24.1265 28.2188 23.9728 28.1562 23.8126 28.1562H10.5209C10.3607 28.1562 10.207 28.2188 10.0937 28.3302C9.98043 28.4415 9.91678 28.5925 9.91678 28.75C9.91678 28.9075 9.98043 29.0585 10.0937 29.1698C10.207 29.2812 10.3607 29.3438 10.5209 29.3438Z" fill="white" stroke="white" stroke-width="0.5"/>
<path d="M10.5209 31.7188H17.1668C17.327 31.7188 17.4807 31.6562 17.594 31.5448C17.7073 31.4335 17.7709 31.2825 17.7709 31.125C17.7709 30.9675 17.7073 30.8165 17.594 30.7052C17.4807 30.5938 17.327 30.5312 17.1668 30.5312H10.5209C10.3607 30.5312 10.207 30.5938 10.0937 30.7052C9.98043 30.8165 9.91678 30.9675 9.91678 31.125C9.91678 31.2825 9.98043 31.4335 10.0937 31.5448C10.207 31.6562 10.3607 31.7188 10.5209 31.7188Z" fill="white" stroke="white" stroke-width="0.5"/>
<path d="M56.2306 11.5117H60.1212C62.629 11.5117 64.4923 11.8242 65.7111 12.4492C66.9298 13.0664 67.9337 14.0742 68.7228 15.4727C69.5118 16.8711 69.9064 18.5039 69.9064 20.3711C69.9064 21.6992 69.6837 22.9219 69.2384 24.0391C68.8009 25.1484 68.1915 26.0703 67.4103 26.8047C66.6368 27.5391 65.797 28.0469 64.8907 28.3281C63.9845 28.6094 62.4142 28.75 60.1798 28.75H56.2306V11.5117ZM59.5001 14.6758V25.5391H61.0236C62.5236 25.5391 63.6095 25.3672 64.2814 25.0234C64.9611 24.6797 65.5157 24.1016 65.9454 23.2891C66.3751 22.4766 66.59 21.4766 66.59 20.2891C66.59 18.4609 66.0782 17.043 65.0548 16.0352C64.1329 15.1289 62.6525 14.6758 60.6134 14.6758H59.5001ZM73.9259 10.75C74.4884 10.75 74.9689 10.9531 75.3673 11.3594C75.7736 11.7656 75.9767 12.2578 75.9767 12.8359C75.9767 13.4062 75.7775 13.8945 75.379 14.3008C74.9806 14.6992 74.504 14.8984 73.9493 14.8984C73.379 14.8984 72.8907 14.6953 72.4845 14.2891C72.0861 13.875 71.8868 13.375 71.8868 12.7891C71.8868 12.2266 72.0861 11.7461 72.4845 11.3477C72.8829 10.9492 73.3634 10.75 73.9259 10.75ZM72.3204 16H75.5314V28.75H72.3204V16ZM87.8595 16H91.047V26.9219C91.047 29.0781 90.6134 30.6641 89.7462 31.6797C88.5822 33.0547 86.8282 33.7422 84.4845 33.7422C83.2345 33.7422 82.1837 33.5859 81.3322 33.2734C80.4806 32.9609 79.7618 32.5 79.1759 31.8906C78.59 31.2891 78.1564 30.5547 77.8751 29.6875H81.4025C81.715 30.0469 82.1173 30.3164 82.6095 30.4961C83.1017 30.6836 83.6837 30.7773 84.3556 30.7773C85.215 30.7773 85.9064 30.6445 86.4298 30.3789C86.9532 30.1133 87.3204 29.7695 87.5314 29.3477C87.7501 28.9258 87.8595 28.1992 87.8595 27.168C87.297 27.7305 86.7072 28.1367 86.09 28.3867C85.4728 28.6289 84.7736 28.75 83.9923 28.75C82.2814 28.75 80.8361 28.1328 79.6564 26.8984C78.4767 25.6641 77.8868 24.1016 77.8868 22.2109C77.8868 20.1875 78.5118 18.5625 79.7618 17.3359C80.8947 16.2266 82.2462 15.6719 83.8165 15.6719C84.5509 15.6719 85.2423 15.8086 85.8907 16.082C86.547 16.3477 87.2032 16.7891 87.8595 17.4062V16ZM84.5431 18.6602C83.5353 18.6602 82.7032 19 82.047 19.6797C81.3907 20.3516 81.0626 21.1992 81.0626 22.2227C81.0626 23.2852 81.3986 24.1562 82.0704 24.8359C82.7423 25.5156 83.5861 25.8555 84.6017 25.8555C85.5939 25.8555 86.4103 25.5234 87.0509 24.8594C87.6993 24.1953 88.0236 23.3242 88.0236 22.2461C88.0236 21.1836 87.6993 20.3203 87.0509 19.6562C86.4025 18.9922 85.5665 18.6602 84.5431 18.6602ZM95.5353 10.75C96.0978 10.75 96.5782 10.9531 96.9767 11.3594C97.3829 11.7656 97.5861 12.2578 97.5861 12.8359C97.5861 13.4062 97.3868 13.8945 96.9884 14.3008C96.59 14.6992 96.1134 14.8984 95.5587 14.8984C94.9884 14.8984 94.5001 14.6953 94.0939 14.2891C93.6954 13.875 93.4962 13.375 93.4962 12.7891C93.4962 12.2266 93.6954 11.7461 94.0939 11.3477C94.4923 10.9492 94.9728 10.75 95.5353 10.75ZM93.9298 16H97.1407V28.75H93.9298V16ZM100.434 11.3008H103.621V16H105.52V18.7539H103.621V28.75H100.434V18.7539H98.7931V16H100.434V11.3008ZM116.664 16H119.852V28.75H116.664V27.4023C116.039 27.9961 115.41 28.4258 114.777 28.6914C114.152 28.9492 113.473 29.0781 112.738 29.0781C111.09 29.0781 109.664 28.4414 108.461 27.168C107.258 25.8867 106.656 24.2969 106.656 22.3984C106.656 20.4297 107.238 18.8164 108.402 17.5586C109.567 16.3008 110.981 15.6719 112.645 15.6719C113.41 15.6719 114.129 15.8164 114.801 16.1055C115.473 16.3945 116.094 16.8281 116.664 17.4062V16ZM113.301 18.625C112.309 18.625 111.484 18.9766 110.828 19.6797C110.172 20.375 109.844 21.2695 109.844 22.3633C109.844 23.4648 110.176 24.3711 110.84 25.082C111.512 25.793 112.336 26.1484 113.313 26.1484C114.32 26.1484 115.156 25.8008 115.82 25.1055C116.484 24.4023 116.817 23.4844 116.817 22.3516C116.817 21.2422 116.484 20.3438 115.82 19.6562C115.156 18.9688 114.317 18.625 113.301 18.625ZM122.746 11.0781H125.945V28.75H122.746V11.0781ZM136.152 11.5117H139.633C141.539 11.5117 142.895 11.6836 143.699 12.0273C144.512 12.3633 145.164 12.9258 145.656 13.7148C146.149 14.5039 146.395 15.4375 146.395 16.5156C146.395 17.6484 146.121 18.5977 145.574 19.3633C145.035 20.1211 144.219 20.6953 143.125 21.0859L147.203 28.75H143.617L139.738 21.4492H139.434V28.75H136.152V11.5117ZM139.434 18.25H140.465C141.512 18.25 142.231 18.1133 142.621 17.8398C143.02 17.5664 143.219 17.1133 143.219 16.4805C143.219 16.1055 143.121 15.7812 142.926 15.5078C142.731 15.2266 142.469 15.0273 142.141 14.9102C141.813 14.7852 141.211 14.7227 140.336 14.7227H139.434V18.25ZM162.274 23.3008H151.996C152.145 24.207 152.539 24.9297 153.18 25.4688C153.828 26 154.652 26.2656 155.652 26.2656C156.848 26.2656 157.875 25.8477 158.734 25.0117L161.43 26.2773C160.758 27.2305 159.953 27.9375 159.016 28.3984C158.078 28.8516 156.965 29.0781 155.676 29.0781C153.676 29.0781 152.047 28.4492 150.789 27.1914C149.531 25.9258 148.902 24.3438 148.902 22.4453C148.902 20.5 149.527 18.8867 150.777 17.6055C152.035 16.3164 153.609 15.6719 155.5 15.6719C157.508 15.6719 159.141 16.3164 160.399 17.6055C161.656 18.8867 162.285 20.582 162.285 22.6914L162.274 23.3008ZM159.063 20.7812C158.852 20.0703 158.434 19.4922 157.809 19.0469C157.192 18.6016 156.473 18.3789 155.652 18.3789C154.762 18.3789 153.981 18.6289 153.309 19.1289C152.887 19.4414 152.496 19.9922 152.137 20.7812H159.063ZM174.297 16H177.484V26.9219C177.484 29.0781 177.051 30.6641 176.184 31.6797C175.02 33.0547 173.266 33.7422 170.922 33.7422C169.672 33.7422 168.621 33.5859 167.77 33.2734C166.918 32.9609 166.199 32.5 165.613 31.8906C165.027 31.2891 164.594 30.5547 164.313 29.6875H167.84C168.152 30.0469 168.555 30.3164 169.047 30.4961C169.539 30.6836 170.121 30.7773 170.793 30.7773C171.652 30.7773 172.344 30.6445 172.867 30.3789C173.391 30.1133 173.758 29.7695 173.969 29.3477C174.188 28.9258 174.297 28.1992 174.297 27.168C173.734 27.7305 173.145 28.1367 172.527 28.3867C171.91 28.6289 171.211 28.75 170.43 28.75C168.719 28.75 167.274 28.1328 166.094 26.8984C164.914 25.6641 164.324 24.1016 164.324 22.2109C164.324 20.1875 164.949 18.5625 166.199 17.3359C167.332 16.2266 168.684 15.6719 170.254 15.6719C170.988 15.6719 171.68 15.8086 172.328 16.082C172.984 16.3477 173.641 16.7891 174.297 17.4062V16ZM170.981 18.6602C169.973 18.6602 169.141 19 168.484 19.6797C167.828 20.3516 167.5 21.1992 167.5 22.2227C167.5 23.2852 167.836 24.1562 168.508 24.8359C169.18 25.5156 170.024 25.8555 171.039 25.8555C172.031 25.8555 172.848 25.5234 173.488 24.8594C174.137 24.1953 174.461 23.3242 174.461 22.2461C174.461 21.1836 174.137 20.3203 173.488 19.6562C172.84 18.9922 172.004 18.6602 170.981 18.6602ZM181.973 10.75C182.535 10.75 183.016 10.9531 183.414 11.3594C183.82 11.7656 184.024 12.2578 184.024 12.8359C184.024 13.4062 183.824 13.8945 183.426 14.3008C183.027 14.6992 182.551 14.8984 181.996 14.8984C181.426 14.8984 180.938 14.6953 180.531 14.2891C180.133 13.875 179.934 13.375 179.934 12.7891C179.934 12.2266 180.133 11.7461 180.531 11.3477C180.93 10.9492 181.41 10.75 181.973 10.75ZM180.367 16H183.578V28.75H180.367V16ZM194.289 17.7812L192.309 19.7617C191.504 18.9648 190.774 18.5664 190.117 18.5664C189.758 18.5664 189.477 18.6445 189.274 18.8008C189.07 18.9492 188.969 19.1367 188.969 19.3633C188.969 19.5352 189.031 19.6953 189.156 19.8438C189.289 19.9844 189.609 20.1797 190.117 20.4297L191.289 21.0156C192.524 21.625 193.371 22.2461 193.832 22.8789C194.293 23.5117 194.524 24.2539 194.524 25.1055C194.524 26.2383 194.106 27.1836 193.27 27.9414C192.442 28.6992 191.328 29.0781 189.93 29.0781C188.07 29.0781 186.586 28.3516 185.477 26.8984L187.445 24.7539C187.82 25.1914 188.258 25.5469 188.758 25.8203C189.266 26.0859 189.715 26.2188 190.106 26.2188C190.527 26.2188 190.867 26.1172 191.125 25.9141C191.383 25.7109 191.512 25.4766 191.512 25.2109C191.512 24.7188 191.047 24.2383 190.117 23.7695L189.039 23.2305C186.977 22.1914 185.945 20.8906 185.945 19.3281C185.945 18.3203 186.332 17.4609 187.106 16.75C187.887 16.0312 188.883 15.6719 190.094 15.6719C190.922 15.6719 191.699 15.8555 192.426 16.2227C193.16 16.582 193.781 17.1016 194.289 17.7812ZM197.442 11.3008H200.629V16H202.527V18.7539H200.629V28.75H197.442V18.7539H195.801V16H197.442V11.3008ZM217.024 23.3008H206.746C206.895 24.207 207.289 24.9297 207.93 25.4688C208.578 26 209.402 26.2656 210.402 26.2656C211.598 26.2656 212.625 25.8477 213.484 25.0117L216.18 26.2773C215.508 27.2305 214.703 27.9375 213.766 28.3984C212.828 28.8516 211.715 29.0781 210.426 29.0781C208.426 29.0781 206.797 28.4492 205.539 27.1914C204.281 25.9258 203.652 24.3438 203.652 22.4453C203.652 20.5 204.277 18.8867 205.527 17.6055C206.785 16.3164 208.359 15.6719 210.25 15.6719C212.258 15.6719 213.891 16.3164 215.149 17.6055C216.406 18.8867 217.035 20.582 217.035 22.6914L217.024 23.3008ZM213.813 20.7812C213.602 20.0703 213.184 19.4922 212.559 19.0469C211.942 18.6016 211.223 18.3789 210.402 18.3789C209.512 18.3789 208.731 18.6289 208.059 19.1289C207.637 19.4414 207.246 19.9922 206.887 20.7812H213.813ZM218.875 16H221.617V17.6055C221.914 16.9727 222.309 16.4922 222.801 16.1641C223.293 15.8359 223.832 15.6719 224.418 15.6719C224.832 15.6719 225.266 15.7812 225.719 16L224.723 18.7539C224.348 18.5664 224.039 18.4727 223.797 18.4727C223.305 18.4727 222.887 18.7773 222.543 19.3867C222.207 19.9961 222.039 21.1914 222.039 22.9727L222.051 23.5938V28.75H218.875V16Z" fill="white"/>
</svg>
