<svg width="30" height="39" viewBox="0 0 30 39" fill="none" xmlns="http://www.w3.org/2000/svg">
<path d="M11.7293 3.8125H17.771C17.9312 3.8125 18.0849 3.74994 18.1982 3.63859C18.3115 3.52724 18.3751 3.37622 18.3751 3.21875C18.3751 3.06128 18.3115 2.91026 18.1982 2.79891C18.0849 2.68756 17.9312 2.625 17.771 2.625H11.7293C11.5691 2.625 11.4154 2.68756 11.3021 2.79891C11.1888 2.91026 11.1251 3.06128 11.1251 3.21875C11.1251 3.37622 11.1888 3.52724 11.3021 3.63859C11.4154 3.74994 11.5691 3.8125 11.7293 3.8125Z" fill="white" stroke="white" stroke-width="0.5"/>
<path d="M26.2292 2.625H21.1652L20.1238 0.578166C20.0736 0.479543 19.9964 0.396604 19.901 0.338643C19.8055 0.280681 19.6955 0.249987 19.5833 0.25H9.91667C9.80446 0.249987 9.69447 0.280681 9.59902 0.338643C9.50357 0.396604 9.42643 0.479543 9.37624 0.578166L8.33484 2.625H3.27083C2.46995 2.62593 1.70214 2.939 1.13582 3.49555C0.569512 4.0521 0.250943 4.80667 0.25 5.59375V35.2812C0.250943 36.0683 0.569512 36.8229 1.13582 37.3794C1.70214 37.936 2.46995 38.2491 3.27083 38.25H26.2292C27.0301 38.2491 27.7979 37.936 28.3642 37.3794C28.9305 36.8229 29.2491 36.0683 29.25 35.2812V5.59375C29.2491 4.80667 28.9305 4.0521 28.3642 3.49555C27.7979 2.939 27.0301 2.62593 26.2292 2.625ZM8.70833 3.8125C8.82054 3.81251 8.93053 3.78182 9.02598 3.72386C9.12143 3.6659 9.19857 3.58296 9.24876 3.48433L10.2902 1.4375H19.2098L20.2512 3.48433C20.3014 3.58296 20.3786 3.6659 20.474 3.72386C20.5695 3.78182 20.6795 3.81251 20.7917 3.8125H23.2083V5H6.29167V3.8125H8.70833ZM5.6875 6.1875H23.8125C23.9727 6.1875 24.1264 6.12494 24.2397 6.01359C24.353 5.90225 24.4167 5.75122 24.4167 5.59375V3.8125H25.625V34.6875H3.875V3.8125H5.08333V5.59375C5.08333 5.75122 5.14699 5.90225 5.26029 6.01359C5.37359 6.12494 5.52727 6.1875 5.6875 6.1875ZM28.0417 35.2812C28.0411 35.7535 27.85 36.2063 27.5102 36.5402C27.1704 36.8741 26.7097 37.062 26.2292 37.0625H3.27083C2.79029 37.062 2.32958 36.8741 1.98979 36.5402C1.64999 36.2063 1.45886 35.7535 1.45833 35.2812V5.59375C1.45948 5.22658 1.57624 4.86877 1.7926 4.56943C2.00895 4.27009 2.31428 4.04391 2.66667 3.92193V35.2812C2.66667 35.4387 2.73032 35.5897 2.84362 35.7011C2.95693 35.8124 3.1106 35.875 3.27083 35.875H26.2292C26.3894 35.875 26.5431 35.8124 26.6564 35.7011C26.7697 35.5897 26.8333 35.4387 26.8333 35.2812V3.92193C27.1857 4.04391 27.4911 4.27009 27.7074 4.56943C27.9238 4.86877 28.0405 5.22658 28.0417 5.59375V35.2812Z" fill="white" stroke="white" stroke-width="0.5"/>
<path d="M8.10409 18.6562H5.68742C5.52718 18.6562 5.37351 18.7188 5.26021 18.8302C5.1469 18.9415 5.08325 19.0925 5.08325 19.25V21.625C5.08325 21.7825 5.1469 21.9335 5.26021 22.0448C5.37351 22.1562 5.52718 22.2188 5.68742 22.2188H8.10409C8.26432 22.2188 8.41799 22.1562 8.5313 22.0448C8.6446 21.9335 8.70825 21.7825 8.70825 21.625V19.25C8.70825 19.0925 8.6446 18.9415 8.5313 18.8302C8.41799 18.7188 8.26432 18.6562 8.10409 18.6562ZM7.49992 21.0312H6.29159V19.8438H7.49992V21.0312Z" fill="white" stroke="white" stroke-width="0.5"/>
<path d="M8.10409 23.4062H5.68742C5.52718 23.4062 5.37351 23.4688 5.26021 23.5802C5.1469 23.6915 5.08325 23.8425 5.08325 24V26.375C5.08325 26.5325 5.1469 26.6835 5.26021 26.7948C5.37351 26.9062 5.52718 26.9688 5.68742 26.9688H8.10409C8.26432 26.9688 8.41799 26.9062 8.5313 26.7948C8.6446 26.6835 8.70825 26.5325 8.70825 26.375V24C8.70825 23.8425 8.6446 23.6915 8.5313 23.5802C8.41799 23.4688 8.26432 23.4062 8.10409 23.4062ZM7.49992 25.7812H6.29159V24.5938H7.49992V25.7812Z" fill="white" stroke="white" stroke-width="0.5"/>
<path d="M8.10409 28.1562H5.68742C5.52718 28.1562 5.37351 28.2188 5.26021 28.3302C5.1469 28.4415 5.08325 28.5925 5.08325 28.75V31.125C5.08325 31.2825 5.1469 31.4335 5.26021 31.5448C5.37351 31.6562 5.52718 31.7188 5.68742 31.7188H8.10409C8.26432 31.7188 8.41799 31.6562 8.5313 31.5448C8.6446 31.4335 8.70825 31.2825 8.70825 31.125V28.75C8.70825 28.5925 8.6446 28.4415 8.5313 28.3302C8.41799 28.2188 8.26432 28.1562 8.10409 28.1562ZM7.49992 30.5312H6.29159V29.3438H7.49992V30.5312Z" fill="white" stroke="white" stroke-width="0.5"/>
<path d="M8.10409 13.9062H5.68742C5.52718 13.9062 5.37351 13.9688 5.26021 14.0802C5.1469 14.1915 5.08325 14.3425 5.08325 14.5V16.875C5.08325 17.0325 5.1469 17.1835 5.26021 17.2948C5.37351 17.4062 5.52718 17.4688 5.68742 17.4688H8.10409C8.26432 17.4688 8.41799 17.4062 8.5313 17.2948C8.6446 17.1835 8.70825 17.0325 8.70825 16.875V14.5C8.70825 14.3425 8.6446 14.1915 8.5313 14.0802C8.41799 13.9688 8.26432 13.9062 8.10409 13.9062ZM7.49992 16.2812H6.29159V15.0938H7.49992V16.2812Z" fill="white" stroke="white" stroke-width="0.5"/>
<path d="M5.08325 12.125C5.08325 12.2825 5.1469 12.4335 5.26021 12.5448C5.37351 12.6562 5.52718 12.7188 5.68742 12.7188H8.10409C8.26432 12.7188 8.41799 12.6562 8.5313 12.5448C8.6446 12.4335 8.70825 12.2825 8.70825 12.125V9.75C8.70825 9.59253 8.6446 9.44151 8.5313 9.33016C8.41799 9.21881 8.26432 9.15625 8.10409 9.15625H5.68742C5.52718 9.15625 5.37351 9.21881 5.26021 9.33016C5.1469 9.44151 5.08325 9.59253 5.08325 9.75V12.125ZM6.29159 10.3438H7.49992V11.5312H6.29159V10.3438Z" fill="white" stroke="white" stroke-width="0.5"/>
<path d="M10.5209 10.3438H23.8126C23.9728 10.3438 24.1265 10.2812 24.2398 10.1698C24.3531 10.0585 24.4167 9.90747 24.4167 9.75C24.4167 9.59253 24.3531 9.44151 24.2398 9.33016C24.1265 9.21881 23.9728 9.15625 23.8126 9.15625H10.5209C10.3607 9.15625 10.207 9.21881 10.0937 9.33016C9.9804 9.44151 9.91675 9.59253 9.91675 9.75C9.91675 9.90747 9.9804 10.0585 10.0937 10.1698C10.207 10.2812 10.3607 10.3438 10.5209 10.3438Z" fill="white" stroke="white" stroke-width="0.5"/>
<path d="M10.5209 12.7188H17.1667C17.327 12.7188 17.4807 12.6562 17.594 12.5448C17.7073 12.4335 17.7709 12.2825 17.7709 12.125C17.7709 11.9675 17.7073 11.8165 17.594 11.7052C17.4807 11.5938 17.327 11.5312 17.1667 11.5312H10.5209C10.3607 11.5312 10.207 11.5938 10.0937 11.7052C9.9804 11.8165 9.91675 11.9675 9.91675 12.125C9.91675 12.2825 9.9804 12.4335 10.0937 12.5448C10.207 12.6562 10.3607 12.7188 10.5209 12.7188Z" fill="white" stroke="white" stroke-width="0.5"/>
<path d="M10.5209 15.0938H23.8126C23.9728 15.0938 24.1265 15.0312 24.2398 14.9198C24.3531 14.8085 24.4167 14.6575 24.4167 14.5C24.4167 14.3425 24.3531 14.1915 24.2398 14.0802C24.1265 13.9688 23.9728 13.9062 23.8126 13.9062H10.5209C10.3607 13.9062 10.207 13.9688 10.0937 14.0802C9.9804 14.1915 9.91675 14.3425 9.91675 14.5C9.91675 14.6575 9.9804 14.8085 10.0937 14.9198C10.207 15.0312 10.3607 15.0938 10.5209 15.0938Z" fill="white" stroke="white" stroke-width="0.5"/>
<path d="M10.5209 17.4688H17.1667C17.327 17.4688 17.4807 17.4062 17.594 17.2948C17.7073 17.1835 17.7709 17.0325 17.7709 16.875C17.7709 16.7175 17.7073 16.5665 17.594 16.4552C17.4807 16.3438 17.327 16.2812 17.1667 16.2812H10.5209C10.3607 16.2812 10.207 16.3438 10.0937 16.4552C9.9804 16.5665 9.91675 16.7175 9.91675 16.875C9.91675 17.0325 9.9804 17.1835 10.0937 17.2948C10.207 17.4062 10.3607 17.4688 10.5209 17.4688Z" fill="white" stroke="white" stroke-width="0.5"/>
<path d="M10.5209 19.8438H23.8126C23.9728 19.8438 24.1265 19.7812 24.2398 19.6698C24.3531 19.5585 24.4167 19.4075 24.4167 19.25C24.4167 19.0925 24.3531 18.9415 24.2398 18.8302C24.1265 18.7188 23.9728 18.6562 23.8126 18.6562H10.5209C10.3607 18.6562 10.207 18.7188 10.0937 18.8302C9.9804 18.9415 9.91675 19.0925 9.91675 19.25C9.91675 19.4075 9.9804 19.5585 10.0937 19.6698C10.207 19.7812 10.3607 19.8438 10.5209 19.8438Z" fill="white" stroke="white" stroke-width="0.5"/>
<path d="M10.5209 22.2188H17.1667C17.327 22.2188 17.4807 22.1562 17.594 22.0448C17.7073 21.9335 17.7709 21.7825 17.7709 21.625C17.7709 21.4675 17.7073 21.3165 17.594 21.2052C17.4807 21.0938 17.327 21.0312 17.1667 21.0312H10.5209C10.3607 21.0312 10.207 21.0938 10.0937 21.2052C9.9804 21.3165 9.91675 21.4675 9.91675 21.625C9.91675 21.7825 9.9804 21.9335 10.0937 22.0448C10.207 22.1562 10.3607 22.2188 10.5209 22.2188Z" fill="white" stroke="white" stroke-width="0.5"/>
<path d="M10.5209 24.5938H23.8126C23.9728 24.5938 24.1265 24.5312 24.2398 24.4198C24.3531 24.3085 24.4167 24.1575 24.4167 24C24.4167 23.8425 24.3531 23.6915 24.2398 23.5802C24.1265 23.4688 23.9728 23.4062 23.8126 23.4062H10.5209C10.3607 23.4062 10.207 23.4688 10.0937 23.5802C9.9804 23.6915 9.91675 23.8425 9.91675 24C9.91675 24.1575 9.9804 24.3085 10.0937 24.4198C10.207 24.5312 10.3607 24.5938 10.5209 24.5938Z" fill="white" stroke="white" stroke-width="0.5"/>
<path d="M10.5209 26.9688H17.1667C17.327 26.9688 17.4807 26.9062 17.594 26.7948C17.7073 26.6835 17.7709 26.5325 17.7709 26.375C17.7709 26.2175 17.7073 26.0665 17.594 25.9552C17.4807 25.8438 17.327 25.7812 17.1667 25.7812H10.5209C10.3607 25.7812 10.207 25.8438 10.0937 25.9552C9.9804 26.0665 9.91675 26.2175 9.91675 26.375C9.91675 26.5325 9.9804 26.6835 10.0937 26.7948C10.207 26.9062 10.3607 26.9688 10.5209 26.9688Z" fill="white" stroke="white" stroke-width="0.5"/>
<path d="M10.5209 29.3438H23.8126C23.9728 29.3438 24.1265 29.2812 24.2398 29.1698C24.3531 29.0585 24.4167 28.9075 24.4167 28.75C24.4167 28.5925 24.3531 28.4415 24.2398 28.3302C24.1265 28.2188 23.9728 28.1562 23.8126 28.1562H10.5209C10.3607 28.1562 10.207 28.2188 10.0937 28.3302C9.9804 28.4415 9.91675 28.5925 9.91675 28.75C9.91675 28.9075 9.9804 29.0585 10.0937 29.1698C10.207 29.2812 10.3607 29.3438 10.5209 29.3438Z" fill="white" stroke="white" stroke-width="0.5"/>
<path d="M10.5209 31.7188H17.1667C17.327 31.7188 17.4807 31.6562 17.594 31.5448C17.7073 31.4335 17.7709 31.2825 17.7709 31.125C17.7709 30.9675 17.7073 30.8165 17.594 30.7052C17.4807 30.5938 17.327 30.5312 17.1667 30.5312H10.5209C10.3607 30.5312 10.207 30.5938 10.0937 30.7052C9.9804 30.8165 9.91675 30.9675 9.91675 31.125C9.91675 31.2825 9.9804 31.4335 10.0937 31.5448C10.207 31.6562 10.3607 31.7188 10.5209 31.7188Z" fill="white" stroke="white" stroke-width="0.5"/>
</svg>
