<svg width="24" height="22" viewBox="0 0 24 22" fill="none" xmlns="http://www.w3.org/2000/svg">
<path d="M4.13379 14.586V17.9599C5.13802 19.2238 6.40401 20.2421 7.83974 20.941C9.27547 21.6398 10.8449 22.0016 12.4339 22C16.1415 22 19.4101 20.0675 21.3342 17.131V12.4018C20.6757 16.8397 16.9415 20.24 12.4339 20.24C8.70056 20.24 5.49799 17.908 4.13379 14.586ZM19.7479 5.61089V4.09553C19.7454 3.76132 19.7988 3.42914 19.9057 3.11345C17.9071 1.11369 15.2252 -0.00383286 12.4339 1.2079e-05C9.93602 -0.00379295 7.51594 0.891484 5.59488 2.53001L5.59917 2.58369L5.60003 2.60745V4.98345C6.44444 3.97118 7.49264 3.15883 8.67241 2.60234C9.85219 2.04586 11.1355 1.75848 12.4339 1.76001C15.447 1.76001 18.1136 3.27889 19.7479 5.61089Z" fill="white"/>
<path d="M19.2926 10.9996C19.2926 12.8667 18.5699 14.6574 17.2835 15.9777C15.9971 17.2979 14.2523 18.0396 12.433 18.0396C10.6137 18.0396 8.86897 17.2979 7.58255 15.9777C6.29612 14.6574 5.57342 12.8667 5.57342 10.9996C5.57342 9.1325 6.29612 7.34185 7.58255 6.0216C8.86897 4.70134 10.6137 3.95963 12.433 3.95963C14.2523 3.95963 15.9971 4.70134 17.2835 6.0216C18.5699 7.34185 19.2926 9.1325 19.2926 10.9996ZM12.433 17.1596C13.2212 17.1596 14.0017 17.0003 14.7299 16.6907C15.4581 16.3812 16.1198 15.9274 16.6772 15.3554C17.2345 14.7834 17.6766 14.1043 17.9783 13.357C18.2799 12.6096 18.4352 11.8086 18.4352 10.9996C18.4352 10.1907 18.2799 9.38966 17.9783 8.6423C17.6766 7.89493 17.2345 7.21586 16.6772 6.64385C16.1198 6.07184 15.4581 5.6181 14.7299 5.30853C14.0017 4.99896 13.2212 4.83963 12.433 4.83963C10.8411 4.83963 9.31448 5.48863 8.18886 6.64385C7.06324 7.79908 6.43087 9.36589 6.43087 10.9996C6.43087 12.6334 7.06324 14.2002 8.18886 15.3554C9.31448 16.5106 10.8411 17.1596 12.433 17.1596ZM24 3.46683C24 2.67483 23.3741 2.03243 22.6024 2.03243C21.4877 2.03243 20.5959 2.95643 20.6045 4.09163V8.97563C20.6045 10.0783 21.227 11.0656 22.1908 11.5127V19.0956C22.1908 19.5532 22.5509 19.9228 22.9968 19.9228H23.194C23.6399 19.9228 24 19.5532 24 19.0956V3.46683ZM4.13291 2.03243C3.97827 2.03243 3.82996 2.09548 3.72062 2.2077C3.61127 2.31992 3.54984 2.47213 3.54984 2.63083V4.99803C3.54984 5.17403 3.41265 5.30603 3.24973 5.30603C3.07824 5.30603 2.94963 5.16523 2.94963 4.99803V2.65723C2.94963 2.33163 2.70096 2.04123 2.38371 2.03243C2.0493 2.02363 1.77492 2.29643 1.77492 2.63083V4.99803C1.77492 5.17403 1.63773 5.30603 1.47481 5.30603C1.30332 5.30603 1.17471 5.16523 1.17471 4.99803V2.65723C1.17471 2.33163 0.926045 2.04123 0.608789 2.03243C0.274384 2.02363 0 2.29643 0 2.63083V6.66123C0 7.45499 0.374705 8.16339 0.950911 8.60515C1.46624 8.90347 1.46624 10.2692 1.46624 10.2692V19.0868C1.46624 19.5444 1.82637 19.914 2.27224 19.914H2.46945C2.91533 19.914 3.27546 19.5444 3.27546 19.0868V10.2692C3.27546 10.2692 3.27546 8.95715 3.79078 8.60515C4.08575 8.37943 4.32531 8.08616 4.4904 7.74868C4.65548 7.41121 4.74153 7.03885 4.74169 6.66123V2.63083C4.73301 2.47048 4.66532 2.31949 4.5523 2.2084C4.43929 2.09731 4.28938 2.03442 4.13291 2.03243Z" fill="white"/>
</svg>
