<svg width="39" height="32" viewBox="0 0 39 32" fill="none" xmlns="http://www.w3.org/2000/svg">
<path d="M35.1496 0.25H3.35042C2.52842 0.250926 1.74035 0.577829 1.15911 1.15899C0.577873 1.74015 0.250926 2.52811 0.25 3.35V27.8321C0.25101 28.7382 0.611487 29.607 1.25234 30.2478C1.8932 30.8886 2.7621 31.249 3.66841 31.25H34.8316C35.7379 31.249 36.6068 30.8886 37.2477 30.2478C37.8885 29.607 38.249 28.7382 38.25 27.8321V3.35C38.2491 2.52811 37.9221 1.74015 37.3409 1.15899C36.7596 0.577829 35.9716 0.250926 35.1496 0.25ZM37.137 3.35V7.06459H15.7165L18.4137 1.36282H35.1496C35.6765 1.36341 36.1817 1.57296 36.5543 1.9455C36.9269 2.31804 37.1364 2.82315 37.137 3.35ZM3.35042 1.36282H17.1831L14.4852 7.06459H1.36297V3.35C1.36356 2.82315 1.57314 2.31804 1.94573 1.9455C2.31832 1.57296 2.8235 1.36341 3.35042 1.36282ZM34.8316 30.1372H3.66841C3.05718 30.1365 2.47117 29.8934 2.03896 29.4613C1.60675 29.0291 1.36364 28.4432 1.36297 27.8321V8.17742H37.137V27.8321C37.1364 28.4432 36.8932 29.0291 36.461 29.4613C36.0288 29.8934 35.4428 30.1365 34.8316 30.1372Z" fill="white" stroke="white" stroke-width="0.5"/>
<path d="M5.7574 6.04215C6.11899 6.04215 6.47245 5.93493 6.7731 5.73405C7.07375 5.53316 7.30807 5.24763 7.44645 4.91357C7.58482 4.57951 7.62102 4.21192 7.55048 3.85728C7.47994 3.50265 7.30582 3.17689 7.05014 2.92121C6.79446 2.66553 6.46871 2.49141 6.11407 2.42087C5.75943 2.35033 5.39184 2.38653 5.05778 2.52491C4.72372 2.66328 4.43819 2.8976 4.23731 3.19825C4.03642 3.4989 3.9292 3.85236 3.9292 4.21395C3.9297 4.69866 4.12248 5.16338 4.46523 5.50613C4.80797 5.84887 5.27269 6.04165 5.7574 6.04215ZM5.7574 3.49856C5.89889 3.49856 6.03721 3.54052 6.15485 3.61913C6.2725 3.69774 6.36419 3.80946 6.41833 3.94018C6.47248 4.0709 6.48665 4.21474 6.45904 4.35351C6.43144 4.49228 6.36331 4.61975 6.26326 4.7198C6.16321 4.81985 6.03574 4.88798 5.89697 4.91559C5.7582 4.94319 5.61436 4.92902 5.48364 4.87488C5.35292 4.82073 5.24119 4.72904 5.16258 4.61139C5.08398 4.49375 5.04202 4.35544 5.04202 4.21395C5.04227 4.02429 5.11772 3.84248 5.25183 3.70837C5.38594 3.57427 5.56775 3.49882 5.7574 3.49856Z" fill="white" stroke="white" stroke-width="0.5"/>
<path d="M10.8631 6.04215C11.2247 6.04215 11.5782 5.93493 11.8788 5.73405C12.1795 5.53316 12.4138 5.24763 12.5522 4.91357C12.6905 4.57951 12.7267 4.21192 12.6562 3.85728C12.5857 3.50265 12.4115 3.17689 12.1559 2.92121C11.9002 2.66553 11.5744 2.49141 11.2198 2.42087C10.8651 2.35033 10.4976 2.38653 10.1635 2.52491C9.82943 2.66328 9.54391 2.8976 9.34302 3.19825C9.14213 3.4989 9.03491 3.85236 9.03491 4.21395C9.03542 4.69866 9.22819 5.16338 9.57094 5.50613C9.91368 5.84887 10.3784 6.04165 10.8631 6.04215ZM10.8631 3.49856C11.0046 3.49856 11.1429 3.54052 11.2606 3.61913C11.3782 3.69774 11.4699 3.80946 11.524 3.94018C11.5782 4.0709 11.5924 4.21474 11.5648 4.35351C11.5372 4.49228 11.469 4.61975 11.369 4.7198C11.2689 4.81985 11.1415 4.88798 11.0027 4.91559C10.8639 4.94319 10.7201 4.92902 10.5894 4.87488C10.4586 4.82073 10.3469 4.72904 10.2683 4.61139C10.1897 4.49375 10.1477 4.35544 10.1477 4.21395C10.148 4.02429 10.2234 3.84248 10.3575 3.70837C10.4916 3.57427 10.6735 3.49882 10.8631 3.49856Z" fill="white" stroke="white" stroke-width="0.5"/>
<path d="M20.37 4.77005H34.5985C34.7461 4.77005 34.8876 4.71143 34.992 4.60708C35.0964 4.50273 35.155 4.36121 35.155 4.21364C35.155 4.06607 35.0964 3.92454 34.992 3.8202C34.8876 3.71585 34.7461 3.65723 34.5985 3.65723H20.37C20.2224 3.65723 20.0808 3.71585 19.9765 3.8202C19.8721 3.92454 19.8135 4.06607 19.8135 4.21364C19.8135 4.36121 19.8721 4.50273 19.9765 4.60708C20.0808 4.71143 20.2224 4.77005 20.37 4.77005Z" fill="white" stroke="white" stroke-width="0.5"/>
<path d="M15.3913 11.606H4.60116C4.52807 11.6059 4.45569 11.6203 4.38816 11.6482C4.32062 11.6762 4.25926 11.7172 4.20758 11.7688C4.15589 11.8205 4.1149 11.8819 4.08695 11.9494C4.059 12.0169 4.04464 12.0893 4.04468 12.1624V26.1521C4.04464 26.2252 4.059 26.2976 4.08695 26.3651C4.1149 26.4326 4.15589 26.494 4.20758 26.5456C4.25926 26.5973 4.32062 26.6383 4.38816 26.6663C4.45569 26.6942 4.52807 26.7086 4.60116 26.7085H15.3913C15.4643 26.7086 15.5367 26.6942 15.6043 26.6663C15.6718 26.6383 15.7332 26.5973 15.7848 26.5456C15.8365 26.494 15.8775 26.4326 15.9055 26.3651C15.9334 26.2976 15.9478 26.2252 15.9477 26.1521V12.1624C15.9478 12.0893 15.9334 12.0169 15.9055 11.9494C15.8775 11.8819 15.8365 11.8205 15.7848 11.7688C15.7332 11.7172 15.6718 11.6762 15.6043 11.6482C15.5367 11.6203 15.4643 11.6059 15.3913 11.606ZM14.8348 25.5957H5.15765V12.7188H14.8348V25.5957Z" fill="white" stroke="white" stroke-width="0.5"/>
<path d="M33.8988 11.606H19.2498C19.1023 11.606 18.9607 11.6646 18.8563 11.7689C18.752 11.8733 18.6934 12.0148 18.6934 12.1624V15.6598C18.6934 15.8074 18.752 15.9489 18.8563 16.0532C18.9607 16.1576 19.1023 16.2162 19.2498 16.2162H33.8988C33.9719 16.2163 34.0442 16.2019 34.1118 16.1739C34.1793 16.146 34.2407 16.105 34.2924 16.0533C34.344 16.0017 34.385 15.9403 34.413 15.8728C34.4409 15.8053 34.4553 15.7329 34.4552 15.6598V12.1624C34.4553 12.0893 34.4409 12.0169 34.413 11.9494C34.385 11.8819 34.344 11.8205 34.2924 11.7688C34.2407 11.7172 34.1793 11.6762 34.1118 11.6482C34.0442 11.6203 33.9719 11.6059 33.8988 11.606ZM33.3423 15.1034H19.8063V12.7188H33.3423V15.1034Z" fill="white" stroke="white" stroke-width="0.5"/>
<path d="M33.8988 18.6011H19.2498C19.1023 18.6011 18.9607 18.6597 18.8563 18.764C18.752 18.8684 18.6934 19.0099 18.6934 19.1575C18.6934 19.3051 18.752 19.4466 18.8563 19.5509C18.9607 19.6553 19.1023 19.7139 19.2498 19.7139H33.8988C34.0464 19.7139 34.1879 19.6553 34.2923 19.5509C34.3966 19.4466 34.4552 19.3051 34.4552 19.1575C34.4552 19.0099 34.3966 18.8684 34.2923 18.764C34.1879 18.6597 34.0464 18.6011 33.8988 18.6011Z" fill="white" stroke="white" stroke-width="0.5"/>
<path d="M33.8988 22.0986H19.2498C19.1023 22.0986 18.9607 22.1573 18.8563 22.2616C18.752 22.3659 18.6934 22.5075 18.6934 22.655C18.6934 22.8026 18.752 22.9441 18.8563 23.0485C18.9607 23.1528 19.1023 23.2115 19.2498 23.2115H33.8988C34.0464 23.2115 34.1879 23.1528 34.2923 23.0485C34.3966 22.9441 34.4552 22.8026 34.4552 22.655C34.4552 22.5075 34.3966 22.3659 34.2923 22.2616C34.1879 22.1573 34.0464 22.0986 33.8988 22.0986Z" fill="white" stroke="white" stroke-width="0.5"/>
<path d="M33.8988 25.5957H19.2498C19.1023 25.5957 18.9607 25.6543 18.8563 25.7587C18.752 25.863 18.6934 26.0045 18.6934 26.1521C18.6934 26.2997 18.752 26.4412 18.8563 26.5456C18.9607 26.6499 19.1023 26.7085 19.2498 26.7085H33.8988C34.0464 26.7085 34.1879 26.6499 34.2923 26.5456C34.3966 26.4412 34.4552 26.2997 34.4552 26.1521C34.4552 26.0045 34.3966 25.863 34.2923 25.7587C34.1879 25.6543 34.0464 25.5957 33.8988 25.5957Z" fill="white" stroke="white" stroke-width="0.5"/>
<path d="M9.99612 19.7138C10.8148 19.7138 11.5064 20.2034 11.5064 20.7827C11.5064 21.362 10.8148 21.8517 9.99612 21.8517C9.71761 21.8681 9.43969 21.8109 9.19027 21.6859C8.94086 21.5609 8.72873 21.3724 8.57521 21.1394C8.54244 21.0731 8.49678 21.014 8.4409 20.9656C8.38502 20.9171 8.32004 20.8803 8.24976 20.8573C8.17948 20.8342 8.10531 20.8254 8.03159 20.8314C7.95787 20.8373 7.88607 20.8579 7.8204 20.892C7.75473 20.926 7.69651 20.9728 7.64913 21.0296C7.60175 21.0864 7.56618 21.152 7.54448 21.2227C7.52278 21.2934 7.51539 21.3678 7.52275 21.4414C7.53011 21.5149 7.55207 21.5863 7.58734 21.6513C7.78034 21.9879 8.04743 22.2761 8.36838 22.4941C8.68933 22.7121 9.0557 22.8541 9.43971 22.9095V23.6668C9.43971 23.8144 9.49834 23.9559 9.60268 24.0603C9.70703 24.1646 9.84856 24.2232 9.99612 24.2232C10.1437 24.2232 10.2852 24.1646 10.3896 24.0603C10.4939 23.9559 10.5525 23.8144 10.5525 23.6668V22.9142C11.7321 22.7012 12.6192 21.8269 12.6192 20.784C12.6192 19.5809 11.4428 18.6022 9.99612 18.6022C9.17741 18.6022 8.48587 18.1126 8.48587 17.533C8.48587 16.9533 9.17741 16.464 9.99612 16.464C10.2722 16.4487 10.5475 16.505 10.7953 16.6276C11.0431 16.7502 11.255 16.9348 11.4104 17.1635C11.4803 17.2935 11.5989 17.3904 11.7403 17.4329C11.8816 17.4753 12.0341 17.4599 12.1641 17.39C12.294 17.3201 12.3909 17.2015 12.4334 17.0601C12.4759 16.9188 12.4605 16.7663 12.3906 16.6363C12.195 16.3075 11.9285 16.0264 11.6105 15.8136C11.2926 15.6008 10.9311 15.4616 10.5525 15.4062V14.6482C10.5525 14.5006 10.4939 14.3591 10.3896 14.2548C10.2852 14.1504 10.1437 14.0918 9.99612 14.0918C9.84856 14.0918 9.70703 14.1504 9.60268 14.2548C9.49834 14.3591 9.43971 14.5006 9.43971 14.6482V15.4002C8.25981 15.6132 7.37305 16.4872 7.37305 17.5304C7.37273 18.7351 8.54946 19.7138 9.99612 19.7138Z" fill="white" stroke="white" stroke-width="0.5"/>
</svg>
