<svg width="42" height="42" viewBox="0 0 42 42" fill="none" xmlns="http://www.w3.org/2000/svg">
<path d="M40.0281 23.2597V18.1766C40.0281 16.6142 38.7175 15.3487 37.0995 15.3487H33.6658L34.9983 14.0619C35.8403 13.2418 35.8403 11.8986 34.9983 11.0714L24.6897 1.10978C23.8331 0.296739 22.4494 0.296739 21.5927 1.10978L14.1837 8.27148H4.89286C3.72143 8.27148 2.62319 8.70981 1.78126 9.51578C0.953952 10.3217 0.5 11.3893 0.5 12.5134V37.2581C0.5 39.5982 2.46945 41.5 4.89286 41.5H37.1071C38.7252 41.5 40.0357 40.2345 40.0357 38.6721V32.8818C40.885 32.5919 41.5 31.8142 41.5 30.8881V25.2322C41.5 24.3132 40.885 23.5355 40.0357 23.2386L40.0281 23.2597ZM22.6178 2.12793C22.9034 1.85221 23.3646 1.85221 23.6501 2.12793L33.9587 12.0823C34.2369 12.358 34.2369 12.8034 33.9587 13.0791L31.5939 15.3627H29.4633C29.5878 15.1011 29.5439 14.79 29.3169 14.5709C28.1821 13.468 28.1821 11.6864 29.3169 10.5905C29.6024 10.3148 29.6024 9.86938 29.3169 9.59369L26.2272 6.61019C25.9417 6.33447 25.4804 6.33447 25.1949 6.61019C24.0601 7.70603 22.2151 7.70603 21.073 6.61019C20.7874 6.33447 20.3261 6.33447 20.0406 6.61019L10.9766 15.3628H8.9266L22.6178 2.12793ZM13.0487 15.3554L20.6044 8.05937C22.1199 9.09154 24.1626 9.09154 25.6706 8.05937L27.8084 10.1308C26.7395 11.5872 26.7395 13.5597 27.8084 15.0229L27.4643 15.3552L13.0487 15.3554ZM2.80617 10.5267C3.3626 9.99644 4.10205 9.69953 4.88545 9.69953H12.712L6.85486 15.3554H4.87805C3.26003 15.3554 1.94948 14.0899 1.94948 12.5275C1.94948 11.771 2.25698 11.064 2.79876 10.5267H2.80617ZM37.1 40.0997H4.88569C3.26766 40.0997 1.95712 38.8342 1.95712 37.2718V15.6803C2.73316 16.352 3.75821 16.7691 4.88569 16.7691H37.1C37.9054 16.7691 38.5643 17.4053 38.5643 18.183V23.1321H32.7071C29.8811 23.1321 27.5819 25.3521 27.5819 28.0813C27.5819 30.8105 29.8808 33.0304 32.7071 33.0304H38.5643V38.6863C38.5643 39.464 37.9054 40.1002 37.1 40.1002V40.0997ZM40.0285 30.9091C40.0285 31.298 39.6991 31.6161 39.2964 31.6161H32.7074C30.6866 31.6161 29.0466 30.0325 29.0466 28.0812C29.0466 26.1299 30.6866 24.5463 32.7074 24.5463H39.2964C39.6991 24.5463 40.0285 24.8644 40.0285 25.2532V30.9091Z" fill="white" stroke="white"/>
</svg>
