<svg width="45" height="45" viewBox="0 0 45 45" fill="none" xmlns="http://www.w3.org/2000/svg">
<path d="M28.4971 1.52966C29.1991 1.50989 29.9674 1.5 30.8022 1.5C30.8022 1.5 31.779 3.47754 31.779 9.41017C31.779 9.65275 31.7773 9.88873 31.7741 10.1181C34.8147 11.6942 37.1413 14.3115 38.4384 17.5705C39.3089 17.4484 40.1848 17.3689 41.0629 17.3322C42.3034 17.2867 43.2801 18.232 43.3749 19.4867C43.4432 20.4063 43.4999 21.6512 43.4999 23.253C43.4999 24.8548 43.4432 26.0986 43.3749 27.0202C43.2811 28.273 42.3034 29.2192 41.0629 29.1737C40.3923 29.1472 39.7231 29.0938 39.0567 29.0135C38.497 31.1839 37.5144 33.1347 36.186 34.7692C36.7615 36.036 37.3141 37.3134 37.8436 38.6007C38.3192 39.7546 38.0047 41.0864 37.0192 41.8399C36.609 42.1533 36.185 42.4559 35.8285 42.6625C35.4652 42.8732 34.9768 43.0966 34.4904 43.2993C33.3632 43.77 32.0857 43.3863 31.3375 42.4104C30.7221 41.6065 29.9368 40.5614 29.1183 39.4194C27.859 39.7782 26.5602 39.9755 25.2524 40.0067C23.9611 40.043 22.5552 40.0614 21.0348 40.0621C18.7541 40.0631 18.1094 40.0423 16.8172 40.0067C15.5094 39.9755 14.2105 39.7782 12.9513 39.4194C12.2274 40.4283 11.4876 41.4255 10.7321 42.4104C9.98391 43.3863 8.70633 43.77 7.57917 43.3003C7.12126 43.1142 6.67446 42.9013 6.24103 42.6625C5.82752 42.4133 5.42956 42.1386 5.04941 41.8399C4.06485 41.0864 3.75034 39.7546 4.22601 38.6007C4.65383 37.5615 5.23206 36.1999 5.88257 34.7692C3.73666 32.1292 2.49327 28.6615 2.47764 24.7757C2.4762 24.4197 2.4762 24.0638 2.47764 23.7078C2.5128 15.2054 8.42112 8.70913 16.8172 8.47677C18.1085 8.44051 19.5143 8.42206 21.0348 8.4214H21.0885C21.5153 4.50685 24.4729 1.64041 28.4971 1.52966Z" stroke="white" stroke-width="3" stroke-linecap="round" stroke-linejoin="round"/>
<path d="M10.7791 16.817C12.5118 15.054 14.9625 13.9624 17.8409 13.8873C18.2941 13.8741 18.7675 13.8648 19.2611 13.8596M29.8256 16.3315V17.3203M6.52339 12.3764C3.86958 12.3764 1.5 10.1467 1.5 7.39597C1.5 4.64521 3.86958 2.41553 6.52339 2.41553C9.03557 2.41553 10.2907 3.77311 10.2907 5.13168" stroke="white" stroke-width="3" stroke-linecap="round" stroke-linejoin="round"/>
</svg>
