<svg width="42" height="42" viewBox="0 0 42 42" fill="none" xmlns="http://www.w3.org/2000/svg">
<path d="M12.5902 33.6197C13.7705 33.6197 14.7705 34.0305 15.5902 34.8521C16.4098 35.6737 16.8197 36.6596 16.8197 37.8099C16.8197 38.9601 16.4098 39.946 15.5902 40.7676C14.7705 41.5892 13.7705 42 12.5902 42C11.4098 42 10.4262 41.5892 9.63934 40.7676C8.85246 39.946 8.45902 38.9601 8.45902 37.8099C8.45902 36.6596 8.85246 35.6737 9.63934 34.8521C10.4262 34.0305 11.4098 33.6197 12.5902 33.6197ZM0 0H6.88525L8.85246 4.14085H39.8361C40.4262 4.14085 40.9344 4.35446 41.3607 4.78169C41.7869 5.20892 42 5.71831 42 6.30986C42 6.6385 41.9016 6.96714 41.7049 7.29577L34.2295 20.9014C33.4426 22.3474 32.1967 23.0704 30.4918 23.0704H14.8525L12.9836 26.5211V26.8169C12.9836 27.1455 13.1475 27.3099 13.4754 27.3099H37.7705V31.5493H12.5902C11.4098 31.5493 10.4098 31.1385 9.59016 30.3169C8.77049 29.4953 8.36066 28.493 8.36066 27.3099C8.36066 26.5869 8.55738 25.9296 8.95082 25.338L11.7049 20.1127L4.22951 4.14085H0V0ZM33.5902 33.6197C34.7377 33.6197 35.7213 34.0305 36.541 34.8521C37.3607 35.6737 37.7705 36.6596 37.7705 37.8099C37.7705 38.9601 37.3607 39.946 36.541 40.7676C35.7213 41.5892 34.7377 42 33.5902 42C32.4426 42 31.459 41.5892 30.6393 40.7676C29.8197 39.946 29.4098 38.9601 29.4098 37.8099C29.4098 36.6596 29.8197 35.6737 30.6393 34.8521C31.459 34.0305 32.4426 33.6197 33.5902 33.6197Z" fill="white"/>
</svg>
