<svg width="42" height="42" viewBox="0 0 42 42" fill="none" xmlns="http://www.w3.org/2000/svg">
<path d="M21 42C9.42 42 0 32.58 0 21C0 9.42 9.42 0 21 0C32.58 0 42 9.42 42 21C42 32.58 32.58 42 21 42ZM21 3C11.07 3 3 11.07 3 21C3 30.93 11.07 39 21 39C30.93 39 39 30.93 39 21C39 11.07 30.93 3 21 3Z" fill="white"/>
<path d="M28.501 33H13.501C12.661 33 12.001 32.34 12.001 31.5C12.001 30.66 12.661 30 13.501 30H28.501C29.341 30 30.001 30.66 30.001 31.5C30.001 32.34 29.341 33 28.501 33ZM22.501 24H13.501C12.661 24 12.001 23.34 12.001 22.5C12.001 21.66 12.661 21 13.501 21H22.501C23.341 21 24.001 21.66 24.001 22.5C24.001 23.34 23.341 24 22.501 24Z" fill="white"/>
<path d="M16.5 33.0005C15.66 33.0005 15 32.3405 15 31.5005V16.8605C15 12.5105 18.54 9.00049 22.86 9.00049C24.96 9.00049 26.94 9.81049 28.41 11.3105L29.55 12.4505C30.15 13.0505 30.15 13.9805 29.55 14.5805C28.95 15.1805 28.02 15.1805 27.42 14.5805L26.28 13.4405C25.35 12.5105 24.15 12.0305 22.83 12.0305C20.16 12.0305 17.97 14.2205 17.97 16.8905V31.5305C17.97 32.3705 17.31 33.0305 16.47 33.0305L16.5 33.0005Z" fill="white"/>
</svg>
