<svg width="22" height="22" viewBox="0 0 22 22" fill="none" xmlns="http://www.w3.org/2000/svg">
<path d="M15.4 22C13.5667 22 12.0083 21.3583 10.725 20.075C9.44167 18.7917 8.8 17.2333 8.8 15.4C8.8 13.5667 9.44167 12.0083 10.725 10.725C12.0083 9.44167 13.5667 8.8 15.4 8.8C17.2333 8.8 18.7917 9.44167 20.075 10.725C21.3583 12.0083 22 13.5667 22 15.4C22 17.2333 21.3583 18.7917 20.075 20.075C18.7917 21.3583 17.2333 22 15.4 22ZM15.4 19.8C16.61 19.8 17.6458 19.3692 18.5075 18.5075C19.3692 17.6458 19.8 16.61 19.8 15.4C19.8 14.19 19.3692 13.1542 18.5075 12.2925C17.6458 11.4308 16.61 11 15.4 11C14.19 11 13.1542 11.4308 12.2925 12.2925C11.4308 13.1542 11 14.19 11 15.4C11 16.61 11.4308 17.6458 12.2925 18.5075C13.1542 19.3692 14.19 19.8 15.4 19.8ZM2.2 19.8C1.595 19.8 1.0769 19.5844 0.645702 19.1532C0.214502 18.722 -0.000731466 18.2043 1.86757e-06 17.6V9.24C1.86757e-06 9.09334 0.0139353 8.94667 0.041802 8.8C0.0696687 8.65334 0.110735 8.50667 0.165002 8.36L2.365 3.3H2.2C1.88833 3.3 1.6269 3.1944 1.4157 2.9832C1.2045 2.772 1.09927 2.51094 1.1 2.2V1.1C1.1 0.788337 1.2056 0.526904 1.4168 0.315704C1.628 0.104504 1.88907 -0.000729527 2.2 3.80623e-06H9.9C10.2117 3.80623e-06 10.4731 0.105604 10.6843 0.316804C10.8955 0.528004 11.0007 0.78907 11 1.1V2.2C11 2.51167 10.8944 2.7731 10.6832 2.9843C10.472 3.1955 10.2109 3.30074 9.9 3.3H9.735L11.55 7.48C11.2017 7.66334 10.8717 7.85584 10.56 8.0575C10.2483 8.25917 9.955 8.48834 9.68 8.745L7.37 3.3H4.73L2.2 9.24V17.6H6.875C6.96667 17.985 7.09023 18.3656 7.2457 18.7418C7.40117 19.118 7.58927 19.4707 7.81 19.8H2.2ZM15.4 7.7C14.63 7.7 13.9792 7.43417 13.4475 6.9025C12.9158 6.37084 12.65 5.72 12.65 4.95C12.65 4.18 12.9158 3.52917 13.4475 2.9975C13.9792 2.46584 14.63 2.2 15.4 2.2V7.7C15.4 6.93 15.6658 6.27917 16.1975 5.7475C16.7292 5.21584 17.38 4.95 18.15 4.95C18.92 4.95 19.5708 5.21584 20.1025 5.7475C20.6342 6.27917 20.9 6.93 20.9 7.7H15.4Z" fill="white"/>
</svg>
