<svg width="209" height="31" viewBox="0 0 209 31" fill="none" xmlns="http://www.w3.org/2000/svg">
<path d="M18.9279 7.76865H10.3691V4.35284H18.9276L18.9279 7.76865ZM18.9279 8.67855H10.3691V10.44H18.9276L18.9279 8.67855ZM10.3691 27.5844H18.9276V31H10.3691V27.5844ZM10.3691 26.6745H18.9276V24.9131H10.3691V26.6745ZM18.9279 11.6681H10.3691V23.8501H18.9276L18.9279 11.6681ZM8.55879 7.76865H0V4.35284H8.55847L8.55879 7.76865ZM8.55879 8.67855H0V10.44H8.55847L8.55879 8.67855ZM0 27.5844H8.55847V31H0V27.5844ZM0 26.6745H8.55847V24.9131H0V26.6745ZM8.55879 11.6681H0V23.8501H8.55847L8.55879 11.6681ZM28.1834 3.37125L19.736 4.39425L18.9976 1.023L27.445 0L28.1834 3.37125ZM28.3801 4.26928L19.9327 5.29228L20.3135 7.0307L28.7609 6.0077L28.3801 4.26928ZM24.8142 27.576L33.2616 26.553L34 29.9242L25.5526 30.9472L24.8142 27.576ZM24.6175 26.6779L33.0649 25.6549L32.6841 23.9165L24.2367 24.9395L24.6175 26.6779ZM29.0267 7.22009L20.5793 8.24309L24.0068 23.8903L32.4542 22.8673L29.0267 7.22009Z" fill="white"/>
<path d="M60.9688 7.76172H64.25V21.8711H69.0312V25H60.9688V7.76172ZM72.4414 7C73.0039 7 73.4844 7.20312 73.8828 7.60938C74.2891 8.01562 74.4922 8.50781 74.4922 9.08594C74.4922 9.65625 74.293 10.1445 73.8945 10.5508C73.4961 10.9492 73.0195 11.1484 72.4648 11.1484C71.8945 11.1484 71.4062 10.9453 71 10.5391C70.6016 10.125 70.4023 9.625 70.4023 9.03906C70.4023 8.47656 70.6016 7.99609 71 7.59766C71.3984 7.19922 71.8789 7 72.4414 7ZM70.8359 12.25H74.0469V25H70.8359V12.25ZM80.1289 7.32812V13.6562C80.707 13.0781 81.332 12.6445 82.0039 12.3555C82.6758 12.0664 83.3945 11.9219 84.1602 11.9219C85.8242 11.9219 87.2383 12.5508 88.4023 13.8086C89.5664 15.0664 90.1484 16.6797 90.1484 18.6484C90.1484 20.5469 89.5469 22.1367 88.3438 23.418C87.1406 24.6914 85.7148 25.3281 84.0664 25.3281C83.332 25.3281 82.6484 25.1992 82.0156 24.9414C81.3828 24.6758 80.7539 24.2461 80.1289 23.6523V25H76.9531V7.32812H80.1289ZM83.4922 14.875C82.4844 14.875 81.6484 15.2188 80.9844 15.9062C80.3203 16.5938 79.9883 17.4922 79.9883 18.6016C79.9883 19.7344 80.3203 20.6523 80.9844 21.3555C81.6484 22.0508 82.4844 22.3984 83.4922 22.3984C84.4688 22.3984 85.2891 22.043 85.9531 21.332C86.625 20.6211 86.9609 19.7148 86.9609 18.6133C86.9609 17.5195 86.6328 16.625 85.9766 15.9297C85.3203 15.2266 84.4922 14.875 83.4922 14.875ZM92.0469 12.25H94.7891V13.8555C95.0859 13.2227 95.4805 12.7422 95.9727 12.4141C96.4648 12.0859 97.0039 11.9219 97.5898 11.9219C98.0039 11.9219 98.4375 12.0312 98.8906 12.25L97.8945 15.0039C97.5195 14.8164 97.2109 14.7227 96.9688 14.7227C96.4766 14.7227 96.0586 15.0273 95.7148 15.6367C95.3789 16.2461 95.2109 17.4414 95.2109 19.2227L95.2227 19.8438V25H92.0469V12.25ZM109.906 12.25H113.094V25H109.906V23.6523C109.281 24.2461 108.652 24.6758 108.02 24.9414C107.395 25.1992 106.715 25.3281 105.98 25.3281C104.332 25.3281 102.906 24.6914 101.703 23.418C100.5 22.1367 99.8984 20.5469 99.8984 18.6484C99.8984 16.6797 100.48 15.0664 101.645 13.8086C102.809 12.5508 104.223 11.9219 105.887 11.9219C106.652 11.9219 107.371 12.0664 108.043 12.3555C108.715 12.6445 109.336 13.0781 109.906 13.6562V12.25ZM106.543 14.875C105.551 14.875 104.727 15.2266 104.07 15.9297C103.414 16.625 103.086 17.5195 103.086 18.6133C103.086 19.7148 103.418 20.6211 104.082 21.332C104.754 22.043 105.578 22.3984 106.555 22.3984C107.562 22.3984 108.398 22.0508 109.062 21.3555C109.727 20.6523 110.059 19.7344 110.059 18.6016C110.059 17.4922 109.727 16.5938 109.062 15.9062C108.398 15.2188 107.559 14.875 106.543 14.875ZM115.578 12.25H118.32V13.8555C118.617 13.2227 119.012 12.7422 119.504 12.4141C119.996 12.0859 120.535 11.9219 121.121 11.9219C121.535 11.9219 121.969 12.0312 122.422 12.25L121.426 15.0039C121.051 14.8164 120.742 14.7227 120.5 14.7227C120.008 14.7227 119.59 15.0273 119.246 15.6367C118.91 16.2461 118.742 17.4414 118.742 19.2227L118.754 19.8438V25H115.578V12.25ZM122.598 12.25H125.867L129.184 20.2539L132.84 12.25H136.121L128.129 29.6641H124.824L127.449 24.0508L122.598 12.25ZM145.004 7.76172H148.484C150.367 7.76172 151.723 7.9375 152.551 8.28906C153.387 8.63281 154.043 9.19531 154.52 9.97656C155.004 10.75 155.246 11.6797 155.246 12.7656C155.246 13.9688 154.93 14.9688 154.297 15.7656C153.672 16.5625 152.82 17.1172 151.742 17.4297C151.109 17.6094 149.957 17.6992 148.285 17.6992V25H145.004V7.76172ZM148.285 14.5H149.328C150.148 14.5 150.719 14.4414 151.039 14.3242C151.359 14.207 151.609 14.0156 151.789 13.75C151.977 13.4766 152.07 13.1484 152.07 12.7656C152.07 12.1016 151.812 11.6172 151.297 11.3125C150.922 11.0859 150.227 10.9727 149.211 10.9727H148.285V14.5ZM164.105 11.9219C165.309 11.9219 166.438 12.2227 167.492 12.8242C168.555 13.4258 169.383 14.2422 169.977 15.2734C170.57 16.3047 170.867 17.418 170.867 18.6133C170.867 19.8164 170.566 20.9414 169.965 21.9883C169.371 23.0352 168.559 23.8555 167.527 24.4492C166.496 25.0352 165.359 25.3281 164.117 25.3281C162.289 25.3281 160.727 24.6797 159.43 23.3828C158.141 22.0781 157.496 20.4961 157.496 18.6367C157.496 16.6445 158.227 14.9844 159.688 13.6562C160.969 12.5 162.441 11.9219 164.105 11.9219ZM164.152 14.9336C163.16 14.9336 162.332 15.2812 161.668 15.9766C161.012 16.6641 160.684 17.5469 160.684 18.625C160.684 19.7344 161.008 20.6328 161.656 21.3203C162.312 22.0078 163.141 22.3516 164.141 22.3516C165.141 22.3516 165.973 22.0039 166.637 21.3086C167.301 20.6133 167.633 19.7188 167.633 18.625C167.633 17.5312 167.305 16.6445 166.648 15.9648C166 15.2773 165.168 14.9336 164.152 14.9336ZM172.742 12.25H175.484V13.8555C175.781 13.2227 176.176 12.7422 176.668 12.4141C177.16 12.0859 177.699 11.9219 178.285 11.9219C178.699 11.9219 179.133 12.0312 179.586 12.25L178.59 15.0039C178.215 14.8164 177.906 14.7227 177.664 14.7227C177.172 14.7227 176.754 15.0273 176.41 15.6367C176.074 16.2461 175.906 17.4414 175.906 19.2227L175.918 19.8438V25H172.742V12.25ZM181.566 7.55078H184.754V12.25H186.652V15.0039H184.754V25H181.566V15.0039H179.926V12.25H181.566V7.55078ZM197.797 12.25H200.984V25H197.797V23.6523C197.172 24.2461 196.543 24.6758 195.91 24.9414C195.285 25.1992 194.605 25.3281 193.871 25.3281C192.223 25.3281 190.797 24.6914 189.594 23.418C188.391 22.1367 187.789 20.5469 187.789 18.6484C187.789 16.6797 188.371 15.0664 189.535 13.8086C190.699 12.5508 192.113 11.9219 193.777 11.9219C194.543 11.9219 195.262 12.0664 195.934 12.3555C196.605 12.6445 197.227 13.0781 197.797 13.6562V12.25ZM194.434 14.875C193.441 14.875 192.617 15.2266 191.961 15.9297C191.305 16.625 190.977 17.5195 190.977 18.6133C190.977 19.7148 191.309 20.6211 191.973 21.332C192.645 22.043 193.469 22.3984 194.445 22.3984C195.453 22.3984 196.289 22.0508 196.953 21.3555C197.617 20.6523 197.949 19.7344 197.949 18.6016C197.949 17.4922 197.617 16.5938 196.953 15.9062C196.289 15.2188 195.449 14.875 194.434 14.875ZM203.879 7.32812H207.078V25H203.879V7.32812Z" fill="white"/>
</svg>
