<svg width="34" height="31" viewBox="0 0 34 31" fill="none" xmlns="http://www.w3.org/2000/svg">
<path d="M18.9279 7.76865H10.3691V4.35284H18.9276L18.9279 7.76865ZM18.9279 8.67855H10.3691V10.44H18.9276L18.9279 8.67855ZM10.3691 27.5844H18.9276V31H10.3691V27.5844ZM10.3691 26.6745H18.9276V24.9131H10.3691V26.6745ZM18.9279 11.6681H10.3691V23.8501H18.9276L18.9279 11.6681ZM8.55879 7.76865H0V4.35284H8.55847L8.55879 7.76865ZM8.55879 8.67855H0V10.44H8.55847L8.55879 8.67855ZM0 27.5844H8.55847V31H0V27.5844ZM0 26.6745H8.55847V24.9131H0V26.6745ZM8.55879 11.6681H0V23.8501H8.55847L8.55879 11.6681ZM28.1834 3.37125L19.736 4.39425L18.9976 1.023L27.445 0L28.1834 3.37125ZM28.3801 4.26928L19.9327 5.29228L20.3135 7.0307L28.7609 6.0077L28.3801 4.26928ZM24.8142 27.576L33.2616 26.553L34 29.9242L25.5526 30.9472L24.8142 27.576ZM24.6175 26.6779L33.0649 25.6549L32.6841 23.9165L24.2367 24.9395L24.6175 26.6779ZM29.0267 7.22009L20.5793 8.24309L24.0068 23.8903L32.4542 22.8673L29.0267 7.22009Z" fill="white"/>
</svg>
