<svg width="39" height="27" viewBox="0 0 39 27" fill="none" xmlns="http://www.w3.org/2000/svg">
<path fill-rule="evenodd" clip-rule="evenodd" d="M26 0L12 1L0 8H3V17.2148C2.41797 17.6953 2 18.9766 2 20.5C2 22.4336 2.67188 24 3.5 24C4.32812 24 5 22.9336 5 21C5 19.4766 4.58203 17.8906 4 17.2773V8H15L26 0ZM20.5 5L15.5 9H7.5C7.40234 9.48438 7.375 9.46875 7.375 9.98047C7.375 10.5 7.42969 11.0078 7.53125 11.5C7.80859 11.4883 13.5 11 16.5195 13.5C17.1055 11.7266 18.7305 9.44922 21.0352 7.37891C21.2461 7.1875 21.2852 7.17969 21.5 7C21.5 6 21.0391 5.57812 20.5 5ZM29 6C26.6953 6 24.5977 6.88281 23 8.32031C22.6953 8.04687 22.3711 7.80469 22.0312 7.57812C21.9102 7.68359 21.7812 7.78516 21.6602 7.89453C20.0352 9.35547 18.7578 10.918 17.9375 12.332C19.1484 12.8828 20 14.0898 20 15.5V27H26V15.5C26 13.5742 27.5742 12 29.5 12C31.4258 12 33 13.5742 33 15.5V27H39V15C39 10.0508 34.9492 6 30 6H29ZM7.53125 12.0156C7.19531 12.9531 7 13.9531 7 15V27H13V15.5C13 14.6328 13.332 13.8516 13.8594 13.2461C12.3203 12.5352 10.0664 12.0742 7.53125 12.0156Z" fill="white"/>
</svg>
