<svg width="149" height="29" viewBox="0 0 149 29" fill="none" xmlns="http://www.w3.org/2000/svg">
<path fill-rule="evenodd" clip-rule="evenodd" d="M26 1L12 2L0 9H3V18.2148C2.41797 18.6953 2 19.9766 2 21.5C2 23.4336 2.67188 25 3.5 25C4.32812 25 5 23.9336 5 22C5 20.4766 4.58203 18.8906 4 18.2773V9H15L26 1ZM20.5 6L15.5 10H7.5C7.40234 10.4844 7.375 10.4688 7.375 10.9805C7.375 11.5 7.42969 12.0078 7.53125 12.5C7.80859 12.4883 13.5 12 16.5195 14.5C17.1055 12.7266 18.7305 10.4492 21.0352 8.37891C21.2461 8.1875 21.2852 8.17969 21.5 8C21.5 7 21.0391 6.57812 20.5 6ZM29 7C26.6953 7 24.5977 7.88281 23 9.32031C22.6953 9.04687 22.3711 8.80469 22.0312 8.57812C21.9102 8.68359 21.7812 8.78516 21.6602 8.89453C20.0352 10.3555 18.7578 11.918 17.9375 13.332C19.1484 13.8828 20 15.0898 20 16.5V28H26V16.5C26 14.5742 27.5742 13 29.5 13C31.4258 13 33 14.5742 33 16.5V28H39V16C39 11.0508 34.9492 7 30 7H29ZM7.53125 13.0156C7.19531 13.9531 7 14.9531 7 16V28H13V16.5C13 15.6328 13.332 14.8516 13.8594 14.2461C12.3203 13.5352 10.0664 13.0742 7.53125 13.0156Z" fill="white"/>
<path d="M62.6328 6.76172H65.8438L69.8281 18.7852L73.8711 6.76172H77.0352L79.9414 24H76.7773L74.9258 13.1133L71.2578 24H68.3633L64.7422 13.1133L62.8555 24H59.6562L62.6328 6.76172ZM88.2148 10.9219C89.418 10.9219 90.5469 11.2227 91.6016 11.8242C92.6641 12.4258 93.4922 13.2422 94.0859 14.2734C94.6797 15.3047 94.9766 16.418 94.9766 17.6133C94.9766 18.8164 94.6758 19.9414 94.0742 20.9883C93.4805 22.0352 92.668 22.8555 91.6367 23.4492C90.6055 24.0352 89.4688 24.3281 88.2266 24.3281C86.3984 24.3281 84.8359 23.6797 83.5391 22.3828C82.25 21.0781 81.6055 19.4961 81.6055 17.6367C81.6055 15.6445 82.3359 13.9844 83.7969 12.6562C85.0781 11.5 86.5508 10.9219 88.2148 10.9219ZM88.2617 13.9336C87.2695 13.9336 86.4414 14.2812 85.7773 14.9766C85.1211 15.6641 84.793 16.5469 84.793 17.625C84.793 18.7344 85.1172 19.6328 85.7656 20.3203C86.4219 21.0078 87.25 21.3516 88.25 21.3516C89.25 21.3516 90.082 21.0039 90.7461 20.3086C91.4102 19.6133 91.7422 18.7188 91.7422 17.625C91.7422 16.5312 91.4141 15.6445 90.7578 14.9648C90.1094 14.2773 89.2773 13.9336 88.2617 13.9336ZM103.59 10.9219C104.793 10.9219 105.922 11.2227 106.977 11.8242C108.039 12.4258 108.867 13.2422 109.461 14.2734C110.055 15.3047 110.352 16.418 110.352 17.6133C110.352 18.8164 110.051 19.9414 109.449 20.9883C108.855 22.0352 108.043 22.8555 107.012 23.4492C105.98 24.0352 104.844 24.3281 103.602 24.3281C101.773 24.3281 100.211 23.6797 98.9141 22.3828C97.625 21.0781 96.9805 19.4961 96.9805 17.6367C96.9805 15.6445 97.7109 13.9844 99.1719 12.6562C100.453 11.5 101.926 10.9219 103.59 10.9219ZM103.637 13.9336C102.645 13.9336 101.816 14.2812 101.152 14.9766C100.496 15.6641 100.168 16.5469 100.168 17.625C100.168 18.7344 100.492 19.6328 101.141 20.3203C101.797 21.0078 102.625 21.3516 103.625 21.3516C104.625 21.3516 105.457 21.0039 106.121 20.3086C106.785 19.6133 107.117 18.7188 107.117 17.625C107.117 16.5312 106.789 15.6445 106.133 14.9648C105.484 14.2773 104.652 13.9336 103.637 13.9336ZM122.398 6.32812H125.586V24H122.398V22.6523C121.773 23.2461 121.145 23.6758 120.512 23.9414C119.887 24.1992 119.207 24.3281 118.473 24.3281C116.824 24.3281 115.398 23.6914 114.195 22.418C112.992 21.1367 112.391 19.5469 112.391 17.6484C112.391 15.6797 112.973 14.0664 114.137 12.8086C115.301 11.5508 116.715 10.9219 118.379 10.9219C119.145 10.9219 119.863 11.0664 120.535 11.3555C121.207 11.6445 121.828 12.0781 122.398 12.6562V6.32812ZM119.035 13.875C118.043 13.875 117.219 14.2266 116.562 14.9297C115.906 15.625 115.578 16.5195 115.578 17.6133C115.578 18.7148 115.91 19.6211 116.574 20.332C117.246 21.043 118.07 21.3984 119.047 21.3984C120.055 21.3984 120.891 21.0508 121.555 20.3555C122.219 19.6523 122.551 18.7344 122.551 17.6016C122.551 16.4922 122.219 15.5938 121.555 14.9062C120.891 14.2188 120.051 13.875 119.035 13.875ZM128.48 6.32812H131.68V24H128.48V6.32812ZM147.359 18.5508H137.082C137.23 19.457 137.625 20.1797 138.266 20.7188C138.914 21.25 139.738 21.5156 140.738 21.5156C141.934 21.5156 142.961 21.0977 143.82 20.2617L146.516 21.5273C145.844 22.4805 145.039 23.1875 144.102 23.6484C143.164 24.1016 142.051 24.3281 140.762 24.3281C138.762 24.3281 137.133 23.6992 135.875 22.4414C134.617 21.1758 133.988 19.5938 133.988 17.6953C133.988 15.75 134.613 14.1367 135.863 12.8555C137.121 11.5664 138.695 10.9219 140.586 10.9219C142.594 10.9219 144.227 11.5664 145.484 12.8555C146.742 14.1367 147.371 15.832 147.371 17.9414L147.359 18.5508ZM144.148 16.0312C143.938 15.3203 143.52 14.7422 142.895 14.2969C142.277 13.8516 141.559 13.6289 140.738 13.6289C139.848 13.6289 139.066 13.8789 138.395 14.3789C137.973 14.6914 137.582 15.2422 137.223 16.0312H144.148Z" fill="white"/>
</svg>
