<svg width="83" height="77" viewBox="0 0 83 77" fill="none" xmlns="http://www.w3.org/2000/svg">
<path fill-rule="evenodd" clip-rule="evenodd" d="M10.9135 17.5V0H2.7143V3.8242H5.9643V17.5002L10.9135 17.5ZM82.6325 5H24.2965V13.332H82.6325V5ZM14.5235 42.742V46.6639H0.8985V43.5662L7.4493 37.4412C8.08211 36.8396 8.5079 36.3318 8.7266 35.9139C8.94144 35.4803 9.05082 35.0467 9.05082 34.617C9.05082 34.0467 8.85941 33.6053 8.4766 33.2889C8.09379 32.9725 7.53519 32.8162 6.8008 32.8162C6.14846 32.8162 5.5508 32.9647 5 33.2655C4.46875 33.5467 4.02344 33.9647 3.6758 34.5155L0 32.4647C0.68359 31.3319 1.6406 30.4413 2.875 29.7889C4.1094 29.1404 5.5664 28.8162 7.25 28.8162C8.582 28.8162 9.7578 29.031 10.7734 29.4646C11.8086 29.8982 12.6093 30.5232 13.1757 31.3396C13.7577 32.1404 14.0507 33.074 14.0507 34.1404C14.0507 35.0897 13.8437 35.992 13.4257 36.8396C13.0234 37.6717 12.2421 38.6248 11.0741 39.6912L7.7733 42.742L14.5235 42.742ZM13.2501 67.133C12.4845 66.2307 11.3751 65.633 9.9259 65.3322L13.5509 61.4338V58.3322H0.902901V62.1564H7.8013L4.6763 65.5314V68.6564H6.7505C8.5357 68.6564 9.4263 69.2228 9.4263 70.3556C9.4263 70.9415 9.1763 71.3908 8.6763 71.7072C8.1763 72.0236 7.5005 72.1838 6.6529 72.1838C5.81696 72.1838 4.9693 72.0588 4.1021 71.8088C3.25054 71.5588 2.4849 71.1994 1.8013 70.7307L0.000500679 74.4573C0.883311 75.008 1.9263 75.4338 3.1255 75.7307C4.3443 76.0314 5.5669 76.1838 6.8013 76.1838C8.4849 76.1838 9.8951 75.9143 11.0279 75.383C12.1763 74.8322 13.0279 74.1174 13.5787 73.2307C14.1451 72.3479 14.4264 71.3909 14.4264 70.3557C14.4264 69.0901 14.0353 68.0159 13.2501 67.133ZM24.2971 63.3322H82.6331V71.6642H24.2971V63.3322ZM82.6331 34.1642H24.2971V42.5001H82.6331V34.1642Z" fill="black"/>
</svg>
