<svg width="24" height="24" viewBox="0 0 24 24" fill="none" xmlns="http://www.w3.org/2000/svg">
<path d="M5.39989 10.7463C8.38217 10.7463 10.7998 8.34063 10.7998 5.37313C10.7998 2.40563 8.38217 0 5.39989 0C2.41761 0 0 2.40563 0 5.37313C0 8.34063 2.41761 10.7463 5.39989 10.7463Z" fill="white"/>
<path d="M8.63983 13.1343H2.15996C0.959981 13.1343 0 14.0895 0 15.2835V21.8507C0 23.0447 0.959981 23.9999 2.15996 23.9999H8.75983C9.95981 23.9999 10.9198 23.0447 10.9198 21.8507V15.2835C10.7998 14.0895 9.83981 13.1343 8.63983 13.1343Z" fill="white"/>
<path d="M21.8399 0H15.24C14.0401 0 13.0801 0.955224 13.0801 2.14925V8.71642C13.0801 9.91045 14.0401 10.8657 15.24 10.8657H21.8399C23.0399 10.8657 23.9999 9.91045 23.9999 8.71642V2.14925C23.9999 0.955224 23.0399 0 21.8399 0Z" fill="white"/>
<path d="M22.2 16.7164H20.4001V14.9253C20.4001 13.9701 19.5601 13.1343 18.6001 13.1343C17.6401 13.1343 16.8001 13.9701 16.8001 14.9253V16.7164H15.0002C14.0402 16.7164 13.2002 17.5522 13.2002 18.5074C13.2002 19.4626 14.0402 20.2985 15.0002 20.2985H16.8001V22.0895C16.8001 23.0447 17.6401 23.8805 18.6001 23.8805C19.5601 23.8805 20.4001 23.0447 20.4001 22.0895V20.2985H22.2C23.16 20.2985 24 19.4626 24 18.5074C24 17.5522 23.16 16.7164 22.2 16.7164Z" fill="white"/>
</svg>
