<svg width="32" height="31" viewBox="0 0 32 31" fill="none" xmlns="http://www.w3.org/2000/svg">
<path fill-rule="evenodd" clip-rule="evenodd" d="M28.4444 27.9V31H3.55558V27.9H28.4444ZM16 0C20.4183 0 24 2.77583 24 6.19997C24 8.0357 22.9706 9.685 21.3348 10.8203L21.3339 15.5H29.3333L32 26.35H0L2.66667 15.5H10.6668L10.6669 10.8215C9.03008 9.68623 8 8.03636 8 6.19997C8 2.77583 11.5817 0 16 0ZM26.4587 18.6H5.5395L4.39642 23.25H27.6018L26.4587 18.6ZM16 3.10002C13.4583 3.10002 11.5556 4.57458 11.5556 6.19997C11.5556 7.01241 12.0184 7.79761 12.8804 8.3955L14.2226 9.32629L14.2225 10.8216L14.2204 15.5H17.7778L17.7795 9.32542L19.1205 8.39477C19.9819 7.79695 20.4444 7.01212 20.4444 6.19997C20.4444 4.57458 18.5417 3.10002 16 3.10002Z" fill="white"/>
</svg>
