<svg width="32" height="34" viewBox="0 0 32 34" fill="none" xmlns="http://www.w3.org/2000/svg">
<path d="M14.4279 32.5C8.33484 32.5 5.28679 32.5 3.39263 30.6834C1.5 28.8683 1.5 25.945 1.5 20.1V13.9C1.5 8.05495 1.5 5.13165 3.39263 3.3166C5.28679 1.5 8.33484 1.5 14.4279 1.5H16.0458C22.1404 1.5 25.1869 1.5 27.081 3.3166C28.9737 5.13165 28.9737 8.05495 28.9737 13.9M14.4737 32.5H16.7632M9.13158 9.25H21.3421M9.13158 17H16.7632" stroke="white" stroke-width="3" stroke-linecap="round" stroke-linejoin="round"/>
<path d="M23.6316 27.2148L22.2549 32.1019C22.241 32.1574 22.2425 32.2156 22.2592 32.2702C22.2759 32.3248 22.3072 32.3737 22.3495 32.4114C22.3918 32.4491 22.4436 32.4741 22.4991 32.4838C22.5546 32.4935 22.6117 32.4874 22.664 32.4662L25.6937 31.237C25.8396 31.1775 26.0026 31.1775 26.1485 31.237L29.2073 32.477C29.2584 32.4978 29.3142 32.504 29.3686 32.4952C29.423 32.4864 29.474 32.4627 29.5163 32.4268C29.5585 32.3909 29.5904 32.344 29.6086 32.2912C29.6267 32.2384 29.6305 32.1816 29.6194 32.1267L28.4533 27.0613M30.5001 23.1925C30.498 21.9606 30.0147 20.7799 29.1562 19.9095C28.2977 19.0391 27.1342 18.5503 25.9211 18.5503C23.392 18.5503 21.3422 20.6288 21.3422 23.1925C21.3426 23.8027 21.4613 24.4068 21.6917 24.9704C21.922 25.5339 22.2594 26.0458 22.6847 26.4769C23.1099 26.908 23.6146 27.2498 24.1699 27.4828C24.7252 27.7158 25.3203 27.8354 25.9211 27.8348C28.4502 27.8348 30.5001 25.7578 30.5001 23.1925Z" stroke="white" stroke-width="3" stroke-linecap="round" stroke-linejoin="round"/>
</svg>
