<svg width="24" height="22" viewBox="0 0 24 22" fill="none" xmlns="http://www.w3.org/2000/svg">
<path fill-rule="evenodd" clip-rule="evenodd" d="M1.20236 12.2218C0.0985997 12.2218 -0.419687 10.8321 0.405733 10.0865L11.2034 0.308339C11.4229 0.109706 11.7064 0 12 0C12.2936 0 12.5771 0.109706 12.7966 0.308339L23.5943 10.0865C24.4197 10.8321 23.9014 12.2218 22.7976 12.2218H21.5979V20.7777C21.5979 21.1019 21.4715 21.4128 21.2465 21.642C21.0215 21.8712 20.7164 22 20.3982 22H3.60183C3.28364 22 2.97849 21.8712 2.75349 21.642C2.5285 21.4128 2.4021 21.1019 2.4021 20.7777V12.2218H1.20236ZM8.40079 19.5555V13.4441C8.40079 13.1199 8.52719 12.809 8.75218 12.5798C8.97718 12.3506 9.28233 12.2218 9.60052 12.2218H14.3995C14.7177 12.2218 15.0228 12.3506 15.2478 12.5798C15.4728 12.809 15.5992 13.1199 15.5992 13.4441V19.5555H19.1984V10.9996C19.1984 10.7821 19.2553 10.5686 19.3633 10.381C19.4713 10.1934 19.6264 10.0386 19.8127 9.93251L12 2.85555L4.18731 9.93251C4.3736 10.0386 4.52874 10.1934 4.63672 10.381C4.7447 10.5686 4.80161 10.7821 4.80157 10.9996V19.5555H8.40079ZM10.8003 19.5555V14.6664H13.1997V19.5555H10.8003Z" fill="white"/>
</svg>
