<svg width="36" height="36" viewBox="0 0 36 36" fill="none" xmlns="http://www.w3.org/2000/svg">
<path d="M17.8869 28.6762C16.9745 28.6762 16.0826 28.4361 15.3239 27.9862C14.5653 27.5364 13.974 26.8969 13.6248 26.1488C13.2757 25.4007 13.1843 24.5775 13.3623 23.7833C13.5403 22.9891 13.9797 22.2596 14.6249 21.687C15.27 21.1144 16.092 20.7244 16.9869 20.5665C17.8818 20.4085 18.8093 20.4896 19.6523 20.7994C20.4952 21.1093 21.2157 21.6341 21.7226 22.3074C22.2295 22.9807 22.5001 23.7723 22.5001 24.582C22.5001 25.6679 22.0141 26.7093 21.1489 27.4771C20.2838 28.2449 19.1104 28.6762 17.8869 28.6762ZM17.8869 21.8525C17.2786 21.8525 16.684 22.0126 16.1783 22.3125C15.6725 22.6125 15.2783 23.0387 15.0455 23.5375C14.8128 24.0362 14.7518 24.585 14.8705 25.1145C14.9892 25.644 15.2821 26.1303 15.7122 26.5121C16.1423 26.8938 16.6903 27.1537 17.2869 27.2591C17.8835 27.3644 18.5019 27.3103 19.0638 27.1037C19.6258 26.8971 20.1061 26.5473 20.4441 26.0984C20.782 25.6496 20.9624 25.1219 20.9624 24.582C20.9624 23.8581 20.6383 23.1639 20.0616 22.652C19.4848 22.1401 18.7026 21.8525 17.8869 21.8525Z" fill="white"/>
<path d="M18.6557 35.4999H17.118C16.5062 35.4999 15.9195 35.2842 15.487 34.9003C15.0544 34.5164 14.8114 33.9957 14.8114 33.4528V32.2928C14.5078 32.1977 14.21 32.0884 13.9195 31.9652L12.9968 32.7841C12.5549 33.1528 11.9703 33.3569 11.3638 33.3544C10.7572 33.3518 10.1749 33.1428 9.73685 32.7704L8.66043 31.8151C8.22848 31.4313 7.98586 30.911 7.98586 30.3685C7.98586 29.826 8.22848 29.3057 8.66043 28.9219L9.58307 28.103C9.43912 27.8454 9.3108 27.5812 9.19864 27.3115H7.89156C7.27982 27.3115 6.69312 27.0958 6.26055 26.7119C5.82798 26.328 5.58496 25.8073 5.58496 25.2644V23.8996C5.58496 23.3567 5.82798 22.836 6.26055 22.4521C6.69312 22.0682 7.27982 21.8525 7.89156 21.8525H9.19864C9.30577 21.583 9.42897 21.3188 9.5677 21.061L8.66043 20.2421C8.22848 19.8583 7.98586 19.338 7.98586 18.7955C7.98586 18.253 8.22848 17.7327 8.66043 17.3489L9.73685 16.3935C10.1769 16.023 10.7603 15.8164 11.3668 15.8164C11.9734 15.8164 12.5568 16.023 12.9968 16.3935L13.9195 17.2124C14.2097 17.0846 14.5074 16.9707 14.8114 16.8712V15.7112C14.8114 15.1682 15.0544 14.6476 15.487 14.2636C15.9195 13.8797 16.5062 13.6641 17.118 13.6641H18.6557C19.2675 13.6641 19.8542 13.8797 20.2867 14.2636C20.7193 14.6476 20.9623 15.1682 20.9623 15.7112V16.8712C21.2659 16.9663 21.5637 17.0756 21.8542 17.1987L22.7768 16.3799C23.2188 16.0112 23.8034 15.8071 24.4099 15.8096C25.0165 15.8122 25.5988 16.0212 26.0368 16.3935L27.1133 17.3489C27.5452 17.7327 27.7878 18.253 27.7878 18.7955C27.7878 19.338 27.5452 19.8583 27.1133 20.2421L26.1906 21.061C26.3294 21.3188 26.4525 21.583 26.5597 21.8525H27.8668C28.171 21.8507 28.4725 21.9023 28.7542 22.0044C29.0358 22.1065 29.2919 22.257 29.5077 22.4472C29.7235 22.6375 29.8948 22.8638 30.0117 23.1131C30.1286 23.3623 30.1887 23.6296 30.1887 23.8996V25.2644C30.1887 25.8073 29.9457 26.328 29.5131 26.7119C29.0806 27.0958 28.4939 27.3115 27.8821 27.3115H26.5751C26.4679 27.5809 26.3447 27.8452 26.206 28.103L27.1286 28.9219C27.5606 29.3057 27.8032 29.826 27.8032 30.3685C27.8032 30.911 27.5606 31.4313 27.1286 31.8151L26.0368 32.7704C25.5968 33.141 25.0134 33.3475 24.4068 33.3475C23.8003 33.3475 23.2169 33.141 22.7768 32.7704L21.8542 31.9516C21.5637 32.0747 21.2659 32.184 20.9623 32.2791V33.4392C20.9643 33.7091 20.9062 33.9768 20.7912 34.2267C20.6762 34.4767 20.5066 34.704 20.2922 34.8955C20.0778 35.0871 19.8228 35.2391 19.542 35.3428C19.2611 35.4465 18.9599 35.4999 18.6557 35.4999ZM13.6273 30.2866L14.1348 30.5323C14.6548 30.7889 15.2071 30.9905 15.7802 31.1327L16.3337 31.2692V33.4528C16.3337 33.6338 16.4147 33.8073 16.5589 33.9353C16.7031 34.0633 16.8987 34.1352 17.1026 34.1352H18.6403C18.8443 34.1352 19.0398 34.0633 19.184 33.9353C19.3282 33.8073 19.4092 33.6338 19.4092 33.4528V31.2829L19.9628 31.1464C20.5359 31.0041 21.0881 30.8026 21.6082 30.5459L22.1156 30.3003L23.8379 31.8288C23.9842 31.9547 24.18 32.0251 24.3838 32.0251C24.5876 32.0251 24.7834 31.9547 24.9297 31.8288L26.0215 30.8598C26.0935 30.7964 26.1507 30.7209 26.1898 30.6377C26.2288 30.5546 26.2489 30.4654 26.2489 30.3753C26.2489 30.2852 26.2288 30.196 26.1898 30.1129C26.1507 30.0297 26.0935 29.9543 26.0215 29.8908L24.2992 28.3623L24.576 27.912C24.8652 27.4504 25.0923 26.9603 25.2526 26.4517L25.4064 25.9604H27.8821C28.086 25.9604 28.2816 25.8885 28.4258 25.7605C28.57 25.6325 28.651 25.459 28.651 25.278V23.9133C28.651 23.7323 28.57 23.5587 28.4258 23.4308C28.2816 23.3028 28.086 23.2309 27.8821 23.2309H25.4371L25.2834 22.7396C25.123 22.231 24.896 21.7409 24.6068 21.2793L24.33 20.829L26.0368 19.2731C26.1089 19.2097 26.1661 19.1342 26.2051 19.0511C26.2442 18.9679 26.2643 18.8787 26.2643 18.7887C26.2643 18.6986 26.2442 18.6094 26.2051 18.5262C26.1661 18.4431 26.1089 18.3676 26.0368 18.3042L24.9604 17.3489C24.8141 17.223 24.6183 17.1526 24.4145 17.1526C24.2107 17.1526 24.015 17.223 23.8686 17.3489L22.1464 18.8774L21.6389 18.6317C21.1189 18.3751 20.5666 18.1735 19.9935 18.0312L19.4246 17.8811V15.7112C19.4246 15.5302 19.3436 15.3566 19.1994 15.2287C19.0552 15.1007 18.8596 15.0288 18.6557 15.0288H17.118C16.9141 15.0288 16.7185 15.1007 16.5743 15.2287C16.4301 15.3566 16.3491 15.5302 16.3491 15.7112V17.8811L15.7955 18.0176C15.2225 18.1599 14.6702 18.3614 14.1502 18.6181L13.6427 18.8637L11.9051 17.3489C11.7587 17.223 11.563 17.1526 11.3592 17.1526C11.1554 17.1526 10.9596 17.223 10.8133 17.3489L9.73685 18.3042C9.66478 18.3676 9.60758 18.4431 9.56855 18.5262C9.52951 18.6094 9.50942 18.6986 9.50942 18.7887C9.50942 18.8787 9.52951 18.9679 9.56855 19.0511C9.60758 19.1342 9.66478 19.2097 9.73685 19.2731L11.4591 20.8017L11.1823 21.252C10.8931 21.7136 10.666 22.2037 10.5057 22.7123L10.3366 23.2172H7.89156C7.68765 23.2172 7.49208 23.2891 7.34789 23.4171C7.2037 23.5451 7.1227 23.7186 7.1227 23.8996V25.2644C7.1227 25.4453 7.2037 25.6189 7.34789 25.7469C7.49208 25.8748 7.68765 25.9467 7.89156 25.9467H10.3366L10.4903 26.438C10.6506 26.9466 10.8777 27.4368 11.1669 27.8983L11.4437 28.3487L9.73685 29.8908C9.66478 29.9543 9.60758 30.0297 9.56855 30.1129C9.52951 30.196 9.50942 30.2852 9.50942 30.3753C9.50942 30.4654 9.52951 30.5546 9.56855 30.6377C9.60758 30.7209 9.66478 30.7964 9.73685 30.8598L10.8286 31.8288C10.975 31.9547 11.1707 32.0251 11.3745 32.0251C11.5783 32.0251 11.7741 31.9547 11.9204 31.8288L13.6273 30.2866Z" fill="white" stroke="white" stroke-width="0.5"/>
<path d="M7.18491 9.96734V17.1573C7.18491 17.1573 12.4052 19.9347 17.7097 19.9347C23.1825 19.9347 28.7396 17.1573 28.7396 17.1573V9.96734L17.9623 14.4059L7.18491 9.96734ZM32.9215 16.6122V14.951H32.3321V8.30611L30.5359 9.42225V14.951H29.9465V16.6122H30.5359L29.329 22.141H33.5109L32.304 16.6122H32.9215ZM29.9465 8.30611L20.3759 7.18998C20.3759 7.18998 18.692 7.68316 17.9903 7.73507C16.7835 7.83889 16.2222 7.55337 16.1941 6.61893C16.166 5.6845 16.4467 5.13941 17.9903 4.95771C19.534 4.77602 20.3759 6.07385 20.3759 6.07385L31.7427 7.73507L35.9245 6.07385L17.9623 0L0 6.0998L17.9623 13.2898L29.9465 8.30611Z" fill="white"/>
</svg>
