<svg width="35" height="26" viewBox="0 0 35 26" fill="none" xmlns="http://www.w3.org/2000/svg">
    <path d="M28.7412 0.25C28.9188 0.25156 29.0944 0.289415 29.2578 0.360352C29.4212 0.431313 29.5695 0.53445 29.6934 0.664062L29.6963 0.666992C36.4344 7.47864 36.4344 18.5214 29.6963 25.333L29.6934 25.3359C29.5695 25.4655 29.4212 25.5687 29.2578 25.6396C29.0944 25.7106 28.9188 25.7484 28.7412 25.75C28.5636 25.7515 28.3872 25.7175 28.2227 25.6494C28.0581 25.5813 27.9082 25.4809 27.7822 25.3535C27.6563 25.2262 27.5569 25.0742 27.4893 24.9072C27.4216 24.7401 27.3871 24.5606 27.3887 24.3799C27.3902 24.1992 27.4276 24.0204 27.498 23.8545C27.5685 23.6888 27.6708 23.5391 27.7988 23.4141L27.8027 23.4111C29.1554 22.0437 30.2281 20.42 30.96 18.6338C31.6918 16.8476 32.0684 14.9332 32.0684 13C32.0684 11.0668 31.6918 9.1524 30.96 7.36621C30.2281 5.57998 29.1554 3.95626 27.8027 2.58887L27.7988 2.58594C27.6708 2.46089 27.5685 2.3112 27.498 2.14551C27.4276 1.97961 27.3902 1.80083 27.3887 1.62012C27.3871 1.43939 27.4216 1.25991 27.4893 1.09277C27.5569 0.925768 27.6563 0.773815 27.7822 0.646484C27.9082 0.519129 28.0581 0.418655 28.2227 0.350586C28.3872 0.282538 28.5636 0.248465 28.7412 0.25ZM6.24316 0.290039C6.59373 0.293227 6.92998 0.435079 7.17871 0.686523C7.42742 0.938079 7.56914 1.27895 7.57227 1.63574C7.57532 1.99128 7.43998 2.33321 7.19727 2.58887C5.84462 3.95626 4.77195 5.57998 4.04004 7.36621C3.30818 9.1524 2.93164 11.0668 2.93164 13C2.93164 14.9332 3.30818 16.8476 4.04004 18.6338C4.7262 20.3084 5.71219 21.8398 6.94727 23.1514L7.19727 23.4111C7.43998 23.6668 7.57532 24.0087 7.57227 24.3643C7.56914 24.721 7.42742 25.0619 7.17871 25.3135C6.92998 25.5649 6.59373 25.7068 6.24316 25.71C5.9364 25.7127 5.63848 25.6094 5.39941 25.418L5.30078 25.3301C-1.43344 18.5192 -1.43344 7.48082 5.30078 0.669922C5.55386 0.42287 5.89249 0.286959 6.24316 0.290039ZM10.7422 4.83789C11.0928 4.84106 11.429 4.98291 11.6777 5.23438C11.9266 5.486 12.0682 5.82762 12.0713 6.18457C12.0739 6.49691 11.9701 6.79897 11.7803 7.04102L11.6934 7.14062C10.933 7.90995 10.3296 8.82278 9.91797 9.82715C9.50573 10.833 9.29395 11.9114 9.29395 13C9.29395 14.0886 9.50573 15.167 9.91797 16.1729C10.3302 17.1787 10.9353 18.0923 11.6973 18.8623L11.7002 18.8652C11.8284 18.9904 11.9305 19.1407 12.001 19.3066C12.0715 19.4725 12.1088 19.6513 12.1104 19.832C12.1119 20.0126 12.0773 20.1914 12.0098 20.3584C11.9422 20.5254 11.8427 20.6773 11.7168 20.8047C11.5908 20.932 11.4408 21.0325 11.2764 21.1006C11.1118 21.1686 10.9354 21.2037 10.7578 21.2021C10.5802 21.2006 10.4046 21.1627 10.2412 21.0918C10.0778 21.0208 9.9295 20.9177 9.80566 20.7881L9.80273 20.7852L9.43359 20.3926C8.5953 19.4575 7.92131 18.3825 7.44238 17.2139C6.895 15.8781 6.61328 14.446 6.61328 13C6.61328 11.554 6.895 10.1219 7.44238 8.78613C7.98924 7.45172 8.79009 6.23915 9.7998 5.21777C10.0529 4.97079 10.3916 4.83481 10.7422 4.83789ZM24.2422 4.79785C24.4198 4.79941 24.5954 4.83728 24.7588 4.9082C24.9222 4.97916 25.0705 5.0823 25.1943 5.21191L25.1973 5.21484C26.2083 6.23682 27.0102 7.45047 27.5576 8.78613C28.105 10.1219 28.3867 11.554 28.3867 13C28.3867 14.446 28.105 15.8781 27.5576 17.2139C27.0108 18.5483 26.2099 19.7609 25.2002 20.7822C24.9471 21.0292 24.6084 21.1652 24.2578 21.1621C23.9072 21.1589 23.571 21.0171 23.3223 20.7656C23.0734 20.514 22.9318 20.1724 22.9287 19.8154C22.9258 19.4586 23.0622 19.1153 23.3066 18.8594L23.3057 18.8584C24.066 18.0891 24.6704 17.1772 25.082 16.1729C25.4943 15.167 25.7061 14.0886 25.7061 13C25.7061 11.9114 25.4943 10.833 25.082 9.82715C24.6698 8.8213 24.0647 7.90773 23.3027 7.1377L23.2998 7.13477L23.209 7.03613C23.1227 6.93337 23.0519 6.81785 22.999 6.69336C22.9285 6.52746 22.8912 6.34869 22.8896 6.16797C22.8881 5.98742 22.9227 5.80858 22.9902 5.6416C23.0578 5.4746 23.1573 5.32266 23.2832 5.19531C23.4092 5.06799 23.5592 4.96749 23.7236 4.89941C23.8882 4.83136 24.0646 4.79631 24.2422 4.79785ZM17.5 8.4248C18.6986 8.4248 19.8489 8.90701 20.6973 9.76465C21.5455 10.6224 22.0225 11.786 22.0225 13C22.0225 14.214 21.5455 15.3776 20.6973 16.2354C19.8489 17.093 18.6986 17.5752 17.5 17.5752C16.3014 17.5752 15.1511 17.093 14.3027 16.2354C13.4545 15.3776 12.9775 14.214 12.9775 13C12.9775 11.786 13.4545 10.6224 14.3027 9.76465C15.1511 8.90701 16.3014 8.4248 17.5 8.4248Z" fill="black" stroke="white" stroke-width="0.5"/>
</svg>
