<svg width="36" height="43" viewBox="0 0 36 43" fill="none" xmlns="http://www.w3.org/2000/svg">
    <path d="M18 0.25C27.7555 0.250001 35.75 6.89827 35.75 15.1787C35.75 17.9859 34.8248 20.7045 33.082 23.0332L33.0732 23.0459C33.0658 23.058 33.054 23.0781 33.0352 23.1084C32.9974 23.169 32.9318 23.2735 32.8203 23.4492C32.5971 23.8012 32.1887 24.4403 31.4492 25.5908C29.9696 27.8927 27.1622 32.2419 21.8516 40.4297L21.8496 40.4326C20.8528 41.9287 19.517 42.75 17.9492 42.75C16.4348 42.7499 15.0463 41.9313 14.0977 40.4297L7.59082 30.3457C6.00232 27.8824 4.93623 26.2281 4.22168 25.1143C3.50753 24.001 3.14331 23.4258 2.95703 23.124C2.86479 22.9746 2.81229 22.8861 2.7832 22.8311C2.77048 22.807 2.75813 22.7811 2.74805 22.7529C1.11685 20.5535 0.25 17.8877 0.25 15.1787C0.250048 6.89827 8.24453 0.25 18 0.25ZM18 2.44727C9.54744 2.44727 2.77349 8.18649 2.77344 15.1787C2.77344 17.3546 3.42407 19.4955 4.72949 21.3975L5 21.7744L5.00977 21.7891L5.01855 21.8037C5.16541 22.0704 7.22953 25.2809 9.64941 29.0322L16.3389 39.3945V39.3955C16.8422 40.1795 17.4318 40.5215 17.9814 40.5215C18.5327 40.5213 19.1351 40.1771 19.6641 39.3906C23.4563 33.5378 30.6379 22.381 30.8916 21.998L30.8984 21.9873L31.1787 21.5947C32.533 19.6159 33.2263 17.4351 33.2266 15.2227C33.177 8.18531 26.4001 2.44727 18 2.44727Z" fill="black" stroke="black" stroke-width="0.5"/>
    <path d="M17.9995 7.50439C23.4568 7.50439 27.9106 11.2267 27.9106 15.8579C27.9103 20.4882 23.4069 24.2524 17.9995 24.2524C12.5424 24.2523 8.08939 20.531 8.08936 15.8999C8.08936 11.2703 12.5405 7.50451 17.9995 7.50439ZM17.9995 9.70166C13.8967 9.70177 10.6128 12.5142 10.6128 15.8579C10.6131 19.2014 13.8969 22.0131 17.9995 22.0132C22.1022 22.0132 25.3869 19.2015 25.3872 15.8579C25.3872 12.5141 22.1024 9.70166 17.9995 9.70166Z" fill="black" stroke="black" stroke-width="0.5"/>
</svg>
