<svg width="36" height="33" viewBox="0 0 36 33" fill="none" xmlns="http://www.w3.org/2000/svg">
    <path d="M3.3406 4.01221H32.1037C33.0231 4.01221 33.8584 4.38999 34.4636 4.99857C35.0687 5.60717 35.4443 6.44726 35.4443 7.37186V29.6402C35.4443 30.5647 35.0687 31.4048 34.4636 32.0134C33.8584 32.622 33.0231 32.9998 32.1037 32.9998H3.3406C2.42125 32.9998 1.5859 32.622 0.980761 32.0134C0.375642 31.4048 0 30.5647 0 29.6402V7.37186C0 6.44726 0.375642 5.60716 0.980761 4.99857C1.5859 4.38999 2.42126 4.01221 3.3406 4.01221ZM32.1037 5.38724H3.3406C2.79863 5.38724 2.30539 5.61075 1.94741 5.97074C1.58945 6.33077 1.36722 6.8268 1.36722 7.37186V29.6402C1.36722 30.1852 1.58945 30.6812 1.94741 31.0413C2.30539 31.4013 2.79863 31.6248 3.3406 31.6248H32.1037C32.6457 31.6248 33.1389 31.4013 33.4969 31.0413C33.8549 30.6812 34.0771 30.1852 34.0771 29.6402V7.37186C34.0771 6.8268 33.8549 6.33077 33.4969 5.97074C33.1389 5.61075 32.6457 5.38724 32.1037 5.38724Z" fill="black"/>
    <path d="M0.683612 11.144C0.30608 11.144 0 11.4519 0 11.8316C0 12.2112 0.30608 12.5191 0.683612 12.5191H34.7608C35.1384 12.5191 35.4444 12.2112 35.4444 11.8316C35.4444 11.4519 35.1384 11.144 34.7608 11.144H0.683612Z" fill="black"/>
    <path d="M6.80037 5.94775C7.43672 5.94775 8.01293 6.20724 8.43005 6.62672C8.84712 7.04622 9.10516 7.62572 9.10516 8.2657C9.10516 8.90569 8.84712 9.48521 8.43005 9.90466C8.01293 10.3241 7.43672 10.5836 6.80037 10.5836C6.16402 10.5836 5.58779 10.3241 5.17072 9.90466C4.75362 9.48516 4.49561 8.90567 4.49561 8.2657C4.49561 7.62572 4.75364 7.04622 5.17072 6.62672C5.58779 6.20727 6.16402 5.94775 6.80037 5.94775ZM7.46339 7.59889C7.29379 7.42832 7.05934 7.32279 6.80037 7.32279C6.5414 7.32279 6.30697 7.42832 6.13737 7.59889C5.96777 7.76947 5.86283 8.00525 5.86283 8.2657C5.86283 8.52615 5.96777 8.76192 6.13737 8.93249C6.30697 9.10306 6.5414 9.2086 6.80037 9.2086C7.05934 9.2086 7.29379 9.10306 7.46339 8.93249C7.633 8.76192 7.73793 8.52616 7.73793 8.2657C7.73793 8.00525 7.633 7.76946 7.46339 7.59889Z" fill="black"/>
    <path d="M28.6441 5.94775C29.2805 5.94775 29.8567 6.20726 30.2738 6.62672C30.6909 7.04622 30.9489 7.62572 30.9489 8.2657C30.9489 8.90567 30.6909 9.48516 30.2738 9.90466C29.8567 10.3241 29.2805 10.5836 28.6441 10.5836C28.0078 10.5836 27.4316 10.3241 27.0145 9.90466C26.5974 9.48521 26.3394 8.90569 26.3394 8.2657C26.3394 7.62572 26.5974 7.04622 27.0145 6.62672C27.4316 6.20724 28.0078 5.94775 28.6441 5.94775ZM29.3071 7.59889C29.1375 7.42832 28.9031 7.32279 28.6441 7.32279C28.3852 7.32279 28.1507 7.42832 27.9811 7.59889C27.8115 7.76947 27.7066 8.00525 27.7066 8.2657C27.7066 8.52615 27.8115 8.76192 27.9811 8.93249C28.1507 9.10306 28.3852 9.2086 28.6441 9.2086C28.9031 9.2086 29.1375 9.10306 29.3071 8.93249C29.4767 8.76192 29.5817 8.52616 29.5817 8.2657C29.5817 8.00525 29.4767 7.76946 29.3071 7.59889Z" fill="black"/>
    <path d="M7.48392 0.687516C7.48392 0.307827 7.17784 0 6.80031 0C6.42278 0 6.1167 0.307827 6.1167 0.687516V6.63814C6.1167 7.01783 6.42278 7.32565 6.80031 7.32565C7.17784 7.32565 7.48392 7.01783 7.48392 6.63814V0.687516Z" fill="black"/>
    <path d="M29.3274 0.687516C29.3274 0.307827 29.0213 0 28.6438 0C28.2663 0 27.9602 0.307827 27.9602 0.687516V6.63814C27.9602 7.01783 28.2663 7.32565 28.6438 7.32565C29.0213 7.32565 29.3274 7.01783 29.3274 6.63814V0.687516Z" fill="black"/>
    <path d="M15.8357 14.7036C15.4582 14.7036 15.1521 15.0114 15.1521 15.3911C15.1521 15.7708 15.4582 16.0786 15.8357 16.0786H18.2802C18.6577 16.0786 18.9638 15.7708 18.9638 15.3911C18.9638 15.0114 18.6577 14.7036 18.2802 14.7036H15.8357Z" fill="black"/>
    <path d="M22.3718 14.7036C21.9943 14.7036 21.6882 15.0114 21.6882 15.3911C21.6882 15.7708 21.9943 16.0786 22.3718 16.0786H24.8163C25.1938 16.0786 25.4999 15.7708 25.4999 15.3911C25.4999 15.0114 25.1938 14.7036 24.8163 14.7036H22.3718Z" fill="black"/>
    <path d="M28.5718 14.7036C28.1943 14.7036 27.8882 15.0114 27.8882 15.3911C27.8882 15.7708 28.1943 16.0786 28.5718 16.0786H31.0162C31.3938 16.0786 31.6999 15.7708 31.6999 15.3911C31.6999 15.0114 31.3938 14.7036 31.0162 14.7036H28.5718Z" fill="black"/>
    <path d="M4.42849 19.1572C4.05095 19.1572 3.74487 19.4651 3.74487 19.8447C3.74487 20.2244 4.05095 20.5323 4.42849 20.5323H6.87294C7.25047 20.5323 7.55655 20.2244 7.55655 19.8447C7.55655 19.4651 7.25047 19.1572 6.87294 19.1572H4.42849Z" fill="black"/>
    <path d="M10.1319 19.1572C9.75432 19.1572 9.44824 19.4651 9.44824 19.8447C9.44824 20.2244 9.75432 20.5323 10.1319 20.5323H12.5763C12.9539 20.5323 13.2599 20.2244 13.2599 19.8447C13.2599 19.4651 12.9539 19.1572 12.5763 19.1572H10.1319Z" fill="black"/>
    <path d="M15.8357 19.1572C15.4582 19.1572 15.1521 19.4651 15.1521 19.8447C15.1521 20.2244 15.4582 20.5323 15.8357 20.5323H18.2802C18.6577 20.5323 18.9638 20.2244 18.9638 19.8447C18.9638 19.4651 18.6577 19.1572 18.2802 19.1572H15.8357Z" fill="black"/>
    <path d="M22.3718 19.1572C21.9943 19.1572 21.6882 19.4651 21.6882 19.8447C21.6882 20.2244 21.9943 20.5323 22.3718 20.5323H24.8163C25.1938 20.5323 25.4999 20.2244 25.4999 19.8447C25.4999 19.4651 25.1938 19.1572 24.8163 19.1572H22.3718Z" fill="black"/>
    <path d="M28.5718 19.1572C28.1943 19.1572 27.8882 19.4651 27.8882 19.8447C27.8882 20.2244 28.1943 20.5323 28.5718 20.5323H31.0162C31.3938 20.5323 31.6999 20.2244 31.6999 19.8447C31.6999 19.4651 31.3938 19.1572 31.0162 19.1572H28.5718Z" fill="black"/>
    <path d="M4.42849 23.6108C4.05095 23.6108 3.74487 23.9187 3.74487 24.2984C3.74487 24.678 4.05095 24.9859 4.42849 24.9859H6.87294C7.25047 24.9859 7.55655 24.678 7.55655 24.2984C7.55655 23.9187 7.25047 23.6108 6.87294 23.6108H4.42849Z" fill="black"/>
    <path d="M10.1319 23.6108C9.75432 23.6108 9.44824 23.9187 9.44824 24.2984C9.44824 24.678 9.75432 24.9859 10.1319 24.9859H12.5763C12.9539 24.9859 13.2599 24.678 13.2599 24.2984C13.2599 23.9187 12.9539 23.6108 12.5763 23.6108H10.1319Z" fill="black"/>
    <path d="M15.8357 23.6108C15.4582 23.6108 15.1521 23.9187 15.1521 24.2984C15.1521 24.678 15.4582 24.9859 15.8357 24.9859H18.2802C18.6577 24.9859 18.9638 24.678 18.9638 24.2984C18.9638 23.9187 18.6577 23.6108 18.2802 23.6108H15.8357Z" fill="black"/>
    <path d="M22.3718 23.6108C21.9943 23.6108 21.6882 23.9187 21.6882 24.2984C21.6882 24.678 21.9943 24.9859 22.3718 24.9859H24.8163C25.1938 24.9859 25.4999 24.678 25.4999 24.2984C25.4999 23.9187 25.1938 23.6108 24.8163 23.6108H22.3718Z" fill="black"/>
    <path d="M28.5718 23.6108C28.1943 23.6108 27.8882 23.9187 27.8882 24.2984C27.8882 24.678 28.1943 24.9859 28.5718 24.9859H31.0162C31.3938 24.9859 31.6999 24.678 31.6999 24.2984C31.6999 23.9187 31.3938 23.6108 31.0162 23.6108H28.5718Z" fill="black"/>
    <path d="M4.42849 28.0649C4.05095 28.0649 3.74487 28.3728 3.74487 28.7525C3.74487 29.1321 4.05095 29.44 4.42849 29.44H6.87294C7.25047 29.44 7.55655 29.1321 7.55655 28.7525C7.55655 28.3728 7.25047 28.0649 6.87294 28.0649H4.42849Z" fill="black"/>
    <path d="M10.1319 28.0649C9.75432 28.0649 9.44824 28.3728 9.44824 28.7525C9.44824 29.1321 9.75432 29.44 10.1319 29.44H12.5763C12.9539 29.44 13.2599 29.1321 13.2599 28.7525C13.2599 28.3728 12.9539 28.0649 12.5763 28.0649H10.1319Z" fill="black"/>
    <path d="M15.8357 28.0649C15.4582 28.0649 15.1521 28.3728 15.1521 28.7525C15.1521 29.1321 15.4582 29.44 15.8357 29.44H18.2802C18.6577 29.44 18.9638 29.1321 18.9638 28.7525C18.9638 28.3728 18.6577 28.0649 18.2802 28.0649H15.8357Z" fill="black"/>
</svg>