<svg width="80" height="80" viewBox="0 0 80 80" fill="none" xmlns="http://www.w3.org/2000/svg">
<circle cx="40" cy="40" r="37" fill="white" stroke="#13B7B3" stroke-width="6"/>
<path d="M63.711 23.6128L41.0958 16.0964C40.7089 15.9679 40.2907 15.9679 39.9038 16.0964L17.2886 23.6128C16.9133 23.7375 16.587 23.9768 16.3557 24.2968C16.1244 24.6168 16 25.0012 16 25.3956V44.1865C16 44.6849 16.1986 45.1629 16.552 45.5153C16.9054 45.8677 17.3848 46.0656 17.8846 46.0656C18.3844 46.0656 18.8638 45.8677 19.2172 45.5153C19.5706 45.1629 19.7692 44.6849 19.7692 44.1865V28.0028L27.6822 30.6312C25.5798 34.0178 24.9112 38.0979 25.8233 41.9756C26.7354 45.8532 29.1535 49.2115 32.5468 51.313C28.3064 52.9713 24.6409 55.9708 21.96 60.0719C21.8206 60.2785 21.7238 60.5107 21.6751 60.755C21.6265 60.9993 21.6271 61.2507 21.6767 61.4948C21.7264 61.7388 21.8243 61.9706 21.9646 62.1766C22.1049 62.3826 22.2849 62.5588 22.4941 62.6948C22.7033 62.8309 22.9375 62.9241 23.1832 62.9691C23.4288 63.0141 23.681 63.0099 23.925 62.9569C24.169 62.9039 24.4001 62.803 24.6047 62.6602C24.8092 62.5173 24.9833 62.3354 25.1167 62.1248C28.6669 56.6943 34.2735 53.582 40.4998 53.582C46.726 53.582 52.3327 56.6943 55.8828 62.1248C56.1592 62.5345 56.5862 62.8192 57.0715 62.9174C57.5568 63.0156 58.0613 62.9195 58.476 62.6498C58.8908 62.3801 59.1824 61.9584 59.2878 61.476C59.3933 60.9937 59.3041 60.4893 59.0395 60.0719C56.3587 55.9708 52.679 52.9713 48.4528 51.313C51.8428 49.2116 54.2586 45.8555 55.1706 41.9807C56.0825 38.1059 55.4161 34.0286 53.3174 30.643L63.711 27.1901C64.0863 27.0655 64.4128 26.8262 64.6441 26.5062C64.8755 26.1863 65 25.8018 65 25.4074C65 25.0129 64.8755 24.6284 64.6441 24.3085C64.4128 23.9885 64.0863 23.7492 63.711 23.6246V23.6128ZM51.8074 38.5493C51.8079 40.3317 51.3845 42.0889 50.5721 43.6766C49.7596 45.2643 48.5811 46.6374 47.1334 47.683C45.6857 48.7287 44.0099 49.4173 42.2436 49.6921C40.4774 49.967 38.6709 49.8204 36.9724 49.2644C35.2739 48.7084 33.7319 47.7587 32.4728 46.4934C31.2137 45.2281 30.2734 43.6832 29.7291 41.9853C29.1848 40.2875 29.052 38.4852 29.3415 36.7263C29.6311 34.9674 30.3347 33.302 31.3948 31.8667L39.9038 34.6854C40.2907 34.814 40.7089 34.814 41.0958 34.6854L49.6048 31.8667C51.0366 33.8022 51.8085 36.1443 51.8074 38.5493ZM40.4998 30.9319L23.8446 25.3956L40.4998 19.8593L57.1549 25.3956L40.4998 30.9319Z" fill="#13B7B3"/>
</svg>
