<svg width="38" height="38" viewBox="0 0 38 38" fill="none" xmlns="http://www.w3.org/2000/svg">
    <path d="M1.5 32.125C1.5 29.8044 2.42187 27.5788 4.06282 25.9378C5.70376 24.2969 7.92936 23.375 10.25 23.375H27.75C30.0706 23.375 32.2962 24.2969 33.9372 25.9378C35.5781 27.5788 36.5 29.8044 36.5 32.125C36.5 33.2853 36.0391 34.3981 35.2186 35.2186C34.3981 36.0391 33.2853 36.5 32.125 36.5H5.875C4.71468 36.5 3.60188 36.0391 2.78141 35.2186C1.96094 34.3981 1.5 33.2853 1.5 32.125Z" stroke="black" stroke-width="3" stroke-linejoin="round"/>
    <path d="M19 14.625C22.6244 14.625 25.5625 11.6869 25.5625 8.0625C25.5625 4.43813 22.6244 1.5 19 1.5C15.3756 1.5 12.4375 4.43813 12.4375 8.0625C12.4375 11.6869 15.3756 14.625 19 14.625Z" stroke="black" stroke-width="3"/>
</svg>
