<svg width="36" height="36" viewBox="0 0 36 36" fill="none" xmlns="http://www.w3.org/2000/svg">
    <path d="M18.4404 0.255859C22.9871 0.372388 27.3229 2.22918 30.5469 5.45312C33.8747 8.78097 35.7459 13.2937 35.75 18C35.75 21.5106 34.7091 24.9424 32.7588 27.8613C30.8085 30.7802 28.0362 33.055 24.793 34.3984C21.5496 35.7419 17.9803 36.0941 14.5371 35.4092C11.0939 34.7243 7.9316 33.0332 5.44922 30.5508C2.96684 28.0684 1.27571 24.9061 0.59082 21.4629C-0.0940649 18.0197 0.258108 14.4504 1.60156 11.207C2.94504 7.96383 5.21983 5.19152 8.13867 3.24121C11.0576 1.29087 14.4894 0.250001 18 0.25L18.4404 0.255859ZM24.0186 3.46875C21.1447 2.27846 17.9825 1.96737 14.9316 2.57422C11.8807 3.1811 9.07854 4.67927 6.87891 6.87891C4.67927 9.07854 3.1811 11.8807 2.57422 14.9316C1.96738 17.9825 2.27846 21.1447 3.46875 24.0186C4.65914 26.8924 6.67536 29.3489 9.26172 31.0771C11.8482 32.8054 14.8892 33.7285 18 33.7285L18.3906 33.7227C22.4191 33.6189 26.2606 31.9737 29.1172 29.1172C32.0659 26.1684 33.7245 22.1702 33.7285 18C33.7285 14.8892 32.8054 11.8482 31.0771 9.26172C29.3489 6.67536 26.8924 4.65914 24.0186 3.46875Z" fill="black" stroke="black" stroke-width="0.5"/>
    <path d="M17.9998 6.33691C18.2678 6.33691 18.525 6.44332 18.7146 6.63281C18.9041 6.82236 19.0105 7.0796 19.0105 7.34766V18.043L26.2966 24.8789L26.2996 24.8809C26.4438 25.0199 26.5432 25.1988 26.5857 25.3945C26.6281 25.5903 26.6115 25.7942 26.5378 25.9805C26.4642 26.1666 26.3372 26.3267 26.1726 26.4404C26.0085 26.5537 25.8143 26.6148 25.615 26.6182L25.616 26.6191C25.6147 26.6192 25.6134 26.6181 25.6121 26.6182V26.6191L25.6111 26.6182C25.4813 26.6214 25.3522 26.5992 25.2322 26.5498C25.1151 26.5016 25.0092 26.4293 24.9207 26.3389L17.3113 19.2168V19.2158C17.2104 19.1243 17.1294 19.0132 17.074 18.8887C17.0176 18.7619 16.9884 18.6241 16.989 18.4854V7.34766C16.989 7.07961 17.0954 6.82236 17.2849 6.63281C17.4745 6.44327 17.7317 6.33695 17.9998 6.33691Z" fill="black" stroke="black" stroke-width="0.5"/>
</svg>
