<svg width="24" height="18" viewBox="0 0 24 18" fill="none" xmlns="http://www.w3.org/2000/svg">
<path d="M21.5831 0C22.2576 0 22.829 0.219298 23.2974 0.657895C23.7658 1.09649 24 1.63158 24 2.26316V15.7368C24 16.3684 23.7658 16.9035 23.2974 17.3421C22.829 17.7807 22.2576 18 21.5831 18H2.41686C1.74239 18 1.17096 17.7807 0.702576 17.3421C0.234192 16.9035 0 16.3684 0 15.7368V2.26316C0 1.63158 0.234192 1.09649 0.702576 0.657895C1.17096 0.219298 1.74239 0 2.41686 0H21.5831ZM21.5831 15.7368V9H2.41686V15.7368H21.5831ZM21.5831 4.52632V2.26316H2.41686V4.52632H21.5831Z" fill="white"/>
</svg>
