<svg width="32" height="32" viewBox="0 0 32 32" fill="none" xmlns="http://www.w3.org/2000/svg">
<path d="M30.7244 3.23172H27.8207V2.42764C27.8207 1.8501 27.5913 1.2962 27.1829 0.887816C26.7745 0.479429 26.2206 0.25 25.6431 0.25C25.0656 0.25 24.5117 0.479429 24.1033 0.887816C23.6949 1.2962 23.4655 1.8501 23.4655 2.42764V3.23172H8.03454V2.42764C8.03454 1.8501 7.80511 1.2962 7.39673 0.887816C6.98834 0.479429 6.43445 0.25 5.8569 0.25C5.27935 0.25 4.72546 0.479429 4.31708 0.887816C3.90869 1.2962 3.67926 1.8501 3.67926 2.42764V3.23172H0.775638C0.63623 3.23172 0.502532 3.2871 0.403956 3.38567C0.305379 3.48425 0.25 3.61795 0.25 3.75735V30.7244C0.25008 30.8637 0.305485 30.9974 0.404044 31.096C0.502602 31.1945 0.636254 31.2499 0.775638 31.25H30.7244C30.8637 31.2499 30.9974 31.1945 31.096 31.096C31.1945 30.9974 31.2499 30.8637 31.25 30.7244V3.75735C31.25 3.61795 31.1946 3.48425 31.096 3.38567C30.9975 3.2871 30.8638 3.23172 30.7244 3.23172ZM24.5167 2.42764C24.5167 2.12891 24.6354 1.84242 24.8466 1.63118C25.0579 1.41995 25.3444 1.30128 25.6431 1.30128C25.9418 1.30128 26.2283 1.41995 26.4396 1.63118C26.6508 1.84242 26.7695 2.12891 26.7695 2.42764V5.08707C26.7695 5.3858 26.6508 5.67229 26.4396 5.88353C26.2283 6.09476 25.9418 6.21343 25.6431 6.21343C25.3444 6.21343 25.0579 6.09476 24.8466 5.88353C24.6354 5.67229 24.5167 5.3858 24.5167 5.08707V2.42764ZM4.73054 2.42764C4.73054 2.12891 4.84921 1.84242 5.06044 1.63118C5.27168 1.41995 5.55817 1.30128 5.8569 1.30128C6.15563 1.30128 6.44213 1.41995 6.65336 1.63118C6.8646 1.84242 6.98327 2.12891 6.98327 2.42764V5.08707C6.98327 5.3858 6.8646 5.67229 6.65336 5.88353C6.44213 6.09476 6.15563 6.21343 5.8569 6.21343C5.55817 6.21343 5.27168 6.09476 5.06044 5.88353C4.84921 5.67229 4.73054 5.3858 4.73054 5.08707V2.42764ZM3.67926 4.28299V5.08707C3.67926 5.66461 3.90869 6.21851 4.31708 6.62689C4.72546 7.03528 5.27935 7.26471 5.8569 7.26471C6.43445 7.26471 6.98834 7.03528 7.39673 6.62689C7.80511 6.21851 8.03454 5.66461 8.03454 5.08707V4.28299H23.4655V5.08707C23.4655 5.66461 23.6949 6.21851 24.1033 6.62689C24.5117 7.03528 25.0656 7.26471 25.6431 7.26471C26.2206 7.26471 26.7745 7.03528 27.1829 6.62689C27.5913 6.21851 27.8207 5.66461 27.8207 5.08707V4.28299H30.1975V9.80279H1.30248V4.28299H3.67926ZM1.30248 30.1975V10.8541H30.1975V30.1975H1.30248Z" fill="white" stroke="white" stroke-width="0.5"/>
<path d="M8.60141 13.3472H5.98194C5.9129 13.3471 5.84453 13.3607 5.78074 13.3871C5.71695 13.4135 5.65898 13.4522 5.61017 13.501C5.56135 13.5499 5.52263 13.6078 5.49623 13.6716C5.46983 13.7354 5.45626 13.8038 5.4563 13.8728V16.4917C5.45626 16.5607 5.46983 16.6291 5.49623 16.6929C5.52263 16.7567 5.56135 16.8146 5.61017 16.8635C5.65898 16.9123 5.71695 16.951 5.78074 16.9774C5.84453 17.0038 5.9129 17.0174 5.98194 17.0173H8.60141C8.67045 17.0174 8.73882 17.0038 8.80261 16.9774C8.8664 16.951 8.92437 16.9123 8.97318 16.8635C9.022 16.8146 9.06072 16.7567 9.08712 16.6929C9.11352 16.6291 9.12709 16.5607 9.12705 16.4917V13.8728C9.12709 13.8038 9.11352 13.7354 9.08712 13.6716C9.06072 13.6078 9.022 13.5499 8.97318 13.501C8.92437 13.4522 8.8664 13.4135 8.80261 13.3871C8.73882 13.3607 8.67045 13.3471 8.60141 13.3472ZM8.07578 15.966H6.50757V14.3984H8.07487L8.07578 15.966Z" fill="white" stroke="white" stroke-width="0.5"/>
<path d="M14.2397 13.3472H11.6209C11.4814 13.3472 11.3477 13.4025 11.2492 13.5011C11.1506 13.5997 11.0952 13.7334 11.0952 13.8728V16.4917C11.0952 16.6311 11.1506 16.7648 11.2492 16.8634C11.3477 16.9619 11.4814 17.0173 11.6209 17.0173H14.2397C14.3791 17.0173 14.5128 16.9619 14.6114 16.8634C14.71 16.7648 14.7654 16.6311 14.7654 16.4917V13.8728C14.7654 13.7334 14.71 13.5997 14.6114 13.5011C14.5128 13.4025 14.3791 13.3472 14.2397 13.3472ZM13.7141 15.966H12.1456V14.3984H13.7132L13.7141 15.966Z" fill="white" stroke="white" stroke-width="0.5"/>
<path d="M19.8791 13.3472H17.2603C17.1208 13.3472 16.9872 13.4025 16.8886 13.5011C16.79 13.5997 16.7346 13.7334 16.7346 13.8728V16.4917C16.7346 16.6311 16.79 16.7648 16.8886 16.8634C16.9872 16.9619 17.1208 17.0173 17.2603 17.0173H19.8791C19.9482 17.0174 20.0165 17.0038 20.0803 16.9774C20.1441 16.951 20.2021 16.9123 20.2509 16.8635C20.2997 16.8146 20.3384 16.7567 20.3648 16.6929C20.3912 16.6291 20.4048 16.5607 20.4048 16.4917V13.8728C20.4048 13.8038 20.3912 13.7354 20.3648 13.6716C20.3384 13.6078 20.2997 13.5499 20.2509 13.501C20.2021 13.4522 20.1441 13.4135 20.0803 13.3871C20.0165 13.3607 19.9482 13.3471 19.8791 13.3472ZM19.3544 15.966H17.7859V14.3984H19.3544V15.966Z" fill="white" stroke="white" stroke-width="0.5"/>
<path d="M25.5182 13.3472H22.8987C22.8296 13.3471 22.7613 13.3607 22.6975 13.3871C22.6337 13.4135 22.5757 13.4522 22.5269 13.501C22.4781 13.5499 22.4394 13.6078 22.413 13.6716C22.3866 13.7354 22.373 13.8038 22.373 13.8728V16.4917C22.373 16.5607 22.3866 16.6291 22.413 16.6929C22.4394 16.7567 22.4781 16.8146 22.5269 16.8635C22.5757 16.9123 22.6337 16.951 22.6975 16.9774C22.7613 17.0038 22.8296 17.0174 22.8987 17.0173H25.5173C25.5863 17.0174 25.6547 17.0038 25.7185 16.9774C25.7823 16.951 25.8402 16.9123 25.889 16.8635C25.9378 16.8146 25.9766 16.7567 26.003 16.6929C26.0294 16.6291 26.0429 16.5607 26.0429 16.4917V13.8728C26.043 13.7335 25.9877 13.5999 25.8893 13.5014C25.7909 13.4028 25.6574 13.3473 25.5182 13.3472ZM24.9925 15.966H23.4252V14.3984H24.9925V15.966Z" fill="white" stroke="white" stroke-width="0.5"/>
<path d="M8.60141 18.7539H5.98194C5.9129 18.7539 5.84453 18.7674 5.78074 18.7938C5.71695 18.8202 5.65898 18.859 5.61017 18.9078C5.56135 18.9566 5.52263 19.0146 5.49623 19.0783C5.46983 19.1421 5.45626 19.2105 5.4563 19.2795V21.8984C5.45626 21.9675 5.46983 22.0358 5.49623 22.0996C5.52263 22.1634 5.56135 22.2214 5.61017 22.2702C5.65898 22.319 5.71695 22.3577 5.78074 22.3841C5.84453 22.4105 5.9129 22.4241 5.98194 22.4241H8.60141C8.67045 22.4241 8.73882 22.4105 8.80261 22.3841C8.8664 22.3577 8.92437 22.319 8.97318 22.2702C9.022 22.2214 9.06072 22.1634 9.08712 22.0996C9.11352 22.0358 9.12709 21.9675 9.12705 21.8984V19.2795C9.12709 19.2105 9.11352 19.1421 9.08712 19.0783C9.06072 19.0146 9.022 18.9566 8.97318 18.9078C8.92437 18.859 8.8664 18.8202 8.80261 18.7938C8.73882 18.7674 8.67045 18.7539 8.60141 18.7539ZM8.07578 21.3728H6.50757V19.8052H8.07487L8.07578 21.3728Z" fill="white" stroke="white" stroke-width="0.5"/>
<path d="M14.2397 18.7539H11.6209C11.4814 18.7539 11.3477 18.8093 11.2492 18.9079C11.1506 19.0064 11.0952 19.1401 11.0952 19.2795V21.8984C11.0952 22.0378 11.1506 22.1715 11.2492 22.2701C11.3477 22.3687 11.4814 22.4241 11.6209 22.4241H14.2397C14.3791 22.4241 14.5128 22.3687 14.6114 22.2701C14.71 22.1715 14.7654 22.0378 14.7654 21.8984V19.2795C14.7654 19.1401 14.71 19.0064 14.6114 18.9079C14.5128 18.8093 14.3791 18.7539 14.2397 18.7539ZM13.7141 21.3728H12.1456V19.8052H13.7132L13.7141 21.3728Z" fill="white" stroke="white" stroke-width="0.5"/>
<path d="M19.8791 18.7539H17.2603C17.1208 18.7539 16.9872 18.8093 16.8886 18.9079C16.79 19.0064 16.7346 19.1401 16.7346 19.2795V21.8984C16.7346 22.0378 16.79 22.1715 16.8886 22.2701C16.9872 22.3687 17.1208 22.4241 17.2603 22.4241H19.8791C19.9482 22.4241 20.0165 22.4105 20.0803 22.3841C20.1441 22.3577 20.2021 22.319 20.2509 22.2702C20.2997 22.2214 20.3384 22.1634 20.3648 22.0996C20.3912 22.0358 20.4048 21.9675 20.4048 21.8984V19.2795C20.4048 19.2105 20.3912 19.1421 20.3648 19.0783C20.3384 19.0146 20.2997 18.9566 20.2509 18.9078C20.2021 18.859 20.1441 18.8202 20.0803 18.7938C20.0165 18.7674 19.9482 18.7539 19.8791 18.7539ZM19.3544 21.3728H17.7859V19.8052H19.3544V21.3728Z" fill="white" stroke="white" stroke-width="0.5"/>
<path d="M25.5182 18.7539H22.8987C22.8296 18.7539 22.7613 18.7674 22.6975 18.7938C22.6337 18.8202 22.5757 18.859 22.5269 18.9078C22.4781 18.9566 22.4394 19.0146 22.413 19.0783C22.3866 19.1421 22.373 19.2105 22.373 19.2795V21.8984C22.373 21.9675 22.3866 22.0358 22.413 22.0996C22.4394 22.1634 22.4781 22.2214 22.5269 22.2702C22.5757 22.319 22.6337 22.3577 22.6975 22.3841C22.7613 22.4105 22.8296 22.4241 22.8987 22.4241H25.5173C25.5863 22.4241 25.6547 22.4105 25.7185 22.3841C25.7823 22.3577 25.8402 22.319 25.889 22.2702C25.9378 22.2214 25.9766 22.1634 26.003 22.0996C26.0294 22.0358 26.0429 21.9675 26.0429 21.8984V19.2795C26.043 19.1403 25.9877 19.0067 25.8893 18.9081C25.7909 18.8095 25.6574 18.7541 25.5182 18.7539ZM24.9925 21.3728H23.4252V19.8052H24.9925V21.3728Z" fill="white" stroke="white" stroke-width="0.5"/>
<path d="M8.60141 24.1602H5.98194C5.9129 24.1601 5.84453 24.1737 5.78074 24.2001C5.71695 24.2265 5.65898 24.2652 5.61017 24.314C5.56135 24.3628 5.52263 24.4208 5.49623 24.4846C5.46983 24.5484 5.45626 24.6168 5.4563 24.6858V27.3047C5.45626 27.3737 5.46983 27.4421 5.49623 27.5059C5.52263 27.5697 5.56135 27.6276 5.61017 27.6764C5.65898 27.7253 5.71695 27.764 5.78074 27.7904C5.84453 27.8168 5.9129 27.8303 5.98194 27.8303H8.60141C8.67045 27.8303 8.73882 27.8168 8.80261 27.7904C8.8664 27.764 8.92437 27.7253 8.97318 27.6764C9.022 27.6276 9.06072 27.5697 9.08712 27.5059C9.11352 27.4421 9.12709 27.3737 9.12705 27.3047V24.6858C9.12709 24.6168 9.11352 24.5484 9.08712 24.4846C9.06072 24.4208 9.022 24.3628 8.97318 24.314C8.92437 24.2652 8.8664 24.2265 8.80261 24.2001C8.73882 24.1737 8.67045 24.1601 8.60141 24.1602ZM8.07578 26.779H6.50757V25.2114H8.07487L8.07578 26.779Z" fill="white" stroke="white" stroke-width="0.5"/>
<path d="M14.2397 24.1602H11.6209C11.4814 24.1602 11.3477 24.2155 11.2492 24.3141C11.1506 24.4127 11.0952 24.5464 11.0952 24.6858V27.3047C11.0952 27.4441 11.1506 27.5778 11.2492 27.6764C11.3477 27.7749 11.4814 27.8303 11.6209 27.8303H14.2397C14.3791 27.8303 14.5128 27.7749 14.6114 27.6764C14.71 27.5778 14.7654 27.4441 14.7654 27.3047V24.6858C14.7654 24.5464 14.71 24.4127 14.6114 24.3141C14.5128 24.2155 14.3791 24.1602 14.2397 24.1602ZM13.7141 26.779H12.1456V25.2114H13.7132L13.7141 26.779Z" fill="white" stroke="white" stroke-width="0.5"/>
<path d="M19.8791 24.1602H17.2603C17.1208 24.1602 16.9872 24.2155 16.8886 24.3141C16.79 24.4127 16.7346 24.5464 16.7346 24.6858V27.3047C16.7346 27.4441 16.79 27.5778 16.8886 27.6764C16.9872 27.7749 17.1208 27.8303 17.2603 27.8303H19.8791C19.9482 27.8303 20.0165 27.8168 20.0803 27.7904C20.1441 27.764 20.2021 27.7253 20.2509 27.6764C20.2997 27.6276 20.3384 27.5697 20.3648 27.5059C20.3912 27.4421 20.4048 27.3737 20.4048 27.3047V24.6858C20.4048 24.6168 20.3912 24.5484 20.3648 24.4846C20.3384 24.4208 20.2997 24.3628 20.2509 24.314C20.2021 24.2652 20.1441 24.2265 20.0803 24.2001C20.0165 24.1737 19.9482 24.1601 19.8791 24.1602ZM19.3544 26.779H17.7859V25.2114H19.3544V26.779Z" fill="white" stroke="white" stroke-width="0.5"/>
<path d="M25.5182 24.1602H22.8987C22.8296 24.1601 22.7613 24.1737 22.6975 24.2001C22.6337 24.2265 22.5757 24.2652 22.5269 24.314C22.4781 24.3628 22.4394 24.4208 22.413 24.4846C22.3866 24.5484 22.373 24.6168 22.373 24.6858V27.3047C22.373 27.3737 22.3866 27.4421 22.413 27.5059C22.4394 27.5697 22.4781 27.6276 22.5269 27.6764C22.5757 27.7253 22.6337 27.764 22.6975 27.7904C22.7613 27.8168 22.8296 27.8303 22.8987 27.8303H25.5173C25.5863 27.8303 25.6547 27.8168 25.7185 27.7904C25.7823 27.764 25.8402 27.7253 25.889 27.6764C25.9378 27.6276 25.9766 27.5697 26.003 27.5059C26.0294 27.4421 26.0429 27.3737 26.0429 27.3047V24.6858C26.043 24.5465 25.9877 24.4129 25.8893 24.3143C25.7909 24.2158 25.6574 24.1603 25.5182 24.1602ZM24.9925 26.779H23.4252V25.2114H24.9925V26.779Z" fill="white" stroke="white" stroke-width="0.5"/>
</svg>
