<svg width="170" height="32" viewBox="0 0 170 32" fill="none" xmlns="http://www.w3.org/2000/svg">
<path d="M30.7244 3.23172H27.8207V2.42764C27.8207 1.8501 27.5913 1.2962 27.1829 0.887816C26.7745 0.479429 26.2206 0.25 25.6431 0.25C25.0656 0.25 24.5117 0.479429 24.1033 0.887816C23.6949 1.2962 23.4655 1.8501 23.4655 2.42764V3.23172H8.03454V2.42764C8.03454 1.8501 7.80511 1.2962 7.39673 0.887816C6.98834 0.479429 6.43445 0.25 5.8569 0.25C5.27935 0.25 4.72546 0.479429 4.31708 0.887816C3.90869 1.2962 3.67926 1.8501 3.67926 2.42764V3.23172H0.775638C0.63623 3.23172 0.502532 3.2871 0.403956 3.38567C0.305379 3.48425 0.25 3.61795 0.25 3.75735V30.7244C0.25008 30.8637 0.305485 30.9974 0.404044 31.096C0.502602 31.1945 0.636254 31.2499 0.775638 31.25H30.7244C30.8637 31.2499 30.9974 31.1945 31.096 31.096C31.1945 30.9974 31.2499 30.8637 31.25 30.7244V3.75735C31.25 3.61795 31.1946 3.48425 31.096 3.38567C30.9975 3.2871 30.8638 3.23172 30.7244 3.23172ZM24.5167 2.42764C24.5167 2.12891 24.6354 1.84242 24.8466 1.63118C25.0579 1.41995 25.3444 1.30128 25.6431 1.30128C25.9418 1.30128 26.2283 1.41995 26.4396 1.63118C26.6508 1.84242 26.7695 2.12891 26.7695 2.42764V5.08707C26.7695 5.3858 26.6508 5.67229 26.4396 5.88353C26.2283 6.09476 25.9418 6.21343 25.6431 6.21343C25.3444 6.21343 25.0579 6.09476 24.8466 5.88353C24.6354 5.67229 24.5167 5.3858 24.5167 5.08707V2.42764ZM4.73054 2.42764C4.73054 2.12891 4.84921 1.84242 5.06044 1.63118C5.27168 1.41995 5.55817 1.30128 5.8569 1.30128C6.15563 1.30128 6.44213 1.41995 6.65336 1.63118C6.8646 1.84242 6.98327 2.12891 6.98327 2.42764V5.08707C6.98327 5.3858 6.8646 5.67229 6.65336 5.88353C6.44213 6.09476 6.15563 6.21343 5.8569 6.21343C5.55817 6.21343 5.27168 6.09476 5.06044 5.88353C4.84921 5.67229 4.73054 5.3858 4.73054 5.08707V2.42764ZM3.67926 4.28299V5.08707C3.67926 5.66461 3.90869 6.21851 4.31708 6.62689C4.72546 7.03528 5.27935 7.26471 5.8569 7.26471C6.43445 7.26471 6.98834 7.03528 7.39673 6.62689C7.80511 6.21851 8.03454 5.66461 8.03454 5.08707V4.28299H23.4655V5.08707C23.4655 5.66461 23.6949 6.21851 24.1033 6.62689C24.5117 7.03528 25.0656 7.26471 25.6431 7.26471C26.2206 7.26471 26.7745 7.03528 27.1829 6.62689C27.5913 6.21851 27.8207 5.66461 27.8207 5.08707V4.28299H30.1975V9.80279H1.30248V4.28299H3.67926ZM1.30248 30.1975V10.8541H30.1975V30.1975H1.30248Z" fill="white" stroke="white" stroke-width="0.5"/>
<path d="M8.60137 13.3471H5.98189C5.91285 13.3471 5.84448 13.3606 5.78069 13.387C5.7169 13.4134 5.65894 13.4522 5.61012 13.501C5.5613 13.5498 5.52259 13.6078 5.49618 13.6715C5.46978 13.7353 5.45621 13.8037 5.45625 13.8727V16.4916C5.45621 16.5607 5.46978 16.629 5.49618 16.6928C5.52259 16.7566 5.5613 16.8146 5.61012 16.8634C5.65894 16.9122 5.7169 16.9509 5.78069 16.9773C5.84448 17.0037 5.91285 17.0173 5.98189 17.0173H8.60137C8.67041 17.0173 8.73878 17.0037 8.80257 16.9773C8.86636 16.9509 8.92432 16.9122 8.97314 16.8634C9.02196 16.8146 9.06067 16.7566 9.08707 16.6928C9.11348 16.629 9.12705 16.5607 9.12701 16.4916V13.8727C9.12705 13.8037 9.11348 13.7353 9.08707 13.6715C9.06067 13.6078 9.02196 13.5498 8.97314 13.501C8.92432 13.4522 8.86636 13.4134 8.80257 13.387C8.73878 13.3606 8.67041 13.3471 8.60137 13.3471ZM8.07573 15.966H6.50753V14.3984H8.07483L8.07573 15.966Z" fill="white" stroke="white" stroke-width="0.5"/>
<path d="M14.2398 13.3471H11.6209C11.4815 13.3471 11.3478 13.4025 11.2492 13.5011C11.1506 13.5996 11.0953 13.7333 11.0953 13.8727V16.4916C11.0953 16.631 11.1506 16.7647 11.2492 16.8633C11.3478 16.9619 11.4815 17.0173 11.6209 17.0173H14.2398C14.3792 17.0173 14.5129 16.9619 14.6115 16.8633C14.71 16.7647 14.7654 16.631 14.7654 16.4916V13.8727C14.7654 13.7333 14.71 13.5996 14.6115 13.5011C14.5129 13.4025 14.3792 13.3471 14.2398 13.3471ZM13.7141 15.966H12.1456V14.3984H13.7132L13.7141 15.966Z" fill="white" stroke="white" stroke-width="0.5"/>
<path d="M19.8792 13.3471H17.2603C17.1209 13.3471 16.9872 13.4025 16.8886 13.5011C16.79 13.5996 16.7347 13.7333 16.7347 13.8727V16.4916C16.7347 16.631 16.79 16.7647 16.8886 16.8633C16.9872 16.9619 17.1209 17.0173 17.2603 17.0173H19.8792C19.9482 17.0173 20.0166 17.0037 20.0804 16.9773C20.1442 16.9509 20.2021 16.9122 20.251 16.8634C20.2998 16.8146 20.3385 16.7566 20.3649 16.6928C20.3913 16.629 20.4049 16.5607 20.4048 16.4916V13.8727C20.4049 13.8037 20.3913 13.7353 20.3649 13.6715C20.3385 13.6078 20.2998 13.5498 20.251 13.501C20.2021 13.4522 20.1442 13.4134 20.0804 13.387C20.0166 13.3606 19.9482 13.3471 19.8792 13.3471ZM19.3544 15.966H17.7859V14.3984H19.3544V15.966Z" fill="white" stroke="white" stroke-width="0.5"/>
<path d="M25.5182 13.3471H22.8987C22.8297 13.3471 22.7613 13.3606 22.6975 13.387C22.6337 13.4134 22.5758 13.4522 22.527 13.501C22.4781 13.5498 22.4394 13.6078 22.413 13.6715C22.3866 13.7353 22.3731 13.8037 22.3731 13.8727V16.4916C22.3731 16.5607 22.3866 16.629 22.413 16.6928C22.4394 16.7566 22.4781 16.8146 22.527 16.8634C22.5758 16.9122 22.6337 16.9509 22.6975 16.9773C22.7613 17.0037 22.8297 17.0173 22.8987 17.0173H25.5173C25.5863 17.0173 25.6547 17.0037 25.7185 16.9773C25.7823 16.9509 25.8403 16.9122 25.8891 16.8634C25.9379 16.8146 25.9766 16.7566 26.003 16.6928C26.0294 16.629 26.043 16.5607 26.0429 16.4916V13.8727C26.043 13.7335 25.9878 13.5999 25.8894 13.5013C25.791 13.4027 25.6575 13.3473 25.5182 13.3471ZM24.9926 15.966H23.4253V14.3984H24.9926V15.966Z" fill="white" stroke="white" stroke-width="0.5"/>
<path d="M8.60137 18.7537H5.98189C5.91285 18.7536 5.84448 18.7672 5.78069 18.7936C5.7169 18.82 5.65894 18.8587 5.61012 18.9075C5.5613 18.9563 5.52259 19.0143 5.49618 19.0781C5.46978 19.1419 5.45621 19.2103 5.45625 19.2793V21.8982C5.45621 21.9672 5.46978 22.0356 5.49618 22.0994C5.52259 22.1632 5.5613 22.2211 5.61012 22.2699C5.65894 22.3188 5.7169 22.3575 5.78069 22.3839C5.84448 22.4103 5.91285 22.4239 5.98189 22.4238H8.60137C8.67041 22.4239 8.73878 22.4103 8.80257 22.3839C8.86636 22.3575 8.92432 22.3188 8.97314 22.2699C9.02196 22.2211 9.06067 22.1632 9.08707 22.0994C9.11348 22.0356 9.12705 21.9672 9.12701 21.8982V19.2793C9.12705 19.2103 9.11348 19.1419 9.08707 19.0781C9.06067 19.0143 9.02196 18.9563 8.97314 18.9075C8.92432 18.8587 8.86636 18.82 8.80257 18.7936C8.73878 18.7672 8.67041 18.7536 8.60137 18.7537ZM8.07573 21.3725H6.50753V19.8049H8.07483L8.07573 21.3725Z" fill="white" stroke="white" stroke-width="0.5"/>
<path d="M14.2398 18.7537H11.6209C11.4815 18.7537 11.3478 18.809 11.2492 18.9076C11.1506 19.0062 11.0953 19.1399 11.0953 19.2793V21.8982C11.0953 22.0376 11.1506 22.1713 11.2492 22.2699C11.3478 22.3684 11.4815 22.4238 11.6209 22.4238H14.2398C14.3792 22.4238 14.5129 22.3684 14.6115 22.2699C14.71 22.1713 14.7654 22.0376 14.7654 21.8982V19.2793C14.7654 19.1399 14.71 19.0062 14.6115 18.9076C14.5129 18.809 14.3792 18.7537 14.2398 18.7537ZM13.7141 21.3725H12.1456V19.8049H13.7132L13.7141 21.3725Z" fill="white" stroke="white" stroke-width="0.5"/>
<path d="M19.8792 18.7537H17.2603C17.1209 18.7537 16.9872 18.809 16.8886 18.9076C16.79 19.0062 16.7347 19.1399 16.7347 19.2793V21.8982C16.7347 22.0376 16.79 22.1713 16.8886 22.2699C16.9872 22.3684 17.1209 22.4238 17.2603 22.4238H19.8792C19.9482 22.4239 20.0166 22.4103 20.0804 22.3839C20.1442 22.3575 20.2021 22.3188 20.251 22.2699C20.2998 22.2211 20.3385 22.1632 20.3649 22.0994C20.3913 22.0356 20.4049 21.9672 20.4048 21.8982V19.2793C20.4049 19.2103 20.3913 19.1419 20.3649 19.0781C20.3385 19.0143 20.2998 18.9563 20.251 18.9075C20.2021 18.8587 20.1442 18.82 20.0804 18.7936C20.0166 18.7672 19.9482 18.7536 19.8792 18.7537ZM19.3544 21.3725H17.7859V19.8049H19.3544V21.3725Z" fill="white" stroke="white" stroke-width="0.5"/>
<path d="M25.5182 18.7537H22.8987C22.8297 18.7536 22.7613 18.7672 22.6975 18.7936C22.6337 18.82 22.5758 18.8587 22.527 18.9075C22.4781 18.9563 22.4394 19.0143 22.413 19.0781C22.3866 19.1419 22.3731 19.2103 22.3731 19.2793V21.8982C22.3731 21.9672 22.3866 22.0356 22.413 22.0994C22.4394 22.1632 22.4781 22.2211 22.527 22.2699C22.5758 22.3188 22.6337 22.3575 22.6975 22.3839C22.7613 22.4103 22.8297 22.4239 22.8987 22.4238H25.5173C25.5863 22.4239 25.6547 22.4103 25.7185 22.3839C25.7823 22.3575 25.8403 22.3188 25.8891 22.2699C25.9379 22.2211 25.9766 22.1632 26.003 22.0994C26.0294 22.0356 26.043 21.9672 26.0429 21.8982V19.2793C26.043 19.14 25.9878 19.0064 25.8894 18.9078C25.791 18.8093 25.6575 18.7538 25.5182 18.7537ZM24.9926 21.3725H23.4253V19.8049H24.9926V21.3725Z" fill="white" stroke="white" stroke-width="0.5"/>
<path d="M8.60137 24.1602H5.98189C5.91285 24.1602 5.84448 24.1737 5.78069 24.2001C5.7169 24.2266 5.65894 24.2653 5.61012 24.3141C5.5613 24.3629 5.52259 24.4209 5.49618 24.4847C5.46978 24.5484 5.45621 24.6168 5.45625 24.6859V27.3047C5.45621 27.3738 5.46978 27.4421 5.49618 27.5059C5.52259 27.5697 5.5613 27.6277 5.61012 27.6765C5.65894 27.7253 5.7169 27.764 5.78069 27.7904C5.84448 27.8168 5.91285 27.8304 5.98189 27.8304H8.60137C8.67041 27.8304 8.73878 27.8168 8.80257 27.7904C8.86636 27.764 8.92432 27.7253 8.97314 27.6765C9.02196 27.6277 9.06067 27.5697 9.08707 27.5059C9.11348 27.4421 9.12705 27.3738 9.12701 27.3047V24.6859C9.12705 24.6168 9.11348 24.5484 9.08707 24.4847C9.06067 24.4209 9.02196 24.3629 8.97314 24.3141C8.92432 24.2653 8.86636 24.2266 8.80257 24.2001C8.73878 24.1737 8.67041 24.1602 8.60137 24.1602ZM8.07573 26.7791H6.50753V25.2115H8.07483L8.07573 26.7791Z" fill="white" stroke="white" stroke-width="0.5"/>
<path d="M14.2398 24.1602H11.6209C11.4815 24.1602 11.3478 24.2156 11.2492 24.3142C11.1506 24.4127 11.0953 24.5464 11.0953 24.6859V27.3047C11.0953 27.4441 11.1506 27.5778 11.2492 27.6764C11.3478 27.775 11.4815 27.8304 11.6209 27.8304H14.2398C14.3792 27.8304 14.5129 27.775 14.6115 27.6764C14.71 27.5778 14.7654 27.4441 14.7654 27.3047V24.6859C14.7654 24.5464 14.71 24.4127 14.6115 24.3142C14.5129 24.2156 14.3792 24.1602 14.2398 24.1602ZM13.7141 26.7791H12.1456V25.2115H13.7132L13.7141 26.7791Z" fill="white" stroke="white" stroke-width="0.5"/>
<path d="M19.8792 24.1602H17.2603C17.1209 24.1602 16.9872 24.2156 16.8886 24.3142C16.79 24.4127 16.7347 24.5464 16.7347 24.6859V27.3047C16.7347 27.4441 16.79 27.5778 16.8886 27.6764C16.9872 27.775 17.1209 27.8304 17.2603 27.8304H19.8792C19.9482 27.8304 20.0166 27.8168 20.0804 27.7904C20.1442 27.764 20.2021 27.7253 20.251 27.6765C20.2998 27.6277 20.3385 27.5697 20.3649 27.5059C20.3913 27.4421 20.4049 27.3738 20.4048 27.3047V24.6859C20.4049 24.6168 20.3913 24.5484 20.3649 24.4847C20.3385 24.4209 20.2998 24.3629 20.251 24.3141C20.2021 24.2653 20.1442 24.2266 20.0804 24.2001C20.0166 24.1737 19.9482 24.1602 19.8792 24.1602ZM19.3544 26.7791H17.7859V25.2115H19.3544V26.7791Z" fill="white" stroke="white" stroke-width="0.5"/>
<path d="M25.5182 24.1602H22.8987C22.8297 24.1602 22.7613 24.1737 22.6975 24.2001C22.6337 24.2266 22.5758 24.2653 22.527 24.3141C22.4781 24.3629 22.4394 24.4209 22.413 24.4847C22.3866 24.5484 22.3731 24.6168 22.3731 24.6859V27.3047C22.3731 27.3738 22.3866 27.4421 22.413 27.5059C22.4394 27.5697 22.4781 27.6277 22.527 27.6765C22.5758 27.7253 22.6337 27.764 22.6975 27.7904C22.7613 27.8168 22.8297 27.8304 22.8987 27.8304H25.5173C25.5863 27.8304 25.6547 27.8168 25.7185 27.7904C25.7823 27.764 25.8403 27.7253 25.8891 27.6765C25.9379 27.6277 25.9766 27.5697 26.003 27.5059C26.0294 27.4421 26.043 27.3738 26.0429 27.3047V24.6859C26.043 24.5466 25.9878 24.413 25.8894 24.3144C25.791 24.2158 25.6575 24.1604 25.5182 24.1602ZM24.9926 26.7791H23.4253V25.2115H24.9926V26.7791Z" fill="white" stroke="white" stroke-width="0.5"/>
<path d="M55.5195 8.01172H65.0469V11.2461H61.9062V25.25H58.5781V11.2461H55.5195V8.01172ZM68.1992 7.25C68.7617 7.25 69.2422 7.45312 69.6406 7.85938C70.0469 8.26562 70.25 8.75781 70.25 9.33594C70.25 9.90625 70.0508 10.3945 69.6523 10.8008C69.2539 11.1992 68.7773 11.3984 68.2227 11.3984C67.6523 11.3984 67.1641 11.1953 66.7578 10.7891C66.3594 10.375 66.1602 9.875 66.1602 9.28906C66.1602 8.72656 66.3594 8.24609 66.7578 7.84766C67.1562 7.44922 67.6367 7.25 68.1992 7.25ZM66.5938 12.5H69.8047V25.25H66.5938V12.5ZM72.6875 12.5H75.8984V13.9648C76.4453 13.3633 77.0508 12.9141 77.7148 12.6172C78.3867 12.3203 79.1172 12.1719 79.9062 12.1719C80.7031 12.1719 81.4219 12.3672 82.0625 12.7578C82.7031 13.1484 83.2188 13.7188 83.6094 14.4688C84.1172 13.7188 84.7383 13.1484 85.4727 12.7578C86.2148 12.3672 87.0234 12.1719 87.8984 12.1719C88.8047 12.1719 89.6016 12.3828 90.2891 12.8047C90.9766 13.2266 91.4688 13.7773 91.7656 14.457C92.0703 15.1367 92.2227 16.2422 92.2227 17.7734V25.25H89V18.7812C89 17.3359 88.8203 16.3594 88.4609 15.8516C88.1016 15.3359 87.5625 15.0781 86.8438 15.0781C86.2969 15.0781 85.8047 15.2344 85.3672 15.5469C84.9375 15.8594 84.6172 16.293 84.4062 16.8477C84.1953 17.3945 84.0898 18.2773 84.0898 19.4961V25.25H80.8672V19.0742C80.8672 17.9336 80.7812 17.1094 80.6094 16.6016C80.4453 16.0859 80.1953 15.7031 79.8594 15.4531C79.5234 15.2031 79.1172 15.0781 78.6406 15.0781C78.1094 15.0781 77.625 15.2383 77.1875 15.5586C76.7578 15.8711 76.4336 16.3125 76.2148 16.8828C76.0039 17.4531 75.8984 18.3516 75.8984 19.5781V25.25H72.6875V12.5ZM108.055 19.8008H97.7773C97.9258 20.707 98.3203 21.4297 98.9609 21.9688C99.6094 22.5 100.434 22.7656 101.434 22.7656C102.629 22.7656 103.656 22.3477 104.516 21.5117L107.211 22.7773C106.539 23.7305 105.734 24.4375 104.797 24.8984C103.859 25.3516 102.746 25.5781 101.457 25.5781C99.457 25.5781 97.8281 24.9492 96.5703 23.6914C95.3125 22.4258 94.6836 20.8438 94.6836 18.9453C94.6836 17 95.3086 15.3867 96.5586 14.1055C97.8164 12.8164 99.3906 12.1719 101.281 12.1719C103.289 12.1719 104.922 12.8164 106.18 14.1055C107.438 15.3867 108.066 17.082 108.066 19.1914L108.055 19.8008ZM104.844 17.2812C104.633 16.5703 104.215 15.9922 103.59 15.5469C102.973 15.1016 102.254 14.8789 101.434 14.8789C100.543 14.8789 99.7617 15.1289 99.0898 15.6289C98.668 15.9414 98.2773 16.4922 97.918 17.2812H104.844ZM111.043 7.80078H114.23V12.5H116.129V15.2539H114.23V25.25H111.043V15.2539H109.402V12.5H111.043V7.80078ZM127.273 12.5H130.461V25.25H127.273V23.9023C126.648 24.4961 126.02 24.9258 125.387 25.1914C124.762 25.4492 124.082 25.5781 123.348 25.5781C121.699 25.5781 120.273 24.9414 119.07 23.668C117.867 22.3867 117.266 20.7969 117.266 18.8984C117.266 16.9297 117.848 15.3164 119.012 14.0586C120.176 12.8008 121.59 12.1719 123.254 12.1719C124.02 12.1719 124.738 12.3164 125.41 12.6055C126.082 12.8945 126.703 13.3281 127.273 13.9062V12.5ZM123.91 15.125C122.918 15.125 122.094 15.4766 121.438 16.1797C120.781 16.875 120.453 17.7695 120.453 18.8633C120.453 19.9648 120.785 20.8711 121.449 21.582C122.121 22.293 122.945 22.6484 123.922 22.6484C124.93 22.6484 125.766 22.3008 126.43 21.6055C127.094 20.9023 127.426 19.9844 127.426 18.8516C127.426 17.7422 127.094 16.8438 126.43 16.1562C125.766 15.4688 124.926 15.125 123.91 15.125ZM136.871 7.57812V13.9062C137.449 13.3281 138.074 12.8945 138.746 12.6055C139.418 12.3164 140.137 12.1719 140.902 12.1719C142.566 12.1719 143.98 12.8008 145.145 14.0586C146.309 15.3164 146.891 16.9297 146.891 18.8984C146.891 20.7969 146.289 22.3867 145.086 23.668C143.883 24.9414 142.457 25.5781 140.809 25.5781C140.074 25.5781 139.391 25.4492 138.758 25.1914C138.125 24.9258 137.496 24.4961 136.871 23.9023V25.25H133.695V7.57812H136.871ZM140.234 15.125C139.227 15.125 138.391 15.4688 137.727 16.1562C137.062 16.8438 136.73 17.7422 136.73 18.8516C136.73 19.9844 137.062 20.9023 137.727 21.6055C138.391 22.3008 139.227 22.6484 140.234 22.6484C141.211 22.6484 142.031 22.293 142.695 21.582C143.367 20.8711 143.703 19.9648 143.703 18.8633C143.703 17.7695 143.375 16.875 142.719 16.1797C142.062 15.4766 141.234 15.125 140.234 15.125ZM149.199 7.57812H152.398V25.25H149.199V7.57812ZM168.078 19.8008H157.801C157.949 20.707 158.344 21.4297 158.984 21.9688C159.633 22.5 160.457 22.7656 161.457 22.7656C162.652 22.7656 163.68 22.3477 164.539 21.5117L167.234 22.7773C166.562 23.7305 165.758 24.4375 164.82 24.8984C163.883 25.3516 162.77 25.5781 161.48 25.5781C159.48 25.5781 157.852 24.9492 156.594 23.6914C155.336 22.4258 154.707 20.8438 154.707 18.9453C154.707 17 155.332 15.3867 156.582 14.1055C157.84 12.8164 159.414 12.1719 161.305 12.1719C163.312 12.1719 164.945 12.8164 166.203 14.1055C167.461 15.3867 168.09 17.082 168.09 19.1914L168.078 19.8008ZM164.867 17.2812C164.656 16.5703 164.238 15.9922 163.613 15.5469C162.996 15.1016 162.277 14.8789 161.457 14.8789C160.566 14.8789 159.785 15.1289 159.113 15.6289C158.691 15.9414 158.301 16.4922 157.941 17.2812H164.867Z" fill="white"/>
</svg>
