<svg width="80" height="80" viewBox="0 0 80 80" fill="none" xmlns="http://www.w3.org/2000/svg">
<circle cx="40" cy="40" r="37" fill="white" stroke="#13B7B3" stroke-width="6"/>
<path d="M21 19H50.5556C54.5371 19 56.5258 19 57.7629 20.2306C59 21.4612 59 23.4394 59 27.4V40C59 43.9606 59 45.9388 57.7629 47.1694C56.5258 48.4 54.5371 48.4 50.5556 48.4H35.7778M37.8889 28.45H50.5556M21 50.5V42.1C21 40.1197 21 39.1306 21.6186 38.5153C22.2371 37.9 23.2314 37.9 25.2222 37.9H29.4444M21 50.5H29.4444M21 50.5V61M29.4444 37.9V50.5M29.4444 37.9H42.1111M29.4444 50.5V61" stroke="#13B7B3" stroke-width="4" stroke-linecap="round" stroke-linejoin="round"/>
<path d="M29.4444 28.45C29.4444 29.5639 28.9996 30.6322 28.2078 31.4198C27.416 32.2075 26.342 32.65 25.2222 32.65C24.1024 32.65 23.0285 32.2075 22.2367 31.4198C21.4448 30.6322 21 29.5639 21 28.45C21 27.3361 21.4448 26.2678 22.2367 25.4802C23.0285 24.6925 24.1024 24.25 25.2222 24.25C26.342 24.25 27.416 24.6925 28.2078 25.4802C28.9996 26.2678 29.4444 27.3361 29.4444 28.45Z" stroke="#13B7B3" stroke-width="4" stroke-linecap="round" stroke-linejoin="round"/>
</svg>
