<svg width="20" height="17" viewBox="0 0 20 17" fill="none" xmlns="http://www.w3.org/2000/svg">
<path fill-rule="evenodd" clip-rule="evenodd" d="M15.2558 1.13333C14.9959 0.781444 14.6588 0.495835 14.2713 0.299123C13.8838 0.102411 13.4565 0 13.0233 0H2.7907C2.05056 0 1.34073 0.298511 0.817377 0.829864C0.294019 1.36122 0 2.08189 0 2.83333V14.1667C0 14.9181 0.294019 15.6388 0.817377 16.1701C1.34073 16.7015 2.05056 17 2.7907 17H13.0233C13.4565 17 13.8838 16.8976 14.2713 16.7009C14.6588 16.5042 14.9959 16.2186 15.2558 15.8667L19.4419 10.2C19.8042 9.70956 20 9.11305 20 8.5C20 7.88695 19.8042 7.29044 19.4419 6.8L15.2558 1.13333Z" fill="black"/>
</svg>
