<svg width="21" height="25" viewBox="0 0 21 25" fill="none" xmlns="http://www.w3.org/2000/svg">
<path d="M19.6561 8.42704H18.4853C18.1585 8.42704 17.8914 8.69246 17.8914 9.01717V9.54235H12.6228C12.3557 9.54235 12.1397 9.32776 12.1397 9.06234V8.60493H12.3245C12.6086 8.60493 12.836 8.37622 12.836 8.09669V7.08867C12.836 6.80632 12.6058 6.58043 12.3245 6.58043H11.9721L11.3242 5.8463C11.2077 5.7136 11.0514 5.62324 10.8837 5.58371V3.60722C11.0826 3.45475 11.2503 3.26557 11.3782 3.0538L14.7854 3.20627C14.7967 3.20627 14.8053 3.20627 14.8166 3.20627C15.0809 3.20627 15.3225 3.0538 15.439 2.8138C15.6919 2.28861 15.6919 1.75496 15.4361 1.22695C15.3168 0.981303 15.061 0.831654 14.7854 0.845772L11.381 0.998244C11.2304 0.749771 11.0258 0.53518 10.7757 0.36859C10.6592 0.28953 10.52 0.25 10.375 0.25H8.94849C8.80357 0.25 8.66432 0.292353 8.54781 0.36859C8.29774 0.53518 8.09314 0.749771 7.94253 0.998244L4.53815 0.845772C4.2625 0.834478 4.00391 0.98695 3.88456 1.23542C3.63164 1.76061 3.63164 2.29426 3.8874 2.82227C4.00107 3.05662 4.24261 3.20627 4.50689 3.20627C4.51826 3.20627 4.52678 3.20627 4.53815 3.20627L7.94537 3.0538C8.07325 3.26557 8.24091 3.45192 8.43983 3.60722V5.58371C8.26932 5.62324 8.11587 5.7136 7.99936 5.8463L7.35145 6.58043H6.99908C6.71491 6.58043 6.48757 6.80914 6.48757 7.08867V8.09669C6.48757 8.37904 6.71775 8.60493 6.99908 8.60493H7.18379V9.06234C7.18379 9.32776 6.96782 9.54235 6.7007 9.54235C5.90786 9.54235 5.13491 9.69765 4.41027 10.0026C3.70837 10.2962 3.08035 10.7198 2.54042 11.2563C2.0005 11.7927 1.57708 12.4167 1.2787 13.1142C0.971796 13.837 0.815501 14.6022 0.815501 15.39V16.3048C0.502912 16.3189 0.25 16.5787 0.25 16.8949V17.8606C0.25 18.1853 0.517121 18.4507 0.843919 18.4507H4.45858C4.78538 18.4507 5.0525 18.1853 5.0525 17.8606V16.8949C5.0525 16.5787 4.80243 16.3217 4.487 16.3048V15.39C4.487 14.845 4.6916 14.3198 5.06103 13.9161C5.44466 13.4953 6.04142 13.3513 6.58419 13.5518C7.70951 13.9641 8.86608 14.1758 10.0198 14.1815C10.0369 14.1815 10.0539 14.1815 10.0681 14.1815C11.1963 14.1815 12.333 13.9838 13.4441 13.5942C14.2085 13.3259 15.0184 13.1904 15.8539 13.1904H17.8914V13.7156C17.8914 14.0403 18.1585 14.3057 18.4853 14.3057H19.6561C19.9829 14.3057 20.25 14.0403 20.25 13.7156V9.01434C20.25 8.68963 19.9829 8.42704 19.6561 8.42704ZM11.6197 1.59684L14.8138 1.45566C14.8451 1.45284 14.8735 1.46978 14.8848 1.49519C15.0582 1.85096 15.0582 2.19826 14.8877 2.55403C14.8735 2.58226 14.8451 2.60203 14.8138 2.59921L11.6197 2.45803C11.651 2.31967 11.668 2.17567 11.668 2.02885C11.668 1.8792 11.651 1.7352 11.6197 1.59684ZM4.51257 2.59921C4.48132 2.60203 4.4529 2.58509 4.44153 2.55968C4.26819 2.20391 4.26819 1.85661 4.43869 1.50084C4.4529 1.4726 4.48132 1.45284 4.51257 1.45566L7.70666 1.59684C7.67541 1.7352 7.65836 1.8792 7.65836 2.02602C7.65836 2.17285 7.67541 2.31685 7.70666 2.4552L4.51257 2.59921ZM8.26932 2.02602C8.26932 1.56296 8.50234 1.13378 8.88882 0.874008C8.90587 0.862713 8.92576 0.857066 8.94849 0.857066H10.375C10.3978 0.857066 10.4177 0.862713 10.4347 0.874008C10.824 1.13095 11.0542 1.56296 11.0542 2.02602C11.0542 2.5145 10.7928 2.96909 10.3694 3.21757H8.95134C8.53076 2.96909 8.26932 2.5145 8.26932 2.02602ZM10.2727 3.82463V5.56112H9.05364V3.82463H10.2727ZM8.45972 6.24725C8.50235 6.19925 8.5677 6.16819 8.63306 6.16819H8.74673H10.5768H10.6905C10.7558 6.16819 10.8183 6.19643 10.8638 6.24725L11.1565 6.57761H8.16702L8.45972 6.24725ZM7.09854 7.99504V7.18467H7.49069H11.8357H12.2278V7.99504H7.09854ZM4.43869 17.8408H0.86381V16.9119H1.12241H4.18294H4.44153V17.8408H4.43869ZM17.8914 12.5833H15.8539C14.9502 12.5833 14.0693 12.7302 13.2423 13.021C11.094 13.7749 8.92576 13.7608 6.79731 12.9786C6.41937 12.8403 6.013 12.8177 5.62369 12.9109C5.23153 13.004 4.882 13.2102 4.61203 13.5066C4.14031 14.0233 3.87887 14.6925 3.87887 15.39V16.3048H1.43215V15.39C1.43215 14.6841 1.5714 13.9979 1.84704 13.3513C2.11132 12.7273 2.49211 12.1683 2.97805 11.6854C3.46114 11.2054 4.02664 10.8271 4.65466 10.5617C5.30541 10.2878 5.99595 10.1494 6.70638 10.1494C7.31167 10.1494 7.80044 9.66094 7.80044 9.06234V8.60493H11.5288V9.06234C11.5288 9.66376 12.0204 10.1494 12.6228 10.1494H17.8914V12.5833ZM19.6362 13.6986H18.5023V12.8855V9.84447V9.03128H19.6362V13.6986Z" fill="white" stroke="white" stroke-width="0.5"/>
<path d="M2.65084 24.25C3.70512 24.25 4.56048 23.3972 4.56048 22.3525C4.56048 21.9262 4.28483 21.2513 3.71649 20.2913C3.31296 19.6108 2.91797 19.049 2.90091 19.0264C2.84408 18.9445 2.7503 18.8965 2.65084 18.8965C2.55138 18.8965 2.45761 18.9445 2.40077 19.0264C2.38372 19.049 1.98872 19.6108 1.5852 20.2913C1.01686 21.2513 0.741211 21.9262 0.741211 22.3525C0.741211 23.3972 1.59657 24.25 2.65084 24.25ZM2.65084 19.7407C3.2334 20.6132 3.94951 21.8556 3.94951 22.3525C3.94951 23.0641 3.36696 23.6429 2.65084 23.6429C1.93473 23.6429 1.35218 23.0641 1.35218 22.3525C1.35218 21.8556 2.07113 20.6132 2.65084 19.7407Z" fill="white" stroke="white" stroke-width="0.5"/>
</svg>
